<svg width="147" height="35" viewBox="0 0 147 35" fill="none" xmlns="http://www.w3.org/2000/svg">
<path fill-rule="evenodd" clip-rule="evenodd" d="M56.9978 25.3044L54.9655 34.6H50.376L57.964 0.916016H63.4115L70.558 34.6H65.9103L63.9612 25.3044H56.9978ZM63.4448 21.5562L61.8955 13.51C61.4457 11.2111 60.9959 8.21254 60.6461 5.81368H60.4462C60.0963 8.26252 59.6132 11.361 59.1468 13.51L57.5476 21.5562H63.4448Z" fill="#1C1E4F"/>
<path fill-rule="evenodd" clip-rule="evenodd" d="M88.1412 0.0166016V28.3364C88.1412 30.1856 88.2412 32.8843 88.3411 34.5835H84.293L83.9932 31.6349H83.8433C83.3902 32.6113 82.6723 33.4412 81.7712 34.0301C80.8701 34.6191 79.8219 34.9435 78.7457 34.9666C74.2478 34.9666 71.4991 30.0689 71.4991 22.5225C71.4991 13.9266 75.1474 9.87856 78.9956 9.87856C79.9142 9.83841 80.8231 10.0802 81.6003 10.5716C82.3775 11.0629 82.9858 11.7802 83.3435 12.6272H83.4435V0.0166016H88.1412ZM83.4435 19.5573C83.4435 19.1075 83.4435 18.5578 83.3935 18.058C83.1436 15.8591 81.8942 13.9599 80.195 13.9599C77.2464 13.9599 76.2469 18.058 76.2469 22.5559C76.2469 27.5535 77.5463 31.0518 80.0451 31.0518C81.0946 31.0518 82.4939 30.5021 83.2935 27.6034C83.4003 27.0941 83.4506 26.5746 83.4435 26.0542V19.5573Z" fill="#1C1E4F"/>
<path fill-rule="evenodd" clip-rule="evenodd" d="M99.336 35.0001C94.4883 35.0001 91.0066 30.8355 91.0066 22.5061C91.0066 13.6603 95.1713 9.91211 99.6025 9.91211C104.4 9.91211 107.849 14.2101 107.849 22.4062C107.849 32.0516 103.101 35.0001 99.4026 35.0001H99.336ZM99.4859 31.3019C102.385 31.3019 103.034 26.1544 103.034 22.4561C103.034 18.7579 102.385 13.6103 99.3859 13.6103C96.3874 13.6103 95.6877 18.8079 95.6877 22.4561C95.6877 26.5042 96.3874 31.3019 99.4359 31.3019H99.4859Z" fill="#1C1E4F"/>
<path fill-rule="evenodd" clip-rule="evenodd" d="M110.664 0.016675H115.362V13.0271H115.462C115.92 12.0688 116.644 11.2624 117.548 10.7042C118.452 10.1459 119.497 9.85936 120.559 9.87864C124.724 9.87864 127.298 14.5764 127.298 22.0228C127.298 30.7187 123.758 34.9667 119.801 34.9667C117.402 34.9667 116.053 33.6673 115.003 31.5183H114.804L114.554 34.5669H110.506C110.606 32.901 110.706 30.169 110.706 28.3198V0L110.664 0.016675ZM115.362 26.0043C115.344 26.5117 115.412 27.0185 115.562 27.5036C116.311 30.4522 117.76 31.0519 118.71 31.0519C121.509 31.0519 122.558 27.3536 122.558 22.356C122.558 17.7082 121.459 13.96 118.66 13.96C117.111 13.96 115.861 15.8091 115.512 17.5583C115.411 18.1079 115.361 18.6655 115.362 19.2242V26.0209V26.0043Z" fill="#1C1E4F"/>
<path fill-rule="evenodd" clip-rule="evenodd" d="M134.236 23.4057C134.286 29.6527 136.985 31.202 139.833 31.202C141.27 31.2089 142.692 30.9019 143.998 30.3024L144.698 33.7008C142.864 34.5135 140.872 34.9063 138.867 34.8502C132.77 34.8502 129.572 30.2524 129.572 22.756C129.572 14.8098 133.22 9.91211 138.267 9.91211C143.315 9.91211 145.755 14.7598 145.755 20.8569C145.755 22.0563 145.706 22.8059 145.656 23.4556L134.261 23.4057H134.236ZM141.283 20.0739C141.333 15.776 139.833 13.4771 137.951 13.4771C135.502 13.4771 134.403 17.0254 134.253 20.0739H141.283Z" fill="#1C1E4F"/>
<path fill-rule="evenodd" clip-rule="evenodd" d="M23.9303 1.00781H37.9653V34.6001L23.9303 1.00781Z" fill="#1C1E4F"/>
<path fill-rule="evenodd" clip-rule="evenodd" d="M14.0433 1.00781H0V34.6001L14.0433 1.00781Z" fill="#1C1E4F"/>
<path fill-rule="evenodd" clip-rule="evenodd" d="M18.9909 13.3853L27.9283 34.6001H22.0728L19.3991 27.8367H12.8522L18.9909 13.3853Z" fill="#1C1E4F"/>
<path fill-rule="evenodd" clip-rule="evenodd" d="M145.331 9.84525C145.545 9.8436 145.755 9.90572 145.935 10.0237C146.114 10.1417 146.254 10.3102 146.337 10.5079C146.42 10.7056 146.443 10.9236 146.402 11.1342C146.361 11.3447 146.259 11.5385 146.108 11.6907C145.957 11.843 145.764 11.947 145.553 11.9894C145.343 12.0319 145.125 12.0109 144.927 11.9292C144.728 11.8475 144.559 11.7088 144.439 11.5305C144.32 11.3523 144.256 11.1426 144.256 10.9281C144.254 10.786 144.28 10.6448 144.333 10.513C144.386 10.3812 144.465 10.2613 144.565 10.1604C144.666 10.0595 144.785 9.97967 144.916 9.92555C145.048 9.87143 145.189 9.84412 145.331 9.84525ZM145.331 10.0118C145.088 10.0118 144.855 10.1084 144.683 10.2802C144.511 10.452 144.414 10.6851 144.414 10.9281C144.414 11.1711 144.511 11.4041 144.683 11.5759C144.855 11.7478 145.088 11.8443 145.331 11.8443C145.56 11.8314 145.776 11.7292 145.932 11.5596C146.087 11.3901 146.171 11.1664 146.164 10.9364C146.171 10.7046 146.088 10.4791 145.933 10.3069C145.778 10.1346 145.562 10.0289 145.331 10.0118ZM145.131 11.5611H144.923V10.3534C145.036 10.3431 145.15 10.3431 145.264 10.3534C145.395 10.3458 145.526 10.3777 145.639 10.445C145.675 10.4755 145.703 10.514 145.722 10.5573C145.741 10.6006 145.749 10.6477 145.747 10.6949C145.747 10.7627 145.724 10.8284 145.681 10.8813C145.639 10.9343 145.58 10.9713 145.514 10.9864C145.622 10.9864 145.689 11.0947 145.714 11.2779C145.729 11.3801 145.754 11.4806 145.789 11.5778H145.589C145.545 11.4799 145.517 11.376 145.506 11.2696C145.505 11.2377 145.497 11.2064 145.483 11.1777C145.47 11.149 145.45 11.1236 145.425 11.1031C145.401 11.0826 145.372 11.0676 145.342 11.0589C145.311 11.0503 145.279 11.0483 145.247 11.053H145.114V11.5778L145.131 11.5611ZM145.131 10.8864H145.272C145.431 10.8864 145.564 10.8281 145.564 10.6865C145.564 10.5449 145.489 10.47 145.272 10.47H145.131V10.8781V10.8864Z" fill="#1C1E4F"/>
<path fill-rule="evenodd" clip-rule="evenodd" d="M39.8144 1.00781C40.1016 1.00781 40.377 1.1219 40.58 1.32497C40.7831 1.52804 40.8972 1.80344 40.8972 2.09062C40.8972 2.3778 40.7831 2.65323 40.58 2.8563C40.377 3.05936 40.1016 3.17345 39.8144 3.17345C39.5272 3.17345 39.2518 3.05936 39.0487 2.8563C38.8456 2.65323 38.7316 2.3778 38.7316 2.09062C38.7316 1.80344 38.8456 1.52804 39.0487 1.32497C39.2518 1.1219 39.5272 1.00781 39.8144 1.00781ZM39.8144 1.17438C39.5875 1.19609 39.3769 1.30157 39.2236 1.47021C39.0703 1.63886 38.9854 1.85856 38.9854 2.08645C38.9854 2.31434 39.0703 2.53407 39.2236 2.70271C39.3769 2.87136 39.5875 2.97681 39.8144 2.99852C40.0449 2.9877 40.2618 2.8862 40.4178 2.71613C40.5739 2.54607 40.6564 2.32123 40.6473 2.09062C40.6543 1.85973 40.5713 1.63516 40.4159 1.46424C40.2606 1.29332 40.0449 1.18939 39.8144 1.17438ZM39.6145 2.71532H39.4229V1.50758C39.5365 1.49771 39.6508 1.49771 39.7644 1.50758C39.896 1.496 40.0278 1.52819 40.1392 1.59919C40.1774 1.62785 40.2075 1.66597 40.2265 1.70979C40.2455 1.75361 40.2527 1.80159 40.2475 1.84906C40.2473 1.91686 40.2242 1.98262 40.1818 2.03556C40.1395 2.08851 40.0804 2.12553 40.0143 2.14059C40.1226 2.14059 40.1892 2.25721 40.2142 2.43213C40.2278 2.53458 40.253 2.63518 40.2892 2.732H40.0893C40.0458 2.63416 40.0177 2.53019 40.006 2.42379C40.006 2.26553 39.906 2.21555 39.7477 2.21555H39.6145V2.732V2.71532ZM39.6145 2.04898H39.7561C39.9143 2.04898 40.0476 1.99068 40.0476 1.84075C40.0476 1.69082 39.9726 1.63251 39.7561 1.63251H39.6145V2.04065V2.04898Z" fill="#1C1E4F"/>
</svg>
