<svg width="117" height="35" viewBox="0 0 117 35" fill="none" xmlns="http://www.w3.org/2000/svg">
<g clip-path="url(#clip0)">
<path fill-rule="evenodd" clip-rule="evenodd" d="M72.0531 27.3709C65.3054 32.3506 55.5229 34.9974 47.0968 34.9974C35.8414 35.0559 24.9697 30.9094 16.612 23.3703C15.9839 22.8003 16.546 22.0192 17.306 22.4599C25.9854 27.5266 36.7285 30.5561 47.812 30.5561C55.805 30.5176 63.7116 28.8988 71.0767 25.7929C72.2167 25.3099 73.1746 26.5476 72.0584 27.3762" fill="#1C1E4F"/>
<path fill-rule="evenodd" clip-rule="evenodd" d="M74.8609 24.1646C73.998 23.0589 69.1556 23.6368 66.9785 23.9007C66.3214 23.9799 66.2211 23.4046 66.8148 22.9903C70.6756 20.2748 77.0037 21.0612 77.74 21.9664C78.4762 22.8715 77.5473 29.2287 73.9267 32.2582C73.3699 32.7253 72.8395 32.4719 73.0876 31.8597C73.903 29.8251 75.7265 25.2624 74.8609 24.1646Z" fill="#1C1E4F"/>
<path fill-rule="evenodd" clip-rule="evenodd" d="M67.1341 3.82126V1.18234C67.1319 1.09395 67.1477 1.00604 67.1804 0.923918C67.2132 0.841794 67.2622 0.767159 67.3246 0.704517C67.387 0.641875 67.4615 0.592527 67.5435 0.559448C67.6255 0.52637 67.7133 0.510249 67.8017 0.512058H79.6188C79.7079 0.5092 79.7966 0.524415 79.8796 0.556787C79.9627 0.589158 80.0383 0.638013 80.1019 0.700406C80.1655 0.762799 80.2159 0.837435 80.2498 0.919811C80.2838 1.00219 80.3008 1.0906 80.2997 1.1797V3.43862C80.2997 3.81598 79.9777 4.3121 79.4077 5.0985L73.2907 13.8386C75.5602 13.7832 77.9669 14.1236 80.0279 15.2847C80.2137 15.3858 80.3694 15.5343 80.4793 15.715C80.5891 15.8958 80.6492 16.1024 80.6533 16.3139V19.127C80.6533 19.5149 80.2311 19.9635 79.7877 19.726C77.8555 18.7343 75.714 18.2192 73.5421 18.2238C71.3702 18.2283 69.231 18.7525 67.303 19.7524C66.8886 19.9688 66.4611 19.5281 66.4611 19.1402V16.4722C66.4219 15.8377 66.5745 15.2059 66.8992 14.6593L73.99 4.48627H67.8175C67.7284 4.48986 67.6394 4.47526 67.5561 4.44335C67.4728 4.41144 67.3968 4.36289 67.3329 4.30067C67.2689 4.23844 67.2183 4.16385 67.1841 4.08143C67.15 3.999 67.1329 3.91048 67.1341 3.82126Z" fill="#1C1E4F"/>
<path fill-rule="evenodd" clip-rule="evenodd" d="M24.0353 20.2878H20.4411C20.2787 20.281 20.1242 20.2159 20.006 20.1044C19.8877 19.9929 19.8136 19.8426 19.7972 19.6809V1.22953C19.7993 1.14023 19.8189 1.05222 19.8551 0.970541C19.8913 0.888867 19.9432 0.815138 20.0079 0.753592C20.0727 0.692046 20.1489 0.643896 20.2323 0.611902C20.3157 0.579907 20.4046 0.564701 20.4939 0.567157H23.84C24.0063 0.571801 24.1651 0.637648 24.2859 0.752082C24.4066 0.866516 24.4809 1.02149 24.4945 1.1873V3.59664H24.5631C25.4339 1.26647 27.078 0.179236 29.2921 0.179236C31.5061 0.179236 32.9496 1.26647 33.9577 3.59664C34.8285 1.26647 36.8077 0.179236 38.9215 0.179236C39.7247 0.163223 40.5204 0.337266 41.2436 0.687176C41.9668 1.03709 42.5971 1.55296 43.083 2.19273C44.2231 3.74178 43.9908 5.99542 43.9908 7.97724V19.6175C43.9891 19.7068 43.9698 19.7949 43.9339 19.8767C43.8981 19.9585 43.8465 20.0324 43.782 20.0942C43.7175 20.156 43.6414 20.2044 43.5582 20.2368C43.4749 20.2691 43.3861 20.2846 43.2968 20.2825H39.7026C39.531 20.2751 39.3687 20.2024 39.249 20.0793C39.1293 19.9561 39.0612 19.7919 39.0587 19.6202V9.8456C39.0587 9.06976 39.1247 7.13015 38.9558 6.39126C38.6919 5.14832 37.8817 4.8079 36.8446 4.8079C36.3772 4.8209 35.9241 4.97157 35.542 5.24103C35.1598 5.51049 34.8657 5.88675 34.6966 6.32264C34.3245 7.24362 34.3535 8.79003 34.3535 9.8456V19.6254C34.3518 19.7147 34.3325 19.8028 34.2966 19.8846C34.2608 19.9664 34.2091 20.0403 34.1446 20.1021C34.0801 20.1639 34.0041 20.2124 33.9208 20.2447C33.8376 20.277 33.7487 20.2925 33.6595 20.2904H30.0758C29.9042 20.2831 29.742 20.2103 29.6223 20.0872C29.5025 19.9641 29.4344 19.7998 29.4319 19.6281V9.8456C29.4319 7.78988 29.7644 4.7604 27.2152 4.7604C24.666 4.7604 24.732 7.71071 24.732 9.8456V19.6254C24.7306 19.7146 24.7116 19.8026 24.6761 19.8844C24.6405 19.9662 24.5891 20.0401 24.5248 20.102C24.4606 20.1638 24.3847 20.2123 24.3016 20.2446C24.2185 20.277 24.1298 20.2925 24.0406 20.2904" fill="#1C1E4F"/>
<path fill-rule="evenodd" clip-rule="evenodd" d="M90.4701 0.176666C95.806 0.176666 98.6904 4.76047 98.6904 10.5819C98.6904 16.2107 95.5026 20.6758 90.4701 20.6758C85.2345 20.6758 82.3845 16.0946 82.3845 10.384C82.3845 4.63644 85.2688 0.171387 90.4701 0.171387V0.176666ZM90.5045 3.93713C87.8655 3.93713 87.6861 7.54717 87.6861 9.79817C87.6861 12.0492 87.6544 16.8678 90.4701 16.8678C93.2859 16.8678 93.3914 12.9833 93.3914 10.6162C93.3914 9.06191 93.3228 7.19883 92.8636 5.72368C92.4599 4.4438 91.655 3.93713 90.515 3.93713" fill="#1C1E4F"/>
<path fill-rule="evenodd" clip-rule="evenodd" d="M105.604 20.2878H102.029C101.857 20.2798 101.695 20.2069 101.576 20.0838C101.456 19.9608 101.388 19.7969 101.385 19.6254V1.16616C101.406 0.998054 101.488 0.843698 101.616 0.733016C101.745 0.622334 101.909 0.563212 102.079 0.567121H105.412C105.56 0.571837 105.702 0.624617 105.817 0.717469C105.932 0.81032 106.014 0.938186 106.05 1.08171V3.90272H106.116C107.124 1.37991 108.534 0.179199 111.014 0.179199C112.626 0.179199 114.202 0.759763 115.21 2.35367C116.152 3.82619 116.152 6.31205 116.152 8.0986V19.7099C116.127 19.8744 116.043 20.0242 115.916 20.1315C115.789 20.2388 115.627 20.2962 115.461 20.293H111.851C111.693 20.2855 111.542 20.2231 111.425 20.1167C111.308 20.0103 111.232 19.8664 111.209 19.7099V9.68195C111.209 7.66582 111.447 4.7155 108.961 4.7155C108.509 4.73506 108.073 4.88467 107.704 5.14635C107.335 5.40804 107.049 5.77066 106.882 6.19066C106.38 7.31484 106.309 8.43902 106.309 9.68195V19.6175C106.303 19.7981 106.227 19.9692 106.096 20.0937C105.965 20.2182 105.79 20.2861 105.61 20.2825" fill="#1C1E4F"/>
<path fill-rule="evenodd" clip-rule="evenodd" d="M57.7158 11.4767C57.7158 12.8779 57.7474 14.0443 57.0428 15.2899C56.4702 16.3006 55.565 16.9234 54.5543 16.9234C53.1742 16.9234 52.3667 15.8678 52.3667 14.3161C52.3667 11.2576 55.1138 10.7008 57.7158 10.7008V11.4767ZM61.339 20.2405C61.2237 20.3402 61.0805 20.4019 60.9288 20.417C60.7772 20.4321 60.6246 20.4 60.4919 20.325C59.2965 19.3327 59.0827 18.8736 58.4309 17.9315C56.457 19.9397 55.0584 20.544 52.5039 20.544C49.4771 20.544 47.1231 18.6756 47.1231 14.9389C47.1231 12.0229 48.7065 10.0385 50.9548 9.06469C52.9076 8.20968 55.631 8.05398 57.7158 7.82176V7.35467C57.7158 6.49438 57.7817 5.48367 57.2777 4.74742C56.8423 4.08241 56.0005 3.81324 55.2589 3.81324C53.8893 3.81324 52.6728 4.51519 52.3693 5.97188C52.3515 6.13465 52.281 6.28715 52.1686 6.40622C52.0562 6.52529 51.908 6.60443 51.7465 6.63161L48.2631 6.25424C48.1782 6.24195 48.0967 6.21246 48.0236 6.16757C47.9504 6.12268 47.8872 6.06334 47.8378 5.99319C47.7884 5.92303 47.7539 5.84353 47.7362 5.75956C47.7186 5.67558 47.7183 5.58889 47.7354 5.50479C48.527 1.28252 52.3535 0 55.7735 0C57.5205 0 59.8084 0.467088 61.1859 1.78919C62.9355 3.42268 62.7693 5.60243 62.7693 7.97745V13.5772C62.7693 15.2609 63.4686 15.9971 64.1283 16.9076C64.3553 17.2348 64.4081 17.6227 64.1151 17.8602C63.3815 18.4777 62.0621 19.6098 61.3495 20.2511L61.339 20.2405Z" fill="#1C1E4F"/>
<path fill-rule="evenodd" clip-rule="evenodd" d="M10.6032 11.4767C10.6032 12.8779 10.6349 14.0443 9.9303 15.2899C9.35765 16.3006 8.4525 16.9234 7.4418 16.9234C6.06164 16.9234 5.25413 15.8678 5.25413 14.3161C5.25413 11.2576 8.00389 10.7008 10.6032 10.7008V11.4767ZM14.2265 20.2405C14.1112 20.3402 13.9679 20.4019 13.8163 20.417C13.6646 20.4321 13.512 20.4 13.3794 20.325C12.1839 19.3327 11.9702 18.8736 11.3157 17.9315C9.34446 19.9397 7.94847 20.544 5.39136 20.544C2.36715 20.544 0.0105972 18.6756 0.0105972 14.9389C0.0105972 12.0229 1.59395 10.0385 3.84495 9.06469C5.79511 8.20968 8.51848 8.05398 10.6032 7.82176V7.35467C10.6032 6.49438 10.6718 5.48367 10.1652 4.74742C9.72974 4.08241 8.88792 3.81324 8.14639 3.81324C6.77679 3.81324 5.55761 4.51519 5.25941 5.97188C5.24074 6.13434 5.16999 6.2864 5.05773 6.40531C4.94547 6.52423 4.79774 6.60362 4.63662 6.63161L1.15325 6.25424C1.06849 6.24159 0.987182 6.21187 0.914244 6.16688C0.841306 6.12189 0.778257 6.06257 0.728914 5.9925C0.679572 5.92244 0.644962 5.84309 0.62718 5.75925C0.609399 5.67542 0.608815 5.58885 0.625465 5.50479C1.41714 1.28252 5.24358 0 8.66362 0C10.4106 0 12.6985 0.467088 14.0787 1.78919C15.8283 3.42268 15.662 5.60243 15.662 7.97745V13.5772C15.662 15.2609 16.3613 15.9971 17.0184 16.9076C17.248 17.2348 17.2982 17.6227 17.0184 17.8602C16.2848 18.4777 14.9786 19.6125 14.2634 20.2511L14.2265 20.2405Z" fill="#1C1E4F"/>
</g>
<defs>
<clipPath id="clip0">
<rect width="116.142" height="35" fill="white"/>
</clipPath>
</defs>
</svg>
