<svg width="550" height="418" viewBox="0 0 550 418" fill="none" xmlns="http://www.w3.org/2000/svg">
<rect width="550" height="418" rx="4" fill="#E9ECFC"/>
<g clip-path="url(#clip0)">
<path d="M182.563 235.836H99.9688C98.3822 235.836 97.0959 237.122 97.0959 238.708V348.475C97.0959 350.061 98.3822 351.346 99.9688 351.346H182.563C184.149 351.346 185.436 350.061 185.436 348.475V238.708C185.436 237.122 184.149 235.836 182.563 235.836Z" fill="#1C1E4F"/>
<path d="M175.74 228.443H93.1455C91.5589 228.443 90.2727 229.728 90.2727 231.314V341.082C90.2727 342.667 91.5589 343.953 93.1455 343.953H175.74C177.326 343.953 178.612 342.667 178.612 341.082V231.314C178.612 229.728 177.326 228.443 175.74 228.443Z" fill="white" stroke="#1C1E4F" stroke-width="0.75" stroke-miterlimit="10"/>
<path d="M110.182 246.596L104.278 243.223L98.3742 246.596C98.2256 246.596 98.0831 246.537 97.978 246.432C97.873 246.327 97.814 246.185 97.814 246.036V228.644C97.814 228.495 97.873 228.353 97.978 228.248C98.0831 228.143 98.2256 228.084 98.3742 228.084H110.182C110.33 228.084 110.473 228.143 110.578 228.248C110.683 228.353 110.742 228.495 110.742 228.644V246.036C110.742 246.185 110.683 246.327 110.578 246.432C110.473 246.537 110.33 246.596 110.182 246.596Z" fill="#4F37FD"/>
<path d="M147.73 265.41H100.594C99.2053 265.41 98.0798 266.535 98.0798 267.922C98.0798 269.31 99.2053 270.435 100.594 270.435H147.73C149.118 270.435 150.243 269.31 150.243 267.922C150.243 266.535 149.118 265.41 147.73 265.41Z" fill="#E9ECFC"/>
<path d="M160.657 276.177H100.594C99.2053 276.177 98.0798 277.302 98.0798 278.69C98.0798 280.077 99.2053 281.202 100.594 281.202H160.657C162.046 281.202 163.171 280.077 163.171 278.69C163.171 277.302 162.046 276.177 160.657 276.177Z" fill="#E9ECFC"/>
<path d="M131.211 286.945H100.594C99.2053 286.945 98.0798 288.069 98.0798 289.457C98.0798 290.844 99.2053 291.969 100.594 291.969H131.211C132.599 291.969 133.725 290.844 133.725 289.457C133.725 288.069 132.599 286.945 131.211 286.945Z" fill="#E9ECFC"/>
<path d="M154.194 297.712H100.594C99.2053 297.712 98.0798 298.836 98.0798 300.224C98.0798 301.612 99.2053 302.736 100.594 302.736H154.194C155.582 302.736 156.707 301.612 156.707 300.224C156.707 298.836 155.582 297.712 154.194 297.712Z" fill="#E9ECFC"/>
<path d="M124.029 308.479H100.594C99.2053 308.479 98.0798 309.604 98.0798 310.991C98.0798 312.379 99.2053 313.503 100.594 313.503H124.029C125.417 313.503 126.542 312.379 126.542 310.991C126.542 309.604 125.417 308.479 124.029 308.479Z" fill="#E9ECFC"/>
<path d="M145.575 319.246H100.594C99.2053 319.246 98.0798 320.371 98.0798 321.758C98.0798 323.146 99.2053 324.271 100.594 324.271H145.575C146.963 324.271 148.089 323.146 148.089 321.758C148.089 320.371 146.963 319.246 145.575 319.246Z" fill="#E9ECFC"/>
<path d="M343.801 120.054H198.722C197.136 120.054 195.85 121.339 195.85 122.925V242.081C195.85 243.667 197.136 244.953 198.722 244.953H343.801C345.387 244.953 346.674 243.667 346.674 242.081V122.925C346.674 121.339 345.387 120.054 343.801 120.054Z" stroke="#1C1E4F" stroke-width="0.75" stroke-miterlimit="10"/>
<path d="M347.033 135.128H196.209" stroke="#1C1E4F" stroke-width="0.75" stroke-miterlimit="10"/>
<path d="M206.17 130.103C207.559 130.103 208.684 128.978 208.684 127.591C208.684 126.203 207.559 125.079 206.17 125.079C204.782 125.079 203.657 126.203 203.657 127.591C203.657 128.978 204.782 130.103 206.17 130.103Z" stroke="#1C1E4F" stroke-width="0.75" stroke-miterlimit="10"/>
<path d="M214.43 130.103C215.818 130.103 216.943 128.978 216.943 127.591C216.943 126.203 215.818 125.079 214.43 125.079C213.041 125.079 211.916 126.203 211.916 127.591C211.916 128.978 213.041 130.103 214.43 130.103Z" stroke="#1C1E4F" stroke-width="0.75" stroke-miterlimit="10"/>
<path d="M222.33 130.103C223.718 130.103 224.844 128.978 224.844 127.591C224.844 126.203 223.718 125.079 222.33 125.079C220.942 125.079 219.816 126.203 219.816 127.591C219.816 128.978 220.942 130.103 222.33 130.103Z" stroke="#1C1E4F" stroke-width="0.75" stroke-miterlimit="10"/>
<path d="M279.88 147.689H206.17C204.782 147.689 203.657 148.814 203.657 150.202C203.657 151.589 204.782 152.714 206.17 152.714H279.88C281.269 152.714 282.394 151.589 282.394 150.202C282.394 148.814 281.269 147.689 279.88 147.689Z" fill="#E9ECFC"/>
<path d="M365.706 183.58C366.896 183.58 367.861 182.616 367.861 181.426C367.861 180.237 366.896 179.273 365.706 179.273C364.516 179.273 363.552 180.237 363.552 181.426C363.552 182.616 364.516 183.58 365.706 183.58Z" fill="#E9ECFC"/>
<path d="M379.352 183.58C380.542 183.58 381.507 182.616 381.507 181.426C381.507 180.237 380.542 179.273 379.352 179.273C378.162 179.273 377.198 180.237 377.198 181.426C377.198 182.616 378.162 183.58 379.352 183.58Z" fill="#E9ECFC"/>
<path d="M392.998 183.58C394.188 183.58 395.153 182.616 395.153 181.426C395.153 180.237 394.188 179.273 392.998 179.273C391.808 179.273 390.844 180.237 390.844 181.426C390.844 182.616 391.808 183.58 392.998 183.58Z" fill="#E9ECFC"/>
<path d="M406.644 183.58C407.834 183.58 408.799 182.616 408.799 181.426C408.799 180.237 407.834 179.273 406.644 179.273C405.454 179.273 404.49 180.237 404.49 181.426C404.49 182.616 405.454 183.58 406.644 183.58Z" fill="#E9ECFC"/>
<path d="M365.706 197.936C366.896 197.936 367.861 196.972 367.861 195.783C367.861 194.593 366.896 193.629 365.706 193.629C364.516 193.629 363.552 194.593 363.552 195.783C363.552 196.972 364.516 197.936 365.706 197.936Z" fill="#E9ECFC"/>
<path d="M379.352 197.936C380.542 197.936 381.507 196.972 381.507 195.783C381.507 194.593 380.542 193.629 379.352 193.629C378.162 193.629 377.198 194.593 377.198 195.783C377.198 196.972 378.162 197.936 379.352 197.936Z" fill="#E9ECFC"/>
<path d="M392.998 197.936C394.188 197.936 395.153 196.972 395.153 195.783C395.153 194.593 394.188 193.629 392.998 193.629C391.808 193.629 390.844 194.593 390.844 195.783C390.844 196.972 391.808 197.936 392.998 197.936Z" fill="#E9ECFC"/>
<path d="M406.644 197.936C407.834 197.936 408.799 196.972 408.799 195.783C408.799 194.593 407.834 193.629 406.644 193.629C405.454 193.629 404.49 194.593 404.49 195.783C404.49 196.972 405.454 197.936 406.644 197.936Z" fill="#E9ECFC"/>
<path d="M365.706 212.292C366.896 212.292 367.861 211.328 367.861 210.139C367.861 208.949 366.896 207.985 365.706 207.985C364.516 207.985 363.552 208.949 363.552 210.139C363.552 211.328 364.516 212.292 365.706 212.292Z" fill="#E9ECFC"/>
<path d="M379.352 212.292C380.542 212.292 381.507 211.328 381.507 210.139C381.507 208.949 380.542 207.985 379.352 207.985C378.162 207.985 377.198 208.949 377.198 210.139C377.198 211.328 378.162 212.292 379.352 212.292Z" fill="#E9ECFC"/>
<path d="M392.998 212.292C394.188 212.292 395.153 211.328 395.153 210.139C395.153 208.949 394.188 207.985 392.998 207.985C391.808 207.985 390.844 208.949 390.844 210.139C390.844 211.328 391.808 212.292 392.998 212.292Z" fill="#E9ECFC"/>
<path d="M406.644 212.292C407.834 212.292 408.799 211.328 408.799 210.139C408.799 208.949 407.834 207.985 406.644 207.985C405.454 207.985 404.49 208.949 404.49 210.139C404.49 211.328 405.454 212.292 406.644 212.292Z" fill="#E9ECFC"/>
<path d="M365.706 225.931C366.896 225.931 367.861 224.966 367.861 223.777C367.861 222.588 366.896 221.624 365.706 221.624C364.516 221.624 363.552 222.588 363.552 223.777C363.552 224.966 364.516 225.931 365.706 225.931Z" fill="#E9ECFC"/>
<path d="M379.352 225.931C380.542 225.931 381.507 224.966 381.507 223.777C381.507 222.588 380.542 221.624 379.352 221.624C378.162 221.624 377.198 222.588 377.198 223.777C377.198 224.966 378.162 225.931 379.352 225.931Z" fill="#E9ECFC"/>
<path d="M392.998 225.931C394.188 225.931 395.153 224.966 395.153 223.777C395.153 222.588 394.188 221.624 392.998 221.624C391.808 221.624 390.844 222.588 390.844 223.777C390.844 224.966 391.808 225.931 392.998 225.931Z" fill="#E9ECFC"/>
<path d="M406.644 225.931C407.834 225.931 408.799 224.966 408.799 223.777C408.799 222.588 407.834 221.624 406.644 221.624C405.454 221.624 404.49 222.588 404.49 223.777C404.49 224.966 405.454 225.931 406.644 225.931Z" fill="#E9ECFC"/>
<path d="M420.29 183.58C421.48 183.58 422.445 182.616 422.445 181.426C422.445 180.237 421.48 179.273 420.29 179.273C419.1 179.273 418.135 180.237 418.135 181.426C418.135 182.616 419.1 183.58 420.29 183.58Z" fill="#E9ECFC"/>
<path d="M420.29 197.936C421.48 197.936 422.445 196.972 422.445 195.783C422.445 194.593 421.48 193.629 420.29 193.629C419.1 193.629 418.135 194.593 418.135 195.783C418.135 196.972 419.1 197.936 420.29 197.936Z" fill="#E9ECFC"/>
<path d="M420.29 212.292C421.48 212.292 422.445 211.328 422.445 210.139C422.445 208.949 421.48 207.985 420.29 207.985C419.1 207.985 418.135 208.949 418.135 210.139C418.135 211.328 419.1 212.292 420.29 212.292Z" fill="#E9ECFC"/>
<path d="M420.29 225.931C421.48 225.931 422.445 224.966 422.445 223.777C422.445 222.588 421.48 221.624 420.29 221.624C419.1 221.624 418.135 222.588 418.135 223.777C418.135 224.966 419.1 225.931 420.29 225.931Z" fill="#E9ECFC"/>
<path d="M365.706 239.569C366.896 239.569 367.861 238.605 367.861 237.416C367.861 236.226 366.896 235.262 365.706 235.262C364.516 235.262 363.552 236.226 363.552 237.416C363.552 238.605 364.516 239.569 365.706 239.569Z" fill="#E9ECFC"/>
<path d="M379.352 239.569C380.542 239.569 381.507 238.605 381.507 237.416C381.507 236.226 380.542 235.262 379.352 235.262C378.162 235.262 377.198 236.226 377.198 237.416C377.198 238.605 378.162 239.569 379.352 239.569Z" fill="#E9ECFC"/>
<path d="M392.998 239.569C394.188 239.569 395.153 238.605 395.153 237.416C395.153 236.226 394.188 235.262 392.998 235.262C391.808 235.262 390.844 236.226 390.844 237.416C390.844 238.605 391.808 239.569 392.998 239.569Z" fill="#E9ECFC"/>
<path d="M406.644 239.569C407.834 239.569 408.799 238.605 408.799 237.416C408.799 236.226 407.834 235.262 406.644 235.262C405.454 235.262 404.49 236.226 404.49 237.416C404.49 238.605 405.454 239.569 406.644 239.569Z" fill="#E9ECFC"/>
<path d="M420.29 239.569C421.48 239.569 422.445 238.605 422.445 237.416C422.445 236.226 421.48 235.262 420.29 235.262C419.1 235.262 418.135 236.226 418.135 237.416C418.135 238.605 419.1 239.569 420.29 239.569Z" fill="#E9ECFC"/>
<path d="M253.307 158.457H206.17C204.782 158.457 203.657 159.581 203.657 160.969C203.657 162.356 204.782 163.481 206.17 163.481H253.307C254.695 163.481 255.82 162.356 255.82 160.969C255.82 159.581 254.695 158.457 253.307 158.457Z" fill="#4F37FD"/>
<path d="M274.853 169.224H220.534C219.146 169.224 218.021 170.348 218.021 171.736C218.021 173.124 219.146 174.248 220.534 174.248H274.853C276.241 174.248 277.366 173.124 277.366 171.736C277.366 170.348 276.241 169.224 274.853 169.224Z" fill="#E9ECFC"/>
<path d="M258.334 179.991H220.534C219.146 179.991 218.021 181.116 218.021 182.503C218.021 183.891 219.146 185.015 220.534 185.015H258.334C259.722 185.015 260.848 183.891 260.848 182.503C260.848 181.116 259.722 179.991 258.334 179.991Z" fill="#4F37FD"/>
<path d="M382.584 212.651H299.272C297.685 212.651 296.399 213.937 296.399 215.522V255.72C296.399 257.305 297.685 258.591 299.272 258.591H382.584C384.171 258.591 385.457 257.305 385.457 255.72V215.522C385.457 213.937 384.171 212.651 382.584 212.651Z" fill="white" stroke="#1C1E4F" stroke-width="0.75" stroke-miterlimit="10"/>
<path d="M299.272 212.651H382.584C383.346 212.651 384.077 212.954 384.615 213.492C385.154 214.031 385.457 214.761 385.457 215.522V227.725H296.399V215.522C296.399 214.761 296.702 214.031 297.24 213.492C297.779 212.954 298.51 212.651 299.272 212.651Z" fill="#2CCD9A" stroke="#1C1E4F" stroke-width="0.75" stroke-miterlimit="10"/>
<path d="M385.457 227.725H296.399" stroke="#1C1E4F" stroke-width="0.75" stroke-miterlimit="10"/>
<path d="M306.001 222.7C307.39 222.7 308.515 221.576 308.515 220.188C308.515 218.801 307.39 217.676 306.001 217.676C304.613 217.676 303.488 218.801 303.488 220.188C303.488 221.576 304.613 222.7 306.001 222.7Z" stroke="#1C1E4F" stroke-width="0.75" stroke-miterlimit="10"/>
<path d="M314.261 222.7C315.649 222.7 316.775 221.576 316.775 220.188C316.775 218.801 315.649 217.676 314.261 217.676C312.873 217.676 311.747 218.801 311.747 220.188C311.747 221.576 312.873 222.7 314.261 222.7Z" stroke="#1C1E4F" stroke-width="0.75" stroke-miterlimit="10"/>
<path d="M322.161 222.7C323.549 222.7 324.675 221.576 324.675 220.188C324.675 218.801 323.549 217.676 322.161 217.676C320.773 217.676 319.647 218.801 319.647 220.188C319.647 221.576 320.773 222.7 322.161 222.7Z" stroke="#1C1E4F" stroke-width="0.75" stroke-miterlimit="10"/>
<path d="M303.488 237.057L309.951 243.517L303.488 249.977" stroke="#1C1E4F" stroke-width="0.75" stroke-linecap="round" stroke-linejoin="round"/>
<path d="M311.747 249.977H318.929" stroke="#1C1E4F" stroke-width="0.75" stroke-linecap="round" stroke-linejoin="round"/>
<path d="M294.625 96.3658H258.621C257.859 96.3658 257.128 96.0633 256.59 95.5249C256.051 94.9864 255.748 94.2561 255.748 93.4946V77.7028C255.748 76.9413 256.051 76.211 256.59 75.6725C257.128 75.1341 257.859 74.8315 258.621 74.8315H294.625C295.387 74.8315 296.118 75.1341 296.656 75.6725C297.195 76.211 297.498 76.9413 297.498 77.7028V93.4946C297.498 94.2561 297.195 94.9864 296.656 95.5249C296.118 96.0633 295.387 96.3658 294.625 96.3658Z" fill="#1C1E4F"/>
<path d="M291.034 92.777H255.03C254.268 92.777 253.538 92.4745 252.999 91.936C252.46 91.3975 252.157 90.6672 252.157 89.9057V74.1139C252.157 73.3524 252.46 72.6221 252.999 72.0836C253.538 71.5452 254.268 71.2427 255.03 71.2427H291.034C291.796 71.2427 292.527 71.5452 293.066 72.0836C293.604 72.6221 293.907 73.3524 293.907 74.1139V89.9057C293.907 90.6672 293.604 91.3975 293.066 91.936C292.527 92.4745 291.796 92.777 291.034 92.777Z" fill="#2CCD9A" stroke="#1C1E4F" stroke-width="0.75" stroke-linecap="round" stroke-linejoin="round"/>
<path d="M279.492 76.2676L285.956 82.7279L279.492 89.1882" fill="#2CCD9A"/>
<path d="M279.492 76.2676L285.956 82.7279L279.492 89.1882" stroke="#1C1E4F" stroke-width="0.75" stroke-linecap="round" stroke-linejoin="round"/>
<path d="M266.564 89.1882L260.101 82.7279L266.564 76.2676" fill="#2CCD9A"/>
<path d="M266.564 89.1882L260.101 82.7279L266.564 76.2676" stroke="#1C1E4F" stroke-width="0.75" stroke-linecap="round" stroke-linejoin="round"/>
<path d="M276.354 76.6265L269.89 88.8292" stroke="#1C1E4F" stroke-width="0.75" stroke-linecap="round" stroke-linejoin="round"/>
<path d="M433.9 83.9048V98.9788M433.9 83.7899L400.144 103.271L366.389 83.7899H433.9ZM433.9 83.7899L400.144 64.3014L366.389 83.7899H433.9ZM386.376 94.9231V110.629L399.958 118.467L413.561 110.629V94.9231L399.979 87.0847L386.376 94.9231ZM386.376 95.2246L399.958 103.063L413.539 95.2246H386.376ZM399.958 103.063V118.137V103.063ZM386.376 56.1471V71.8169L399.958 79.6553L413.539 71.8169V56.1471L399.979 48.3086L386.376 56.1471ZM386.376 56.1471L399.958 64.287L413.539 56.4557L386.376 56.1471ZM399.979 64.287V79.361V64.287ZM352.786 75.4562V91.1188L366.367 98.9501L379.948 91.1188V75.4562L366.367 67.6033L352.786 75.4562ZM352.786 75.7648L366.367 83.5961L379.948 75.7648H352.786ZM366.367 83.5818V98.6558V83.5818ZM420.319 75.7505V91.4346L433.9 99.2731L447.482 91.4346V75.7648L433.9 67.9263L420.319 75.7505ZM420.319 76.0519L433.9 83.8904L447.482 76.0519H420.319Z" stroke="#1C1E4F" stroke-width="0.75" stroke-miterlimit="10"/>
<path d="M257.479 298.975C266.206 298.975 273.28 291.905 273.28 283.183C273.28 274.462 266.206 267.391 257.479 267.391C248.753 267.391 241.678 274.462 241.678 283.183C241.678 291.905 248.753 298.975 257.479 298.975Z" fill="#E9ECFC" stroke="#1C1E4F" stroke-width="0.75" stroke-miterlimit="10"/>
<path d="M252.631 275.036H260.373C261.257 275.036 262.105 275.387 262.73 276.011C263.355 276.636 263.706 277.483 263.706 278.367V279.221C263.706 280.104 263.355 280.951 262.73 281.576C262.105 282.2 261.257 282.551 260.373 282.551H252.631V275.036Z" stroke="#1C1E4F" stroke-width="0.75" stroke-miterlimit="10"/>
<path d="M252.631 282.724H261.479C262.489 282.724 263.457 283.124 264.171 283.838C264.885 284.551 265.286 285.519 265.286 286.528V287.504C265.286 288.513 264.885 289.481 264.171 290.194C263.457 290.908 262.489 291.309 261.479 291.309H252.631V282.724Z" stroke="#1C1E4F" stroke-width="0.75" stroke-miterlimit="10"/>
<path d="M288.498 344.01C297.225 344.01 304.299 336.94 304.299 328.218C304.299 319.497 297.225 312.427 288.498 312.427C279.772 312.427 272.698 319.497 272.698 328.218C272.698 336.94 279.772 344.01 288.498 344.01Z" fill="#E9ECFC" stroke="#1C1E4F" stroke-width="0.75" stroke-miterlimit="10"/>
<path d="M282.034 328.577L288.498 316.375L294.962 328.577L288.498 340.062L282.034 328.577Z" stroke="#1C1E4F" stroke-width="0.75" stroke-miterlimit="10"/>
<path d="M282.034 328.577L288.498 332.166L294.962 328.577" stroke="#1C1E4F" stroke-width="0.75" stroke-miterlimit="10"/>
<path d="M282.034 328.577L288.498 324.988L294.962 328.577" stroke="#1C1E4F" stroke-width="0.75" stroke-miterlimit="10"/>
<path d="M233.915 345.446C242.641 345.446 249.715 338.376 249.715 329.654C249.715 320.933 242.641 313.862 233.915 313.862C225.188 313.862 218.114 320.933 218.114 329.654C218.114 338.376 225.188 345.446 233.915 345.446Z" fill="#E9ECFC" stroke="#1C1E4F" stroke-width="0.75" stroke-miterlimit="10"/>
<path d="M231.38 321.048L233.915 318.521L236.414 321.019" stroke="#1C1E4F" stroke-width="0.75" stroke-miterlimit="10"/>
<path d="M229.62 336.502L222.768 329.654L229.627 322.792" stroke="#1C1E4F" stroke-width="0.75" stroke-miterlimit="10"/>
<path d="M236.457 338.246L233.915 340.795L231.365 338.246" stroke="#1C1E4F" stroke-width="0.75" stroke-miterlimit="10"/>
<path d="M236.457 329.633L233.915 332.181L231.365 329.633" stroke="#1C1E4F" stroke-width="0.75" stroke-miterlimit="10"/>
<path d="M238.188 322.792L245.054 329.654L238.203 336.509" stroke="#1C1E4F" stroke-width="0.75" stroke-miterlimit="10"/>
<path d="M231.365 329.633L233.915 327.092L236.457 329.633" stroke="#1C1E4F" stroke-width="0.75" stroke-miterlimit="10"/>
<path d="M226.366 300.942C228.945 300.942 231.035 298.853 231.035 296.276C231.035 293.699 228.945 291.61 226.366 291.61C223.788 291.61 221.698 293.699 221.698 296.276C221.698 298.853 223.788 300.942 226.366 300.942Z" fill="#4F37FD" stroke="#1C1E4F" stroke-width="0.75" stroke-miterlimit="10"/>
<path d="M259.404 321.04C261.982 321.04 264.073 318.951 264.073 316.375C264.073 313.798 261.982 311.709 259.404 311.709C256.826 311.709 254.736 313.798 254.736 316.375C254.736 318.951 256.826 321.04 259.404 321.04Z" fill="#2CCD9A" stroke="#1C1E4F" stroke-width="0.75" stroke-miterlimit="10"/>
<path d="M293.167 295.917C296.935 295.917 299.99 292.864 299.99 289.098C299.99 285.332 296.935 282.279 293.167 282.279C289.399 282.279 286.344 285.332 286.344 289.098C286.344 292.864 289.399 295.917 293.167 295.917Z" fill="#4F37FD" stroke="#1C1E4F" stroke-width="0.75" stroke-miterlimit="10"/>
<path d="M263.002 363.391C266.77 363.391 269.825 360.338 269.825 356.572C269.825 352.806 266.77 349.753 263.002 349.753C259.234 349.753 256.179 352.806 256.179 356.572C256.179 360.338 259.234 363.391 263.002 363.391Z" fill="#4F37FD" stroke="#1C1E4F" stroke-width="0.75" stroke-miterlimit="10"/>
<path d="M182.563 83.0864H116.487C114.901 83.0864 113.615 84.3719 113.615 85.9577V151.996C113.615 153.582 114.901 154.867 116.487 154.867H182.563C184.149 154.867 185.435 153.582 185.435 151.996V85.9577C185.435 84.3719 184.149 83.0864 182.563 83.0864Z" fill="#1C1E4F"/>
<path d="M175.381 75.9082H109.305C107.719 75.9082 106.433 77.1937 106.433 78.7794V144.818C106.433 146.404 107.719 147.689 109.305 147.689H175.381C176.967 147.689 178.254 146.404 178.254 144.818V78.7794C178.254 77.1937 176.967 75.9082 175.381 75.9082Z" fill="white" stroke="#1C1E4F" stroke-width="0.75" stroke-miterlimit="10"/>
<path d="M115.934 88.4488V85.4053" stroke="#1C1E4F" stroke-width="0.75" stroke-linecap="round" stroke-linejoin="round"/>
<path d="M168.745 138.193L115.927 85.4053H118.98" fill="white"/>
<path d="M168.745 138.193L115.927 85.4053H118.98" stroke="#1C1E4F" stroke-width="0.75" stroke-linecap="round" stroke-linejoin="round"/>
<path d="M168.744 135.149V138.193" stroke="#1C1E4F" stroke-width="0.75" stroke-linecap="round" stroke-linejoin="round"/>
<path d="M168.745 138.193H165.699" stroke="#1C1E4F" stroke-width="0.75" stroke-linecap="round" stroke-linejoin="round"/>
<path d="M342.673 156.303C343.467 156.303 344.11 155.661 344.11 154.868C344.11 154.075 343.467 153.432 342.673 153.432C341.88 153.432 341.237 154.075 341.237 154.868C341.237 155.661 341.88 156.303 342.673 156.303Z" fill="#4F37FD"/>
<path d="M351.292 156.303C352.085 156.303 352.728 155.661 352.728 154.868C352.728 154.075 352.085 153.432 351.292 153.432C350.499 153.432 349.855 154.075 349.855 154.868C349.855 155.661 350.499 156.303 351.292 156.303Z" fill="#4F37FD"/>
<path d="M359.91 156.303C360.704 156.303 361.347 155.661 361.347 154.868C361.347 154.075 360.704 153.432 359.91 153.432C359.117 153.432 358.474 154.075 358.474 154.868C358.474 155.661 359.117 156.303 359.91 156.303Z" fill="#4F37FD"/>
<path d="M368.529 156.303C369.322 156.303 369.965 155.661 369.965 154.868C369.965 154.075 369.322 153.432 368.529 153.432C367.736 153.432 367.093 154.075 367.093 154.868C367.093 155.661 367.736 156.303 368.529 156.303Z" fill="#4F37FD"/>
<path d="M377.147 156.303C377.941 156.303 378.584 155.661 378.584 154.868C378.584 154.075 377.941 153.432 377.147 153.432C376.354 153.432 375.711 154.075 375.711 154.868C375.711 155.661 376.354 156.303 377.147 156.303Z" fill="#4F37FD"/>
<path d="M377.147 119.695C377.941 119.695 378.584 119.052 378.584 118.259C378.584 117.466 377.941 116.824 377.147 116.824C376.354 116.824 375.711 117.466 375.711 118.259C375.711 119.052 376.354 119.695 377.147 119.695Z" fill="#4F37FD"/>
<path d="M377.147 128.309C377.941 128.309 378.584 127.666 378.584 126.873C378.584 126.08 377.941 125.438 377.147 125.438C376.354 125.438 375.711 126.08 375.711 126.873C375.711 127.666 376.354 128.309 377.147 128.309Z" fill="#4F37FD"/>
<path d="M377.147 136.922C377.941 136.922 378.584 136.279 378.584 135.486C378.584 134.694 377.941 134.051 377.147 134.051C376.354 134.051 375.711 134.694 375.711 135.486C375.711 136.279 376.354 136.922 377.147 136.922Z" fill="#4F37FD"/>
<path d="M377.147 145.536C377.941 145.536 378.584 144.893 378.584 144.1C378.584 143.307 377.941 142.665 377.147 142.665C376.354 142.665 375.711 143.307 375.711 144.1C375.711 144.893 376.354 145.536 377.147 145.536Z" fill="#4F37FD"/>
<path d="M330.507 158.456C332.49 158.456 334.098 156.85 334.098 154.867C334.098 152.885 332.49 151.278 330.507 151.278C328.524 151.278 326.916 152.885 326.916 154.867C326.916 156.85 328.524 158.456 330.507 158.456Z" fill="#4F37FD"/>
<path d="M377.198 109.645C379.181 109.645 380.789 108.039 380.789 106.056C380.789 104.074 379.181 102.467 377.198 102.467C375.214 102.467 373.607 104.074 373.607 106.056C373.607 108.039 375.214 109.645 377.198 109.645Z" fill="#4F37FD"/>
<path d="M199.843 197.218C200.636 197.218 201.28 196.575 201.28 195.783C201.28 194.99 200.636 194.347 199.843 194.347C199.05 194.347 198.407 194.99 198.407 195.783C198.407 196.575 199.05 197.218 199.843 197.218Z" fill="#4F37FD"/>
<path d="M191.225 197.218C192.018 197.218 192.661 196.575 192.661 195.783C192.661 194.99 192.018 194.347 191.225 194.347C190.431 194.347 189.788 194.99 189.788 195.783C189.788 196.575 190.431 197.218 191.225 197.218Z" fill="#4F37FD"/>
<path d="M182.606 197.218C183.399 197.218 184.042 196.575 184.042 195.783C184.042 194.99 183.399 194.347 182.606 194.347C181.813 194.347 181.169 194.99 181.169 195.783C181.169 196.575 181.813 197.218 182.606 197.218Z" fill="#4F37FD"/>
<path d="M173.987 197.218C174.781 197.218 175.424 196.575 175.424 195.783C175.424 194.99 174.781 194.347 173.987 194.347C173.194 194.347 172.551 194.99 172.551 195.783C172.551 196.575 173.194 197.218 173.987 197.218Z" fill="#4F37FD"/>
<path d="M165.369 197.218C166.162 197.218 166.805 196.575 166.805 195.783C166.805 194.99 166.162 194.347 165.369 194.347C164.576 194.347 163.933 194.99 163.933 195.783C163.933 196.575 164.576 197.218 165.369 197.218Z" fill="#4F37FD"/>
<path d="M165.369 233.827C166.162 233.827 166.805 233.184 166.805 232.391C166.805 231.598 166.162 230.955 165.369 230.955C164.576 230.955 163.933 231.598 163.933 232.391C163.933 233.184 164.576 233.827 165.369 233.827Z" fill="#4F37FD"/>
<path d="M165.369 225.213C166.162 225.213 166.805 224.57 166.805 223.777C166.805 222.984 166.162 222.342 165.369 222.342C164.576 222.342 163.933 222.984 163.933 223.777C163.933 224.57 164.576 225.213 165.369 225.213Z" fill="#4F37FD"/>
<path d="M165.369 216.599C166.162 216.599 166.805 215.956 166.805 215.163C166.805 214.371 166.162 213.728 165.369 213.728C164.576 213.728 163.933 214.371 163.933 215.163C163.933 215.956 164.576 216.599 165.369 216.599Z" fill="#4F37FD"/>
<path d="M165.369 207.986C166.162 207.986 166.805 207.343 166.805 206.55C166.805 205.757 166.162 205.114 165.369 205.114C164.576 205.114 163.933 205.757 163.933 206.55C163.933 207.343 164.576 207.986 165.369 207.986Z" fill="#4F37FD"/>
<path d="M212.009 199.372C213.993 199.372 215.6 197.765 215.6 195.783C215.6 193.8 213.993 192.194 212.009 192.194C210.026 192.194 208.418 193.8 208.418 195.783C208.418 197.765 210.026 199.372 212.009 199.372Z" fill="#4F37FD"/>
<path d="M165.326 248.183C167.309 248.183 168.917 246.576 168.917 244.594C168.917 242.612 167.309 241.005 165.326 241.005C163.342 241.005 161.735 242.612 161.735 244.594C161.735 246.576 163.342 248.183 165.326 248.183Z" fill="#4F37FD"/>
<path d="M352.42 255.677C353.213 255.677 353.856 255.034 353.856 254.241C353.856 253.448 353.213 252.805 352.42 252.805C351.626 252.805 350.983 253.448 350.983 254.241C350.983 255.034 351.626 255.677 352.42 255.677Z" fill="#4F37FD"/>
<path d="M352.42 264.29C353.213 264.29 353.856 263.648 353.856 262.855C353.856 262.062 353.213 261.419 352.42 261.419C351.626 261.419 350.983 262.062 350.983 262.855C350.983 263.648 351.626 264.29 352.42 264.29Z" fill="#4F37FD"/>
<path d="M352.42 272.904C353.213 272.904 353.856 272.261 353.856 271.469C353.856 270.676 353.213 270.033 352.42 270.033C351.626 270.033 350.983 270.676 350.983 271.469C350.983 272.261 351.626 272.904 352.42 272.904Z" fill="#4F37FD"/>
<path d="M352.42 281.518C353.213 281.518 353.856 280.875 353.856 280.082C353.856 279.289 353.213 278.646 352.42 278.646C351.626 278.646 350.983 279.289 350.983 280.082C350.983 280.875 351.626 281.518 352.42 281.518Z" fill="#4F37FD"/>
<path d="M352.42 290.131C353.213 290.131 353.856 289.489 353.856 288.696C353.856 287.903 353.213 287.26 352.42 287.26C351.626 287.26 350.983 287.903 350.983 288.696C350.983 289.489 351.626 290.131 352.42 290.131Z" fill="#4F37FD"/>
<path d="M352.419 245.671C354.402 245.671 356.01 244.064 356.01 242.081C356.01 240.099 354.402 238.492 352.419 238.492C350.436 238.492 348.828 240.099 348.828 242.081C348.828 244.064 350.436 245.671 352.419 245.671Z" fill="#4F37FD"/>
<path d="M369.657 324.227C370.45 324.227 371.093 323.585 371.093 322.792C371.093 321.999 370.45 321.356 369.657 321.356C368.863 321.356 368.22 321.999 368.22 322.792C368.22 323.585 368.863 324.227 369.657 324.227Z" fill="#4F37FD"/>
<path d="M361.038 324.227C361.831 324.227 362.474 323.585 362.474 322.792C362.474 321.999 361.831 321.356 361.038 321.356C360.245 321.356 359.602 321.999 359.602 322.792C359.602 323.585 360.245 324.227 361.038 324.227Z" fill="#4F37FD"/>
<path d="M381.859 326.424C383.842 326.424 385.45 324.817 385.45 322.835C385.45 320.853 383.842 319.246 381.859 319.246C379.876 319.246 378.268 320.853 378.268 322.835C378.268 324.817 379.876 326.424 381.859 326.424Z" fill="#4F37FD"/>
<path d="M444.645 311.774C445.467 311.999 446.193 312.488 446.712 313.164C447.23 313.841 447.513 314.668 447.518 315.521V329.934C447.51 338.862 444.735 347.567 439.574 354.853C434.412 362.139 427.118 367.647 418.696 370.62C418.276 370.77 417.816 370.77 417.396 370.62C408.979 367.644 401.692 362.134 396.538 354.847C391.384 347.561 388.617 338.857 388.617 329.934V315.521C388.617 314.674 388.894 313.85 389.404 313.174C389.915 312.498 390.632 312.006 391.447 311.774L416.972 304.517C417.677 304.32 418.422 304.32 419.127 304.517L444.645 311.774Z" fill="#4F37FD" stroke="#1C1E4F" stroke-width="0.75" stroke-miterlimit="10"/>
<path d="M352.42 298.745C353.213 298.745 353.856 298.103 353.856 297.31C353.856 296.517 353.213 295.874 352.42 295.874C351.626 295.874 350.983 296.517 350.983 297.31C350.983 298.103 351.626 298.745 352.42 298.745Z" fill="#4F37FD"/>
<path d="M352.42 307.043C353.213 307.043 353.856 306.4 353.856 305.607C353.856 304.815 353.213 304.172 352.42 304.172C351.626 304.172 350.983 304.815 350.983 305.607C350.983 306.4 351.626 307.043 352.42 307.043Z" fill="#4F37FD"/>
<path d="M352.42 315.657C353.213 315.657 353.856 315.014 353.856 314.221C353.856 313.428 353.213 312.786 352.42 312.786C351.626 312.786 350.983 313.428 350.983 314.221C350.983 315.014 351.626 315.657 352.42 315.657Z" fill="#4F37FD"/>
<path d="M352.42 324.271C353.213 324.271 353.856 323.628 353.856 322.835C353.856 322.042 353.213 321.399 352.42 321.399C351.626 321.399 350.983 322.042 350.983 322.835C350.983 323.628 351.626 324.271 352.42 324.271Z" fill="#4F37FD"/>
<path d="M457.134 204.755H421.13C420.368 204.755 419.638 204.453 419.099 203.914C418.56 203.376 418.258 202.645 418.258 201.884V186.092C418.258 185.331 418.56 184.6 419.099 184.062C419.638 183.523 420.368 183.221 421.13 183.221H457.134C457.896 183.221 458.627 183.523 459.166 184.062C459.704 184.6 460.007 185.331 460.007 186.092V201.884C460.007 202.645 459.704 203.376 459.166 203.914C458.627 204.453 457.896 204.755 457.134 204.755Z" fill="#1C1E4F"/>
<path d="M453.543 201.166H417.54C416.778 201.166 416.047 200.864 415.508 200.325C414.969 199.787 414.667 199.056 414.667 198.295V182.503C414.667 181.742 414.969 181.011 415.508 180.473C416.047 179.934 416.778 179.632 417.54 179.632H453.543C454.305 179.632 455.036 179.934 455.575 180.473C456.114 181.011 456.416 181.742 456.416 182.503V198.295C456.416 199.056 456.114 199.787 455.575 200.325C455.036 200.864 454.305 201.166 453.543 201.166Z" fill="#2CCD9A" stroke="#1C1E4F" stroke-width="0.75" stroke-miterlimit="10"/>
<path d="M427.637 183.939H421.892V196.859H427.637" stroke="#1C1E4F" stroke-width="0.75" stroke-linecap="round" stroke-linejoin="round"/>
<path d="M443.438 196.859H449.184V183.939H443.438" stroke="#1C1E4F" stroke-width="0.75" stroke-linecap="round" stroke-linejoin="round"/>
<path d="M430.51 191.117C430.907 191.117 431.229 190.795 431.229 190.399C431.229 190.003 430.907 189.681 430.51 189.681C430.114 189.681 429.792 190.003 429.792 190.399C429.792 190.795 430.114 191.117 430.51 191.117Z" fill="#1C1E4F"/>
<path d="M435.538 191.117C435.934 191.117 436.256 190.795 436.256 190.399C436.256 190.003 435.934 189.681 435.538 189.681C435.141 189.681 434.82 190.003 434.82 190.399C434.82 190.795 435.141 191.117 435.538 191.117Z" fill="#1C1E4F"/>
<path d="M440.565 191.117C440.962 191.117 441.283 190.795 441.283 190.399C441.283 190.003 440.962 189.681 440.565 189.681C440.168 189.681 439.847 190.003 439.847 190.399C439.847 190.795 440.168 191.117 440.565 191.117Z" fill="#1C1E4F"/>
</g>
<defs>
<clipPath id="clip0">
<rect width="370" height="323" fill="white" transform="translate(90 48)"/>
</clipPath>
</defs>
</svg>
