<svg width="60" height="60" viewBox="0 0 60 60" fill="none" xmlns="http://www.w3.org/2000/svg">
<path d="M53.4375 2.8125H6.5625C5.56794 2.8125 4.61411 3.20759 3.91085 3.91085C3.20759 4.61411 2.8125 5.56794 2.8125 6.5625V12.1875H57.1875V6.5625C57.1875 5.56794 56.7924 4.61411 56.0891 3.91085C55.3859 3.20759 54.4321 2.8125 53.4375 2.8125ZM8.4375 9.375C8.06666 9.375 7.70415 9.26503 7.39581 9.05901C7.08746 8.85298 6.84714 8.56014 6.70523 8.21753C6.56331 7.87492 6.52618 7.49792 6.59853 7.13421C6.67087 6.77049 6.84945 6.4364 7.11167 6.17417C7.3739 5.91195 7.70799 5.73337 8.07171 5.66103C8.43542 5.58868 8.81242 5.62581 9.15503 5.76773C9.49764 5.90964 9.79048 6.14996 9.99651 6.45831C10.2025 6.76665 10.3125 7.12916 10.3125 7.5C10.3125 7.99728 10.115 8.47419 9.76332 8.82582C9.41169 9.17746 8.93478 9.375 8.4375 9.375ZM15 9.375C14.6292 9.375 14.2666 9.26503 13.9583 9.05901C13.65 8.85298 13.4096 8.56014 13.2677 8.21753C13.1258 7.87492 13.0887 7.49792 13.161 7.13421C13.2334 6.77049 13.412 6.4364 13.6742 6.17417C13.9364 5.91195 14.2705 5.73337 14.6342 5.66103C14.9979 5.58868 15.3749 5.62581 15.7175 5.76773C16.0601 5.90964 16.353 6.14996 16.559 6.45831C16.765 6.76665 16.875 7.12916 16.875 7.5C16.875 7.99728 16.6775 8.47419 16.3258 8.82582C15.9742 9.17746 15.4973 9.375 15 9.375ZM21.5625 9.375C21.1917 9.375 20.8291 9.26503 20.5208 9.05901C20.2125 8.85298 19.9721 8.56014 19.8302 8.21753C19.6883 7.87492 19.6512 7.49792 19.7235 7.13421C19.7959 6.77049 19.9745 6.4364 20.2367 6.17417C20.4989 5.91195 20.833 5.73337 21.1967 5.66103C21.5604 5.58868 21.9374 5.62581 22.28 5.76773C22.6226 5.90964 22.9155 6.14996 23.1215 6.45831C23.3275 6.76665 23.4375 7.12916 23.4375 7.5C23.4375 7.99728 23.24 8.47419 22.8883 8.82582C22.5367 9.17746 22.0598 9.375 21.5625 9.375Z" fill="#F8F9FF"/>
<path d="M55.5 32.9531L53.1187 35.325C52.3239 34.8992 51.4885 34.5537 50.625 34.2938V30.9375C50.6235 30.4407 50.4255 29.9646 50.0742 29.6133C49.7229 29.262 49.2468 29.064 48.75 29.0625H45C44.5032 29.064 44.0271 29.262 43.6758 29.6133C43.3245 29.9646 43.1265 30.4407 43.125 30.9375V34.2938C42.2598 34.5528 41.424 34.9016 40.6313 35.3344L38.25 32.9531C38.0765 32.7793 37.8705 32.6414 37.6437 32.5473C37.4168 32.4532 37.1737 32.4048 36.9281 32.4048C36.6826 32.4048 36.4394 32.4532 36.2126 32.5473C35.9858 32.6414 35.7797 32.7793 35.6062 32.9531L32.9531 35.6062C32.7793 35.7797 32.6414 35.9858 32.5473 36.2126C32.4532 36.4394 32.4048 36.6826 32.4048 36.9281C32.4048 37.1737 32.4532 37.4168 32.5473 37.6437C32.6414 37.8705 32.7793 38.0765 32.9531 38.25L35.3344 40.6313C34.9016 41.424 34.5528 42.2598 34.2938 43.125H30.9375C30.4407 43.1265 29.9646 43.3245 29.6133 43.6758C29.262 44.0271 29.064 44.5032 29.0625 45V48.75C29.064 49.2468 29.262 49.7229 29.6133 50.0742C29.9646 50.4255 30.4407 50.6235 30.9375 50.625H34.2938C34.5528 51.4902 34.9016 52.326 35.3344 53.1187L32.9531 55.5C32.7358 55.7177 32.5752 55.9854 32.4854 56.2796C32.3955 56.5738 32.379 56.8855 32.4375 57.1875H53.4375C54.4321 57.1875 55.3859 56.7924 56.0891 56.0891C56.7924 55.3859 57.1875 54.4321 57.1875 53.4375V32.4375C56.8855 32.379 56.5738 32.3955 56.2796 32.4854C55.9854 32.5752 55.7177 32.7358 55.5 32.9531ZM46.875 53.4375C45.5771 53.4375 44.3083 53.0526 43.2291 52.3315C42.1499 51.6104 41.3087 50.5855 40.812 49.3864C40.3153 48.1872 40.1854 46.8677 40.4386 45.5947C40.6918 44.3217 41.3168 43.1524 42.2346 42.2346C43.1524 41.3168 44.3217 40.6918 45.5947 40.4386C46.8677 40.1854 48.1872 40.3153 49.3864 40.812C50.5855 41.3087 51.6104 42.1499 52.3315 43.2291C53.0526 44.3083 53.4375 45.5771 53.4375 46.875C53.4375 48.6155 52.7461 50.2847 51.5154 51.5154C50.2847 52.7461 48.6155 53.4375 46.875 53.4375Z" fill="#F8F9FF"/>
<path d="M53.4375 1.875H6.5625C5.31975 1.87649 4.12834 2.37083 3.24958 3.24958C2.37083 4.12834 1.87649 5.31975 1.875 6.5625V53.4375C1.87649 54.6802 2.37083 55.8717 3.24958 56.7504C4.12834 57.6292 5.31975 58.1235 6.5625 58.125H53.4375C54.6802 58.1235 55.8717 57.6292 56.7504 56.7504C57.6292 55.8717 58.1235 54.6802 58.125 53.4375V6.5625C58.1235 5.31975 57.6292 4.12834 56.7504 3.24958C55.8717 2.37083 54.6802 1.87649 53.4375 1.875ZM6.5625 3.75H53.4375C54.1834 3.75 54.8988 4.04632 55.4262 4.57376C55.9537 5.10121 56.25 5.81658 56.25 6.5625V11.25H3.75V6.5625C3.75 5.81658 4.04632 5.10121 4.57376 4.57376C5.10121 4.04632 5.81658 3.75 6.5625 3.75ZM3.75 53.4375V13.125H56.25V31.5459C55.7172 31.651 55.2266 31.909 54.8381 32.2884L52.9369 34.1831C52.4888 33.9704 52.03 33.7808 51.5625 33.615V30.9375C51.5625 30.1916 51.2662 29.4762 50.7387 28.9488C50.2113 28.4213 49.4959 28.125 48.75 28.125H45C44.2541 28.125 43.5387 28.4213 43.0113 28.9488C42.4838 29.4762 42.1875 30.1916 42.1875 30.9375V33.615C41.7187 33.7817 41.259 33.9729 40.8103 34.1878L38.9128 32.2894C38.3782 31.7788 37.6674 31.4938 36.9281 31.4938C36.1889 31.4938 35.478 31.7788 34.9434 32.2894L32.2903 34.9416C32.0293 35.2021 31.8223 35.5115 31.681 35.8522C31.5397 36.1928 31.467 36.558 31.467 36.9267C31.467 37.2955 31.5397 37.6606 31.681 38.0013C31.8223 38.3419 32.0293 38.6513 32.2903 38.9119L34.1888 40.8103C33.9731 41.2588 33.7816 41.7186 33.615 42.1875H30.9375C30.1916 42.1875 29.4762 42.4838 28.9488 43.0113C28.4213 43.5387 28.125 44.2541 28.125 45V48.75C28.125 49.4959 28.4213 50.2113 28.9488 50.7387C29.4762 51.2662 30.1916 51.5625 30.9375 51.5625H33.615C33.7817 52.0311 33.9732 52.4905 34.1888 52.9388L32.2903 54.8372C31.9101 55.2257 31.6514 55.7167 31.5459 56.25H6.5625C5.81658 56.25 5.10121 55.9537 4.57376 55.4262C4.04632 54.8988 3.75 54.1834 3.75 53.4375ZM53.4375 56.25H33.5484C33.5694 56.2198 33.5919 56.1907 33.6159 56.1628L35.9972 53.7816C36.1405 53.6382 36.2334 53.4523 36.2622 53.2517C36.2909 53.0511 36.2539 52.8465 36.1566 52.6687C35.7562 51.9323 35.4327 51.1567 35.1909 50.3541C35.1328 50.1614 35.0141 49.9925 34.8525 49.8725C34.691 49.7524 34.495 49.6876 34.2938 49.6875H30.9375C30.6889 49.6875 30.4504 49.5887 30.2746 49.4129C30.0988 49.2371 30 48.9986 30 48.75V45C30 44.7514 30.0988 44.5129 30.2746 44.3371C30.4504 44.1613 30.6889 44.0625 30.9375 44.0625H34.2938C34.495 44.0624 34.691 43.9976 34.8525 43.8775C35.0141 43.7575 35.1328 43.5886 35.1909 43.3959C35.4327 42.5933 35.7562 41.8177 36.1566 41.0813C36.2539 40.9035 36.2909 40.6989 36.2622 40.4983C36.2334 40.2977 36.1405 40.1118 35.9972 39.9684L33.6159 37.5863C33.5292 37.4999 33.4603 37.3973 33.4133 37.2843C33.3664 37.1712 33.3422 37.0501 33.3422 36.9277C33.3422 36.8053 33.3664 36.6841 33.4133 36.571C33.4603 36.458 33.5292 36.3554 33.6159 36.2691L36.2691 33.6159C36.4464 33.446 36.6825 33.3511 36.9281 33.3511C37.1737 33.3511 37.4099 33.446 37.5872 33.6159L39.9684 35.9972C40.1118 36.1405 40.2977 36.2334 40.4983 36.2622C40.6989 36.2909 40.9035 36.2539 41.0813 36.1566C41.8168 35.7554 42.5923 35.432 43.395 35.1919C43.588 35.1338 43.7572 35.0151 43.8774 34.8533C43.9977 34.6915 44.0626 34.4953 44.0625 34.2938V30.9375C44.0625 30.6889 44.1613 30.4504 44.3371 30.2746C44.5129 30.0988 44.7514 30 45 30H48.75C48.9986 30 49.2371 30.0988 49.4129 30.2746C49.5887 30.4504 49.6875 30.6889 49.6875 30.9375V34.2938C49.6874 34.4953 49.7523 34.6915 49.8726 34.8533C49.9928 35.0151 50.162 35.1338 50.355 35.1919C51.1586 35.4334 51.9359 35.755 52.6753 36.1519C52.8526 36.247 53.0557 36.2826 53.2548 36.2534C53.4538 36.2242 53.6382 36.1317 53.7806 35.9897L56.1628 33.6159C56.1904 33.5916 56.2195 33.5691 56.25 33.5484V53.4375C56.25 54.1834 55.9537 54.8988 55.4262 55.4262C54.8988 55.9537 54.1834 56.25 53.4375 56.25Z" fill="#4F37FD"/>
<path d="M8.4375 10.3125C8.99376 10.3125 9.53753 10.1476 10 9.83851C10.4626 9.52947 10.823 9.09022 11.0359 8.5763C11.2488 8.06238 11.3045 7.49688 11.196 6.95131C11.0874 6.40574 10.8196 5.9046 10.4262 5.51126C10.0329 5.11793 9.53176 4.85006 8.98619 4.74154C8.44062 4.63302 7.87512 4.68872 7.3612 4.90159C6.84728 5.11446 6.40803 5.47495 6.09899 5.93746C5.78995 6.39997 5.625 6.94374 5.625 7.5C5.625 8.24592 5.92132 8.96129 6.44876 9.48874C6.97621 10.0162 7.69158 10.3125 8.4375 10.3125ZM8.4375 6.5625C8.62292 6.5625 8.80417 6.61748 8.95835 6.7205C9.11252 6.82351 9.23268 6.96993 9.30364 7.14124C9.37459 7.31254 9.39316 7.50104 9.35698 7.6829C9.32081 7.86476 9.23152 8.0318 9.10041 8.16291C8.9693 8.29403 8.80225 8.38331 8.6204 8.41949C8.43854 8.45566 8.25004 8.4371 8.07873 8.36614C7.90743 8.29518 7.76101 8.17502 7.658 8.02085C7.55498 7.86668 7.5 7.68542 7.5 7.5C7.5 7.25136 7.59877 7.0129 7.77459 6.83709C7.9504 6.66127 8.18886 6.5625 8.4375 6.5625Z" fill="#4F37FD"/>
<path d="M15 10.3125C15.5563 10.3125 16.1 10.1476 16.5625 9.83851C17.0251 9.52947 17.3855 9.09022 17.5984 8.5763C17.8113 8.06238 17.867 7.49688 17.7585 6.95131C17.6499 6.40574 17.3821 5.9046 16.9887 5.51126C16.5954 5.11793 16.0943 4.85006 15.5487 4.74154C15.0031 4.63302 14.4376 4.68872 13.9237 4.90159C13.4098 5.11446 12.9705 5.47495 12.6615 5.93746C12.3525 6.39997 12.1875 6.94374 12.1875 7.5C12.1875 8.24592 12.4838 8.96129 13.0113 9.48874C13.5387 10.0162 14.2541 10.3125 15 10.3125ZM15 6.5625C15.1854 6.5625 15.3667 6.61748 15.5208 6.7205C15.675 6.82351 15.7952 6.96993 15.8661 7.14124C15.9371 7.31254 15.9557 7.50104 15.9195 7.6829C15.8833 7.86476 15.794 8.0318 15.6629 8.16291C15.5318 8.29403 15.3648 8.38331 15.1829 8.41949C15.001 8.45566 14.8125 8.4371 14.6412 8.36614C14.4699 8.29518 14.3235 8.17502 14.2205 8.02085C14.1175 7.86668 14.0625 7.68542 14.0625 7.5C14.0625 7.25136 14.1613 7.0129 14.3371 6.83709C14.5129 6.66127 14.7514 6.5625 15 6.5625Z" fill="#4F37FD"/>
<path d="M21.5625 10.3125C22.1188 10.3125 22.6625 10.1476 23.125 9.83851C23.5876 9.52947 23.948 9.09022 24.1609 8.5763C24.3738 8.06238 24.4295 7.49688 24.321 6.95131C24.2124 6.40574 23.9446 5.9046 23.5512 5.51126C23.1579 5.11793 22.6568 4.85006 22.1112 4.74154C21.5656 4.63302 21.0001 4.68872 20.4862 4.90159C19.9723 5.11446 19.533 5.47495 19.224 5.93746C18.9149 6.39997 18.75 6.94374 18.75 7.5C18.75 8.24592 19.0463 8.96129 19.5738 9.48874C20.1012 10.0162 20.8166 10.3125 21.5625 10.3125ZM21.5625 6.5625C21.7479 6.5625 21.9292 6.61748 22.0833 6.7205C22.2375 6.82351 22.3577 6.96993 22.4286 7.14124C22.4996 7.31254 22.5182 7.50104 22.482 7.6829C22.4458 7.86476 22.3565 8.0318 22.2254 8.16291C22.0943 8.29403 21.9273 8.38331 21.7454 8.41949C21.5635 8.45566 21.375 8.4371 21.2037 8.36614C21.0324 8.29518 20.886 8.17502 20.783 8.02085C20.68 7.86668 20.625 7.68542 20.625 7.5C20.625 7.25136 20.7238 7.0129 20.8996 6.83709C21.0754 6.66127 21.3139 6.5625 21.5625 6.5625Z" fill="#4F37FD"/>
<path d="M46.875 39.375C45.3916 39.375 43.9416 39.8149 42.7082 40.639C41.4748 41.4631 40.5135 42.6344 39.9459 44.0049C39.3782 45.3753 39.2297 46.8833 39.5191 48.3382C39.8085 49.793 40.5228 51.1294 41.5717 52.1783C42.6206 53.2272 43.9569 53.9415 45.4118 54.2309C46.8667 54.5203 48.3747 54.3718 49.7451 53.8041C51.1155 53.2364 52.2869 52.2751 53.111 51.0418C53.9351 49.8084 54.375 48.3584 54.375 46.875C54.3727 44.8866 53.5819 42.9802 52.1758 41.5742C50.7698 40.1681 48.8634 39.3772 46.875 39.375ZM46.875 52.5C45.7625 52.5 44.6749 52.1701 43.7499 51.552C42.8249 50.9339 42.1039 50.0554 41.6782 49.0276C41.2524 47.9998 41.141 46.8688 41.3581 45.7776C41.5751 44.6865 42.1108 43.6842 42.8975 42.8975C43.6842 42.1109 44.6864 41.5751 45.7776 41.3581C46.8687 41.141 47.9997 41.2524 49.0276 41.6782C50.0554 42.1039 50.9339 42.8249 51.552 43.7499C52.1701 44.6749 52.5 45.7625 52.5 46.875C52.4985 48.3664 51.9054 49.7963 50.8508 50.8508C49.7962 51.9054 48.3664 52.4985 46.875 52.5Z" fill="#4F37FD"/>
<path d="M8.4375 30C8.68614 30 8.9246 29.9012 9.10041 29.7254C9.27623 29.5496 9.375 29.3111 9.375 29.0625V24.375H13.125V29.0625C13.125 29.3111 13.2238 29.5496 13.3996 29.7254C13.5754 29.9012 13.8139 30 14.0625 30C14.3111 30 14.5496 29.9012 14.7254 29.7254C14.9012 29.5496 15 29.3111 15 29.0625V20.625C15 19.6304 14.6049 18.6766 13.9017 17.9734C13.1984 17.2701 12.2446 16.875 11.25 16.875C10.2554 16.875 9.30161 17.2701 8.59835 17.9734C7.89509 18.6766 7.5 19.6304 7.5 20.625V29.0625C7.5 29.3111 7.59877 29.5496 7.77459 29.7254C7.9504 29.9012 8.18886 30 8.4375 30ZM11.25 18.75C11.7473 18.75 12.2242 18.9475 12.5758 19.2992C12.9275 19.6508 13.125 20.1277 13.125 20.625V22.5H9.375V20.625C9.375 20.1277 9.57254 19.6508 9.92418 19.2992C10.2758 18.9475 10.7527 18.75 11.25 18.75Z" fill="#4F37FD"/>
<path d="M17.8125 30C18.0611 30 18.2996 29.9012 18.4754 29.7254C18.6512 29.5496 18.75 29.3111 18.75 29.0625V24.375H21.5625C22.3084 24.375 23.0238 24.0787 23.5512 23.5512C24.0787 23.0238 24.375 22.3084 24.375 21.5625V19.6875C24.375 18.9416 24.0787 18.2262 23.5512 17.6988C23.0238 17.1713 22.3084 16.875 21.5625 16.875H17.8125C17.5639 16.875 17.3254 16.9738 17.1496 17.1496C16.9738 17.3254 16.875 17.5639 16.875 17.8125V29.0625C16.875 29.3111 16.9738 29.5496 17.1496 29.7254C17.3254 29.9012 17.5639 30 17.8125 30ZM18.75 18.75H21.5625C21.8111 18.75 22.0496 18.8488 22.2254 19.0246C22.4012 19.2004 22.5 19.4389 22.5 19.6875V21.5625C22.5 21.8111 22.4012 22.0496 22.2254 22.2254C22.0496 22.4012 21.8111 22.5 21.5625 22.5H18.75V18.75Z" fill="#4F37FD"/>
<path d="M27.1875 30C27.4361 30 27.6746 29.9012 27.8504 29.7254C28.0262 29.5496 28.125 29.3111 28.125 29.0625V17.8125C28.125 17.5639 28.0262 17.3254 27.8504 17.1496C27.6746 16.9738 27.4361 16.875 27.1875 16.875C26.9389 16.875 26.7004 16.9738 26.5246 17.1496C26.3488 17.3254 26.25 17.5639 26.25 17.8125V29.0625C26.25 29.3111 26.3488 29.5496 26.5246 29.7254C26.7004 29.9012 26.9389 30 27.1875 30Z" fill="#4F37FD"/>
<path d="M8.4375 35.625H27.1875C27.4361 35.625 27.6746 35.5262 27.8504 35.3504C28.0262 35.1746 28.125 34.9361 28.125 34.6875C28.125 34.4389 28.0262 34.2004 27.8504 34.0246C27.6746 33.8488 27.4361 33.75 27.1875 33.75H8.4375C8.18886 33.75 7.9504 33.8488 7.77459 34.0246C7.59877 34.2004 7.5 34.4389 7.5 34.6875C7.5 34.9361 7.59877 35.1746 7.77459 35.3504C7.9504 35.5262 8.18886 35.625 8.4375 35.625Z" fill="#4F37FD"/>
<path d="M27.1875 39.375H8.4375C8.18886 39.375 7.9504 39.4738 7.77459 39.6496C7.59877 39.8254 7.5 40.0639 7.5 40.3125C7.5 40.5611 7.59877 40.7996 7.77459 40.9754C7.9504 41.1512 8.18886 41.25 8.4375 41.25H27.1875C27.4361 41.25 27.6746 41.1512 27.8504 40.9754C28.0262 40.7996 28.125 40.5611 28.125 40.3125C28.125 40.0639 28.0262 39.8254 27.8504 39.6496C27.6746 39.4738 27.4361 39.375 27.1875 39.375Z" fill="#4F37FD"/>
<path d="M24.375 45H8.4375C8.18886 45 7.9504 45.0988 7.77459 45.2746C7.59877 45.4504 7.5 45.6889 7.5 45.9375C7.5 46.1861 7.59877 46.4246 7.77459 46.6004C7.9504 46.7762 8.18886 46.875 8.4375 46.875H24.375C24.6236 46.875 24.8621 46.7762 25.0379 46.6004C25.2137 46.4246 25.3125 46.1861 25.3125 45.9375C25.3125 45.6889 25.2137 45.4504 25.0379 45.2746C24.8621 45.0988 24.6236 45 24.375 45Z" fill="#4F37FD"/>
</svg>
