<svg width="60" height="60" viewBox="0 0 60 60" fill="none" xmlns="http://www.w3.org/2000/svg">
<path d="M44.0625 14.0625V17.8125V21.5625L50.625 25.3125V17.8125L44.0625 14.0625Z" fill="#F8F9FF"/>
<path d="M50.625 25.3125L57.1875 21.5625V14.0625L50.625 17.8125V25.3125Z" fill="#F8F9FF"/>
<path d="M30 17.8125L36.5625 14.0625V6.5625L30 10.3125V17.8125Z" fill="#F8F9FF"/>
<path d="M30 10.3125L23.4375 6.5625V14.0625L30 17.8125V10.3125Z" fill="#F8F9FF"/>
<path d="M2.8125 14.0625V21.5625L9.375 25.3125V17.8125L2.8125 14.0625Z" fill="#F8F9FF"/>
<path d="M15.9375 17.8125V14.0625L9.375 17.8125V25.3125L15.9375 21.5625V17.8125Z" fill="#F8F9FF"/>
<path d="M30 37.5L36.5625 33.75V26.25L30 30V37.5Z" fill="#F8F9FF"/>
<path d="M23.4375 26.25V33.75L30 37.5V30L23.4375 26.25Z" fill="#F8F9FF"/>
<path d="M50.625 49.6875L57.1875 45.9375V38.4375L50.625 42.1875V49.6875Z" fill="#F8F9FF"/>
<path d="M44.0625 38.4375V45.9375L50.625 49.6875V42.1875L44.0625 38.4375Z" fill="#F8F9FF"/>
<path d="M30 49.6875V57.1875L36.5625 53.4375V50.625V45.9375L30 49.6875Z" fill="#F8F9FF"/>
<path d="M23.4375 45.9375V50.625V53.4375L30 57.1875V49.6875L23.4375 45.9375Z" fill="#F8F9FF"/>
<path d="M9.375 42.1875V48.75V42.1875L2.8125 38.4375V45.9375L9.375 49.6875L15.9375 45.9375V38.4375L9.375 42.1875Z" fill="#F8F9FF"/>
<path d="M57.6562 22.3759C57.799 22.2935 57.9176 22.1749 57.9999 22.032C58.0822 21.8891 58.1253 21.7271 58.125 21.5622V14.0622C58.1253 13.8973 58.0822 13.7353 57.9999 13.5924C57.9176 13.4495 57.799 13.3309 57.6562 13.2484L51.0937 9.49845C50.9521 9.41755 50.7918 9.375 50.6287 9.375C50.4656 9.375 50.3054 9.41755 50.1637 9.49845L43.6012 13.2484C43.4571 13.3299 43.337 13.4482 43.2534 13.5911C43.1697 13.734 43.1254 13.8966 43.125 14.0622V16.2953L37.5 13.4828V6.5622C37.5003 6.39732 37.4572 6.23527 37.3749 6.0924C37.2926 5.94953 37.174 5.83089 37.0312 5.74845L30.4687 1.99845C30.3271 1.91755 30.1668 1.875 30.0037 1.875C29.8406 1.875 29.6804 1.91755 29.5387 1.99845L22.9762 5.74845C22.8321 5.82993 22.712 5.94816 22.6284 6.09109C22.5447 6.23403 22.5004 6.39658 22.5 6.5622V13.4828L16.875 16.2953V14.0622C16.8753 13.8973 16.8321 13.7353 16.7499 13.5924C16.6676 13.4495 16.549 13.3309 16.4062 13.2484L9.84374 9.49845C9.70211 9.41755 9.54184 9.375 9.37874 9.375C9.21564 9.375 9.05536 9.41755 8.91374 9.49845L2.35124 13.2484C2.20705 13.3299 2.08702 13.4482 2.00337 13.5911C1.91971 13.734 1.87542 13.8966 1.87499 14.0622V21.5622C1.87466 21.7271 1.91783 21.8891 2.00012 22.032C2.08242 22.1749 2.20095 22.2935 2.34374 22.3759L8.43749 25.8559V34.1434L2.34374 37.6234C2.20095 37.7059 2.08242 37.8245 2.00012 37.9674C1.91783 38.1103 1.87466 38.2723 1.87499 38.4372V45.9372C1.87466 46.1021 1.91783 46.2641 2.00012 46.407C2.08242 46.5499 2.20095 46.6685 2.34374 46.7509L8.90624 50.5009C9.04786 50.5818 9.20814 50.6244 9.37124 50.6244C9.53434 50.6244 9.69461 50.5818 9.83624 50.5009L15.9122 47.0322L22.5 51.145V53.4372C22.4997 53.6021 22.5428 53.7641 22.6251 53.907C22.7074 54.0499 22.8259 54.1685 22.9687 54.2509L29.5312 58.0009C29.6729 58.0818 29.8331 58.1244 29.9962 58.1244C30.1593 58.1244 30.3196 58.0818 30.4612 58.0009L37.0237 54.2509C37.1679 54.1695 37.288 54.0512 37.3716 53.9083C37.4553 53.7654 37.4996 53.6028 37.5 53.4372V51.145L44.0841 47.0294L50.16 50.4981C50.3016 50.579 50.4619 50.6216 50.625 50.6216C50.7881 50.6216 50.9484 50.579 51.09 50.4981L57.6525 46.7481C57.7956 46.6664 57.9146 46.5484 57.9975 46.4061C58.0805 46.2637 58.1244 46.102 58.125 45.9372V38.4372C58.1253 38.2723 58.0822 38.1103 57.9999 37.9674C57.9176 37.8245 57.799 37.7059 57.6562 37.6234L51.5625 34.1434V25.8559L57.6562 22.3759ZM51.5625 23.6969V18.3531L56.25 15.6747V21.0184L51.5625 23.6969ZM50.625 41.1072L45.9516 38.4372L50.625 35.7672L55.2984 38.4372L50.625 41.1072ZM45 15.6775L49.6875 18.3559V23.6997L45 21.0184V15.6775ZM50.625 11.3922L55.2984 14.0622L50.625 16.7322L45.9516 14.0622L50.625 11.3922ZM30 48.611L25.3265 45.9372L30 43.2672L34.6734 45.9372L30 48.611ZM24.375 27.865L29.0625 30.5435V35.8872L24.375 33.2059V27.865ZM30.9375 30.5435L35.625 27.865V33.2088L30.9375 35.8872V30.5435ZM30 28.9197L25.3265 26.2497L30 23.5797L34.6734 26.2497L30 28.9197ZM24.375 8.17751L29.0625 10.8559V16.1997L24.375 13.5184V8.17751ZM30.9375 10.8559L35.625 8.17751V13.5213L30.9375 16.1997V10.8559ZM30 3.8922L34.6734 6.5622L30 9.2322L25.3265 6.5622L30 3.8922ZM10.3125 18.3559L15 15.6775V21.0213L10.3125 23.6997V18.3559ZM9.37499 11.3922L14.0484 14.0622L9.37499 16.7322L4.70155 14.0622L9.37499 11.3922ZM3.74999 15.6775L8.43749 18.3559V23.6997L3.74999 21.0184V15.6775ZM9.37499 41.1072L4.70155 38.4372L9.37499 35.7672L14.0484 38.4372L9.37499 41.1072ZM3.74999 40.0525L8.43749 42.7309V48.0747L3.74999 45.3934V40.0525ZM10.3125 48.0719V42.7281L15 40.0497V45.3934L10.3125 48.0719ZM16.875 45.4169V38.4372C16.8753 38.2723 16.8321 38.1103 16.7499 37.9674C16.6676 37.8245 16.549 37.7059 16.4062 37.6234L10.3125 34.1434V25.8559L16.4062 22.3759C16.549 22.2935 16.6676 22.1749 16.7499 22.032C16.8321 21.8891 16.8753 21.7271 16.875 21.5622V18.3916L23.4084 15.1253L29.0625 18.3559V21.9559L22.9687 25.4359C22.8259 25.5184 22.7074 25.637 22.6251 25.7799C22.5428 25.9228 22.4997 26.0848 22.5 26.2497V33.7497C22.4997 33.9146 22.5428 34.0766 22.6251 34.2195C22.7074 34.3624 22.8259 34.481 22.9687 34.5634L29.0625 38.0434V41.6434L22.9687 45.1234C22.8259 45.2059 22.7074 45.3245 22.6251 45.4674C22.5428 45.6103 22.4997 45.7723 22.5 45.9372V48.9372L16.875 45.4169ZM24.375 47.5525L29.0625 50.2309V55.5747L24.375 52.8934V47.5525ZM30.9375 55.5719V50.2281L35.625 47.5497V52.8934L30.9375 55.5719ZM37.0312 45.1234L30.9375 41.6434V38.0434L37.0312 34.5634C37.174 34.481 37.2926 34.3624 37.3749 34.2195C37.4572 34.0766 37.5003 33.9146 37.5 33.7497V26.2497C37.5003 26.0848 37.4572 25.9228 37.3749 25.7799C37.2926 25.637 37.174 25.5184 37.0312 25.4359L30.9375 21.9559V18.3559L36.5916 15.1253L43.125 18.3916V21.5622C43.1247 21.7271 43.1678 21.8891 43.2501 22.032C43.3324 22.1749 43.451 22.2935 43.5937 22.3759L49.6875 25.8559V34.1434L43.5937 37.6234C43.451 37.7059 43.3324 37.8245 43.2501 37.9674C43.1678 38.1103 43.1247 38.2723 43.125 38.4372V45.4169L37.5 48.9372V45.9372C37.5003 45.7723 37.4572 45.6103 37.3749 45.4674C37.2926 45.3245 37.174 45.2059 37.0312 45.1234ZM45 40.0525L49.6875 42.7309V48.0747L45 45.3934V40.0525ZM51.5625 48.0719V42.7281L56.25 40.0497V45.3934L51.5625 48.0719Z" fill="#4F37FD"/>
</svg>
