<svg width="60" height="60" viewBox="0 0 60 60" fill="none" xmlns="http://www.w3.org/2000/svg">
<path d="M57.1877 35.6252C57.1884 36.9797 56.9222 38.321 56.4042 39.5725C55.8862 40.824 55.1266 41.9612 54.1689 42.9189C53.2111 43.8767 52.074 44.6363 50.8225 45.1542C49.571 45.6722 48.2296 45.9385 46.8752 45.9377H15.0002C11.9317 45.939 8.9758 44.7821 6.72343 42.6983C4.47106 40.6145 3.08819 37.7573 2.85131 34.698C2.61443 31.6387 3.54099 28.6027 5.44574 26.197C7.3505 23.7913 10.0931 22.1932 13.1252 21.7221C13.7452 21.6213 14.372 21.5681 15.0002 21.5627C16.383 21.5604 17.756 21.795 19.0595 22.2565C19.8105 18.6164 21.8861 15.3847 24.8841 13.1879C27.8821 10.991 31.5889 9.98541 35.2861 10.366C38.9833 10.7466 42.4076 12.4862 44.8952 15.2477C47.3828 18.0093 48.7565 21.596 48.7502 25.3127V25.4815C51.1203 25.9197 53.2621 27.1743 54.8035 29.0274C56.3448 30.8805 57.1884 33.2149 57.1877 35.6252Z" fill="#F8F9FF"/>
<path d="M30 37.5C30.5178 37.5 30.9375 37.0803 30.9375 36.5625C30.9375 36.0447 30.5178 35.625 30 35.625C29.4822 35.625 29.0625 36.0447 29.0625 36.5625C29.0625 37.0803 29.4822 37.5 30 37.5Z" fill="#F8F9FF"/>
<path d="M58.1256 35.6254C58.1276 33.1284 57.2983 30.7018 55.7685 28.7283C54.2387 26.7548 52.0955 25.3467 49.6769 24.726C49.6218 23.3339 49.3835 21.9552 48.9681 20.6254H52.5006C53.2465 20.6254 53.9619 20.3291 54.4894 19.8016C55.0168 19.2742 55.3131 18.5588 55.3131 17.8129V9.24225C56.1969 9.01407 56.967 8.47141 57.4793 7.71599C57.9916 6.96057 58.2107 6.04426 58.0957 5.13881C57.9807 4.23336 57.5394 3.40094 56.8546 2.79757C56.1697 2.19421 55.2883 1.86133 54.3756 1.86133C53.4629 1.86133 52.5815 2.19421 51.8967 2.79757C51.2118 3.40094 50.7705 4.23336 50.6555 5.13881C50.5405 6.04426 50.7597 6.96057 51.2719 7.71599C51.7842 8.47141 52.5544 9.01407 53.4381 9.24225V17.8129C53.4381 18.0615 53.3393 18.3 53.1635 18.4758C52.9877 18.6516 52.7493 18.7504 52.5006 18.7504H48.2725C47.0715 16.1064 45.1718 13.8403 42.7779 12.1963C40.3841 10.5523 37.587 9.59287 34.6881 9.42131V7.50037C34.6881 6.75445 34.3918 6.03908 33.8644 5.51164C33.3369 4.98419 32.6215 4.68787 31.8756 4.68787H27.9925C27.7643 3.80413 27.2217 3.03395 26.4662 2.52169C25.7108 2.00942 24.7945 1.79026 23.8891 1.90526C22.9836 2.02027 22.1512 2.46156 21.5478 3.14641C20.9445 3.83126 20.6116 4.71265 20.6116 5.62537C20.6116 6.5381 20.9445 7.41949 21.5478 8.10434C22.1512 8.78919 22.9836 9.23048 23.8891 9.34549C24.7945 9.46049 25.7108 9.24133 26.4662 8.72906C27.2217 8.2168 27.7643 7.44662 27.9925 6.56287H31.8756C32.1243 6.56287 32.3627 6.66165 32.5385 6.83746C32.7143 7.01328 32.8131 7.25173 32.8131 7.50037V9.41475C29.4954 9.61612 26.3228 10.8463 23.7367 12.9343C21.1505 15.0223 19.2792 17.8643 18.3831 21.0651C17.2795 20.772 16.1424 20.6242 15.0006 20.6254C14.6837 20.6254 14.3744 20.6507 14.0631 20.6732V15.9379C14.0631 15.192 13.7668 14.4766 13.2394 13.9491C12.7119 13.4217 11.9965 13.1254 11.2506 13.1254H7.50062C7.25198 13.1254 7.01352 13.0266 6.83771 12.8508C6.66189 12.675 6.56312 12.4365 6.56312 12.1879V9.24225C7.44686 9.01407 8.21705 8.47141 8.72931 7.71599C9.24157 6.96057 9.46074 6.04426 9.34573 5.13881C9.23072 4.23336 8.78944 3.40094 8.10459 2.79757C7.41974 2.19421 6.53834 1.86133 5.62562 1.86133C4.71289 1.86133 3.8315 2.19421 3.14665 2.79757C2.4618 3.40094 2.02052 4.23336 1.90551 5.13881C1.7905 6.04426 2.00967 6.96057 2.52193 7.71599C3.03419 8.47141 3.80438 9.01407 4.68812 9.24225V12.1879C4.68812 12.9338 4.98444 13.6492 5.51188 14.1766C6.03933 14.7041 6.7547 15.0004 7.50062 15.0004H11.2506C11.4993 15.0004 11.7377 15.0991 11.9135 15.275C12.0893 15.4508 12.1881 15.6892 12.1881 15.9379V20.9366C9.03369 21.6361 6.2481 23.4745 4.36472 26.0998C2.48134 28.7252 1.63254 31.953 1.98084 35.1652C2.32913 38.3775 3.85005 41.3483 6.25237 43.509C8.65469 45.6697 11.7696 46.8683 15.0006 46.8754H15.9381V52.5004C15.9381 52.749 15.8393 52.9875 15.6635 53.1633C15.4877 53.3391 15.2493 53.4379 15.0006 53.4379H9.24249C9.01431 52.5541 8.47165 51.784 7.71624 51.2717C6.96082 50.7594 6.04451 50.5403 5.13906 50.6553C4.23361 50.7703 3.40118 51.2116 2.79782 51.8964C2.19445 52.5813 1.86157 53.4627 1.86157 54.3754C1.86157 55.2881 2.19445 56.1695 2.79782 56.8543C3.40118 57.5392 4.23361 57.9805 5.13906 58.0955C6.04451 58.2105 6.96082 57.9913 7.71624 57.4791C8.47165 56.9668 9.01431 56.1966 9.24249 55.3129H15.0006C15.7465 55.3129 16.4619 55.0166 16.9894 54.4891C17.5168 53.9617 17.8131 53.2463 17.8131 52.5004V46.8754H29.0631V50.7585C28.1794 50.9867 27.4092 51.5293 26.8969 52.2848C26.3847 53.0402 26.1655 53.9565 26.2805 54.8619C26.3955 55.7674 26.8368 56.5998 27.5217 57.2032C28.2065 57.8065 29.0879 58.1394 30.0006 58.1394C30.9133 58.1394 31.7947 57.8065 32.4796 57.2032C33.1644 56.5998 33.6057 55.7674 33.7207 54.8619C33.8357 53.9565 33.6166 53.0402 33.1043 52.2848C32.592 51.5293 31.8219 50.9867 30.9381 50.7585V46.8754H45.0006V52.5004C45.0006 53.2463 45.2969 53.9617 45.8244 54.4891C46.3518 55.0166 47.0672 55.3129 47.8131 55.3129H50.7597C50.993 56.1886 51.5375 56.9492 52.2912 57.4524C53.045 57.9555 53.9562 58.1667 54.8545 58.0464C55.7527 57.926 56.5763 57.4824 57.171 56.7986C57.7657 56.1148 58.0907 55.2376 58.0853 54.3314C58.0798 53.4252 57.7443 52.552 57.1414 51.8753C56.5386 51.1987 55.7097 50.765 54.8101 50.6554C53.9105 50.5459 53.0018 50.768 52.2542 51.2802C51.5065 51.7923 50.9712 52.5594 50.7484 53.4379H47.8131C47.5645 53.4379 47.326 53.3391 47.1502 53.1633C46.9744 52.9875 46.8756 52.749 46.8756 52.5004V46.8754C49.8583 46.8722 52.7179 45.6858 54.827 43.5768C56.9361 41.4677 58.1224 38.6081 58.1256 35.6254ZM52.5006 5.62537C52.5006 5.25453 52.6106 4.89202 52.8166 4.58368C53.0226 4.27534 53.3155 4.03501 53.6581 3.8931C54.0007 3.75119 54.3777 3.71405 54.7414 3.7864C55.1051 3.85875 55.4392 4.03733 55.7014 4.29955C55.9637 4.56177 56.1422 4.89587 56.2146 5.25958C56.2869 5.62329 56.2498 6.0003 56.1079 6.34291C55.966 6.68552 55.7257 6.97835 55.4173 7.18438C55.109 7.39041 54.7465 7.50037 54.3756 7.50037C53.8783 7.50037 53.4014 7.30283 53.0498 6.9512C52.6982 6.59957 52.5006 6.12266 52.5006 5.62537ZM24.3756 7.50037C24.0048 7.50037 23.6423 7.39041 23.3339 7.18438C23.0256 6.97835 22.7853 6.68552 22.6433 6.34291C22.5014 6.0003 22.4643 5.62329 22.5366 5.25958C22.609 4.89587 22.7876 4.56177 23.0498 4.29955C23.312 4.03733 23.6461 3.85875 24.0098 3.7864C24.3735 3.71405 24.7505 3.75119 25.0932 3.8931C25.4358 4.03501 25.7286 4.27534 25.9346 4.58368C26.1407 4.89202 26.2506 5.25453 26.2506 5.62537C26.2506 6.12266 26.0531 6.59957 25.7014 6.9512C25.3498 7.30283 24.8729 7.50037 24.3756 7.50037ZM3.75062 5.62537C3.75062 5.25453 3.86059 4.89202 4.06661 4.58368C4.27264 4.27534 4.56548 4.03501 4.90809 3.8931C5.2507 3.75119 5.6277 3.71405 5.99141 3.7864C6.35513 3.85875 6.68922 4.03733 6.95144 4.29955C7.21367 4.56177 7.39224 4.89587 7.46459 5.25958C7.53694 5.62329 7.49981 6.0003 7.35789 6.34291C7.21598 6.68552 6.97566 6.97835 6.66731 7.18438C6.35897 7.39041 5.99646 7.50037 5.62562 7.50037C5.12834 7.50037 4.65142 7.30283 4.29979 6.9512C3.94816 6.59957 3.75062 6.12266 3.75062 5.62537ZM5.62562 56.2504C5.25478 56.2504 4.89227 56.1404 4.58393 55.9344C4.27558 55.7284 4.03526 55.4355 3.89334 55.0929C3.75143 54.7503 3.7143 54.3733 3.78665 54.0096C3.85899 53.6459 4.03757 53.3118 4.29979 53.0495C4.56202 52.7873 4.89611 52.6087 5.25982 52.5364C5.62354 52.4641 6.00054 52.5012 6.34315 52.6431C6.68576 52.785 6.9786 53.0253 7.18462 53.3337C7.39065 53.642 7.50062 54.0045 7.50062 54.3754C7.50062 54.8727 7.30307 55.3496 6.95144 55.7012C6.59981 56.0528 6.1229 56.2504 5.62562 56.2504ZM31.8756 54.3754C31.8756 54.7462 31.7657 55.1087 31.5596 55.4171C31.3536 55.7254 31.0608 55.9657 30.7182 56.1077C30.3755 56.2496 29.9985 56.2867 29.6348 56.2143C29.2711 56.142 28.937 55.9634 28.6748 55.7012C28.4126 55.439 28.234 55.1049 28.1616 54.7412C28.0893 54.3775 28.1264 54.0005 28.2683 53.6578C28.4103 53.3152 28.6506 53.0224 28.9589 52.8164C29.2673 52.6103 29.6298 52.5004 30.0006 52.5004C30.4979 52.5004 30.9748 52.6979 31.3264 53.0495C31.6781 53.4012 31.8756 53.8781 31.8756 54.3754ZM54.1234 52.5173C54.207 52.5061 54.2913 52.5005 54.3756 52.5004C54.8619 52.5009 55.329 52.6904 55.6782 53.0288C56.0275 53.3672 56.2316 53.828 56.2475 54.314C56.2634 54.8001 56.0899 55.2733 55.7635 55.6338C55.4371 55.9943 54.9834 56.2139 54.4982 56.2462C54.013 56.2786 53.5342 56.1211 53.1629 55.8071C52.7915 55.4932 52.5567 55.0472 52.5079 54.5633C52.4592 54.0795 52.6003 53.5956 52.9016 53.2139C53.2028 52.8321 53.6406 52.5824 54.1225 52.5173H54.1234ZM30.9381 45.0004V41.2504C30.9381 41.0017 30.8393 40.7633 30.6635 40.5875C30.4877 40.4116 30.2493 40.3129 30.0006 40.3129C29.752 40.3129 29.5135 40.4116 29.3377 40.5875C29.1619 40.7633 29.0631 41.0017 29.0631 41.2504V45.0004H17.8131V39.3754C17.8131 39.1267 17.7143 38.8883 17.5385 38.7125C17.3627 38.5366 17.1243 38.4379 16.8756 38.4379C16.627 38.4379 16.3885 38.5366 16.2127 38.7125C16.0369 38.8883 15.9381 39.1267 15.9381 39.3754V45.0004H15.0006C12.2661 44.998 9.62626 43.9991 7.57517 42.1907C5.52408 40.3822 4.20241 37.8883 3.85758 35.1756C3.51276 32.4629 4.16841 29.7176 5.7018 27.4535C7.23519 25.1894 9.5412 23.5618 12.1881 22.8754V27.1879C12.1881 27.4365 12.2869 27.675 12.4627 27.8508C12.6385 28.0266 12.877 28.1254 13.1256 28.1254C13.3743 28.1254 13.6127 28.0266 13.7885 27.8508C13.9643 27.675 14.0631 27.4365 14.0631 27.1879V22.5482C14.3734 22.5219 14.6837 22.5004 15.0006 22.5004C16.278 22.4968 17.5466 22.7131 18.7506 23.1397C18.8769 23.1847 19.0114 23.2021 19.145 23.1907C19.2786 23.1793 19.4082 23.1394 19.525 23.0736C19.6419 23.0079 19.7433 22.9178 19.8223 22.8096C19.9014 22.7013 19.9563 22.5773 19.9834 22.446C20.617 19.444 22.2126 16.7306 24.528 14.7176C26.8434 12.7045 29.7522 11.5017 32.8131 11.2916V16.8754C32.8131 17.124 32.9119 17.3625 33.0877 17.5383C33.2635 17.7141 33.502 17.8129 33.7506 17.8129C33.9993 17.8129 34.2377 17.7141 34.4135 17.5383C34.5893 17.3625 34.6881 17.124 34.6881 16.8754V11.2982C37.0797 11.4582 39.3906 12.2268 41.4016 13.5311C43.4126 14.8353 45.0568 16.632 46.1781 18.7504H43.1256C42.877 18.7504 42.6385 18.8491 42.4627 19.025C42.2869 19.2008 42.1881 19.4392 42.1881 19.6879C42.1881 19.9365 42.2869 20.175 42.4627 20.3508C42.6385 20.5266 42.877 20.6254 43.1256 20.6254H46.9928C47.5321 22.1295 47.8096 23.715 47.8131 25.3129V25.4816C47.813 25.7009 47.8898 25.9133 48.0301 26.0819C48.1703 26.2504 48.3653 26.3644 48.5809 26.4041C50.8832 26.8263 52.9443 28.0944 54.359 29.9592C55.7737 31.824 56.4397 34.1506 56.2259 36.4815C56.0122 38.8124 54.9342 40.9791 53.2039 42.5555C51.4737 44.1319 49.2163 45.004 46.8756 45.0004V36.5629C46.8756 36.3142 46.7768 36.0758 46.601 35.9C46.4252 35.7241 46.1868 35.6254 45.9381 35.6254C45.6895 35.6254 45.451 35.7241 45.2752 35.9C45.0994 36.0758 45.0006 36.3142 45.0006 36.5629V45.0004H30.9381Z" fill="#4F37FD"/>
<path d="M30.0012 23.437C28.5238 23.4346 27.0605 23.7241 25.6953 24.289C24.3302 24.8538 23.0902 25.6829 22.0465 26.7286C21.9592 26.8154 21.8899 26.9186 21.8425 27.0323C21.7951 27.1459 21.7705 27.2678 21.7702 27.391C21.7696 27.6397 21.8678 27.8784 22.0432 28.0547C22.2186 28.231 22.4569 28.3304 22.7056 28.331C22.9543 28.3316 23.193 28.2334 23.3693 28.058C25.1287 26.2997 27.5143 25.312 30.0016 25.312C32.489 25.312 34.8746 26.2997 36.634 28.058C36.7207 28.1472 36.8244 28.2183 36.9389 28.2671C37.0534 28.3159 37.1765 28.3414 37.3009 28.3421C37.4254 28.3428 37.5488 28.3187 37.6638 28.2713C37.7789 28.2238 37.8833 28.1539 37.9711 28.0656C38.0589 27.9774 38.1282 27.8725 38.175 27.7572C38.2218 27.6419 38.2452 27.5184 38.2437 27.3939C38.2423 27.2695 38.2161 27.1465 38.1667 27.0323C38.1173 26.9181 38.0456 26.8148 37.9558 26.7286C36.9122 25.6828 35.6722 24.8537 34.3071 24.2888C32.9419 23.7239 31.4786 23.4345 30.0012 23.437Z" fill="#4F37FD"/>
<path d="M30.0003 27.1885C29.015 27.1857 28.0389 27.3784 27.1285 27.7554C26.2182 28.1325 25.3917 28.6864 24.6969 29.3851C24.5261 29.5619 24.4316 29.7987 24.4338 30.0445C24.4359 30.2903 24.5345 30.5255 24.7083 30.6993C24.8821 30.8731 25.1173 30.9717 25.3631 30.9738C25.6089 30.976 25.8457 30.8815 26.0225 30.7107C26.5449 30.1883 27.165 29.7739 27.8475 29.4911C28.53 29.2084 29.2616 29.0628 30.0003 29.0628C30.7391 29.0628 31.4706 29.2084 32.1531 29.4911C32.8357 29.7739 33.4558 30.1883 33.9781 30.7107C34.0646 30.8002 34.1681 30.8717 34.2825 30.9208C34.3968 30.9699 34.5198 30.9958 34.6443 30.9969C34.7688 30.998 34.8923 30.9742 35.0075 30.9271C35.1227 30.88 35.2274 30.8104 35.3154 30.7223C35.4034 30.6343 35.473 30.5296 35.5202 30.4144C35.5673 30.2992 35.591 30.1757 35.5899 30.0513C35.5889 29.9268 35.563 29.8038 35.5139 29.6894C35.4647 29.575 35.3933 29.4716 35.3038 29.3851C34.6089 28.6865 33.7824 28.1326 32.8721 27.7556C31.9617 27.3785 30.9856 27.1858 30.0003 27.1885Z" fill="#4F37FD"/>
<path d="M30.0011 30.937C29.5086 30.936 29.0207 31.0326 28.5658 31.2214C28.1109 31.4102 27.6979 31.6873 27.3508 32.0367C27.18 32.2135 27.0855 32.4503 27.0877 32.6962C27.0898 32.942 27.1884 33.1771 27.3622 33.3509C27.5361 33.5247 27.7712 33.6233 28.017 33.6255C28.2628 33.6276 28.4996 33.5331 28.6764 33.3623C29.0328 33.0207 29.5074 32.83 30.0011 32.83C30.4948 32.83 30.9694 33.0207 31.3258 33.3623C31.5026 33.5331 31.7394 33.6276 31.9852 33.6255C32.2311 33.6233 32.4662 33.5247 32.64 33.3509C32.8138 33.1771 32.9124 32.942 32.9146 32.6962C32.9167 32.4503 32.8222 32.2135 32.6514 32.0367C32.3043 31.6874 31.8913 31.4103 31.4364 31.2216C30.9815 31.0328 30.4936 30.9361 30.0011 30.937Z" fill="#4F37FD"/>
<path d="M30 38.4375C31.0355 38.4375 31.875 37.598 31.875 36.5625C31.875 35.527 31.0355 34.6875 30 34.6875C28.9645 34.6875 28.125 35.527 28.125 36.5625C28.125 37.598 28.9645 38.4375 30 38.4375Z" fill="#4F37FD"/>
</svg>
