<svg width="134" height="134" viewBox="0 0 134 134" fill="none" xmlns="http://www.w3.org/2000/svg">
<circle cx="67" cy="67" r="67" fill="#E9ECFC"/>
<path d="M102.4 57.2415C102.583 57.136 102.734 56.9841 102.84 56.8012C102.945 56.6184 103 56.4109 103 56.1999V46.5998C103 46.3887 102.945 46.1813 102.84 45.9984C102.734 45.8156 102.583 45.6637 102.4 45.5582L94 40.7581C93.8187 40.6546 93.6136 40.6001 93.4048 40.6001C93.196 40.6001 92.9909 40.6546 92.8096 40.7581L84.4096 45.5582C84.225 45.6625 84.0714 45.8138 83.9643 45.9968C83.8573 46.1797 83.8006 46.3878 83.8 46.5998V49.4582L76.6 45.8582V36.9997C76.6004 36.7886 76.5452 36.5812 76.4398 36.3983C76.3345 36.2155 76.1828 36.0636 76 35.9581L67.6 31.158C67.4187 31.0545 67.2136 31 67.0048 31C66.796 31 66.5909 31.0545 66.4096 31.158L58.0096 35.9581C57.825 36.0624 57.6714 36.2137 57.5643 36.3967C57.4573 36.5796 57.4006 36.7877 57.4 36.9997V45.8582L50.2 49.4582V46.5998C50.2004 46.3887 50.1452 46.1813 50.0398 45.9984C49.9345 45.8156 49.7828 45.6637 49.6 45.5582L41.2 40.7581C41.0187 40.6546 40.8136 40.6001 40.6048 40.6001C40.396 40.6001 40.1909 40.6546 40.0096 40.7581L31.6096 45.5582C31.425 45.6625 31.2714 45.8138 31.1643 45.9968C31.0573 46.1797 31.0006 46.3878 31 46.5998V56.1999C30.9996 56.4109 31.0548 56.6184 31.1602 56.8012C31.2655 56.9841 31.4172 57.136 31.6 57.2415L39.4 61.6959V72.3041L31.6 76.7585C31.4172 76.864 31.2655 77.0159 31.1602 77.1988C31.0548 77.3816 30.9996 77.5891 31 77.8001V87.4002C30.9996 87.6113 31.0548 87.8187 31.1602 88.0016C31.2655 88.1844 31.4172 88.3363 31.6 88.4418L40 93.2419C40.1813 93.3454 40.3864 93.3999 40.5952 93.3999C40.804 93.3999 41.0091 93.3454 41.1904 93.2419L48.9676 88.8018L57.4 94.0663V97.0003C57.3996 97.2114 57.4548 97.4188 57.5602 97.6017C57.6655 97.7846 57.8172 97.9364 58 98.0419L66.4 102.842C66.5813 102.946 66.7864 103 66.9952 103C67.204 103 67.4091 102.946 67.5904 102.842L75.9904 98.0419C76.175 97.9376 76.3286 97.7863 76.4357 97.6033C76.5428 97.4204 76.5995 97.2123 76.6 97.0003V94.0663L85.0276 88.7982L92.8048 93.2383C92.9861 93.3418 93.1912 93.3963 93.4 93.3963C93.6088 93.3963 93.8139 93.3418 93.9952 93.2383L102.395 88.4382C102.578 88.3336 102.731 88.1826 102.837 88.0004C102.943 87.8181 102.999 87.6111 103 87.4002V77.8001C103 77.5891 102.945 77.3816 102.84 77.1988C102.734 77.0159 102.583 76.864 102.4 76.7585L94.6 72.3041V61.6959L102.4 57.2415ZM94.6 58.9323V52.0922L100.6 48.6638V55.5039L94.6 58.9323ZM93.4 81.2178L87.418 77.8001L93.4 74.3825L99.382 77.8001L93.4 81.2178ZM86.2 48.6674L92.2 52.0958V58.9359L86.2 55.5039V48.6674ZM93.4 43.1821L99.382 46.5998L93.4 50.0174L87.418 46.5998L93.4 43.1821ZM67 90.8227L61.018 87.4002L67 83.9826L72.982 87.4002L67 90.8227ZM59.8 64.2676L65.8 67.696V74.5361L59.8 71.104V64.2676ZM68.2 67.696L74.2 64.2676V71.1076L68.2 74.5361V67.696ZM67 65.6176L61.018 62.1999L67 58.7823L72.982 62.1999L67 65.6176ZM59.8 39.0673L65.8 42.4957V49.3358L59.8 45.9038V39.0673ZM68.2 42.4957L74.2 39.0673V45.9074L68.2 49.3358V42.4957ZM67 33.582L72.982 36.9997L67 40.4173L61.018 36.9997L67 33.582ZM41.8 52.0958L47.8 48.6674V55.5075L41.8 58.9359V52.0958ZM40.6 43.1821L46.582 46.5998L40.6 50.0174L34.618 46.5998L40.6 43.1821ZM33.4 48.6674L39.4 52.0958V58.9359L33.4 55.5039V48.6674ZM40.6 81.2178L34.618 77.8001L40.6 74.3825L46.582 77.8001L40.6 81.2178ZM33.4 79.8677L39.4 83.2962V90.1362L33.4 86.7042V79.8677ZM41.8 90.1326V83.2926L47.8 79.8641V86.7042L41.8 90.1326ZM50.2 86.7342V77.8001C50.2004 77.5891 50.1452 77.3816 50.0398 77.1988C49.9345 77.0159 49.7828 76.864 49.6 76.7585L41.8 72.3041V61.6959L49.6 57.2415C49.7828 57.136 49.9345 56.9841 50.0398 56.8012C50.1452 56.6184 50.2004 56.4109 50.2 56.1999V52.1414L58.5628 47.9606L65.8 52.0958V56.7039L58 61.1583C57.8172 61.2639 57.6655 61.4157 57.5602 61.5986C57.4548 61.7815 57.3996 61.9889 57.4 62.1999V71.8C57.3996 72.0111 57.4548 72.2185 57.5602 72.4014C57.6655 72.5843 57.8172 72.7361 58 72.8417L65.8 77.2961V81.9042L58 86.3586C57.8172 86.4641 57.6655 86.616 57.5602 86.7989C57.4548 86.9817 57.3996 87.1892 57.4 87.4002V91.2403L50.2 86.7342ZM59.8 89.4678L65.8 92.8963V99.7364L59.8 96.3043V89.4678ZM68.2 99.7327V92.8927L74.2 89.4642V96.3043L68.2 99.7327ZM76 86.3586L68.2 81.9042V77.2961L76 72.8417C76.1828 72.7361 76.3345 72.5843 76.4398 72.4014C76.5452 72.2185 76.6004 72.0111 76.6 71.8V62.1999C76.6004 61.9889 76.5452 61.7815 76.4398 61.5986C76.3345 61.4157 76.1828 61.2639 76 61.1583L68.2 56.7039V52.0958L75.4372 47.9606L83.8 52.1414V56.1999C83.7996 56.4109 83.8548 56.6184 83.9602 56.8012C84.0655 56.9841 84.2172 57.136 84.4 57.2415L92.2 61.6959V72.3041L84.4 76.7585C84.2172 76.864 84.0655 77.0159 83.9602 77.1988C83.8548 77.3816 83.7996 77.5891 83.8 77.8001V86.7342L76.6 91.2403V87.4002C76.6004 87.1892 76.5452 86.9817 76.4398 86.7989C76.3345 86.616 76.1828 86.4641 76 86.3586ZM86.2 79.8677L92.2 83.2962V90.1362L86.2 86.7042V79.8677ZM94.6 90.1326V83.2926L100.6 79.8641V86.7042L94.6 90.1326Z" fill="#4F37FD"/>
</svg>
