<svg width="82" height="84" viewBox="0 0 82 84" fill="none" xmlns="http://www.w3.org/2000/svg">
<path d="M3 6C4.65685 6 6 4.65685 6 3C6 1.34315 4.65685 0 3 0C1.34315 0 0 1.34315 0 3C0 4.65685 1.34315 6 3 6Z" fill="#E9ECFC"/>
<path d="M41 6C42.6569 6 44 4.65685 44 3C44 1.34315 42.6569 0 41 0C39.3431 0 38 1.34315 38 3C38 4.65685 39.3431 6 41 6Z" fill="#E9ECFC"/>
<path d="M3 26C4.65685 26 6 24.6569 6 23C6 21.3431 4.65685 20 3 20C1.34315 20 0 21.3431 0 23C0 24.6569 1.34315 26 3 26Z" fill="#E9ECFC"/>
<path d="M41 26C42.6569 26 44 24.6569 44 23C44 21.3431 42.6569 20 41 20C39.3431 20 38 21.3431 38 23C38 24.6569 39.3431 26 41 26Z" fill="#E9ECFC"/>
<path d="M3 46C4.65685 46 6 44.6569 6 43C6 41.3431 4.65685 40 3 40C1.34315 40 0 41.3431 0 43C0 44.6569 1.34315 46 3 46Z" fill="#E9ECFC"/>
<path d="M41 46C42.6569 46 44 44.6569 44 43C44 41.3431 42.6569 40 41 40C39.3431 40 38 41.3431 38 43C38 44.6569 39.3431 46 41 46Z" fill="#E9ECFC"/>
<path d="M3 65C4.65685 65 6 63.6569 6 62C6 60.3431 4.65685 59 3 59C1.34315 59 0 60.3431 0 62C0 63.6569 1.34315 65 3 65Z" fill="#E9ECFC"/>
<path d="M41 65C42.6569 65 44 63.6569 44 62C44 60.3431 42.6569 59 41 59C39.3431 59 38 60.3431 38 62C38 63.6569 39.3431 65 41 65Z" fill="#E9ECFC"/>
<path d="M22 6C23.6569 6 25 4.65685 25 3C25 1.34315 23.6569 0 22 0C20.3431 0 19 1.34315 19 3C19 4.65685 20.3431 6 22 6Z" fill="#E9ECFC"/>
<path d="M60 6C61.6569 6 63 4.65685 63 3C63 1.34315 61.6569 0 60 0C58.3431 0 57 1.34315 57 3C57 4.65685 58.3431 6 60 6Z" fill="#E9ECFC"/>
<path d="M79 6C80.6569 6 82 4.65685 82 3C82 1.34315 80.6569 0 79 0C77.3431 0 76 1.34315 76 3C76 4.65685 77.3431 6 79 6Z" fill="#E9ECFC"/>
<path d="M22 26C23.6569 26 25 24.6569 25 23C25 21.3431 23.6569 20 22 20C20.3431 20 19 21.3431 19 23C19 24.6569 20.3431 26 22 26Z" fill="#E9ECFC"/>
<path d="M60 26C61.6569 26 63 24.6569 63 23C63 21.3431 61.6569 20 60 20C58.3431 20 57 21.3431 57 23C57 24.6569 58.3431 26 60 26Z" fill="#E9ECFC"/>
<path d="M79 26C80.6569 26 82 24.6569 82 23C82 21.3431 80.6569 20 79 20C77.3431 20 76 21.3431 76 23C76 24.6569 77.3431 26 79 26Z" fill="#E9ECFC"/>
<path d="M22 46C23.6569 46 25 44.6569 25 43C25 41.3431 23.6569 40 22 40C20.3431 40 19 41.3431 19 43C19 44.6569 20.3431 46 22 46Z" fill="#E9ECFC"/>
<path d="M60 46C61.6569 46 63 44.6569 63 43C63 41.3431 61.6569 40 60 40C58.3431 40 57 41.3431 57 43C57 44.6569 58.3431 46 60 46Z" fill="#E9ECFC"/>
<path d="M79 46C80.6569 46 82 44.6569 82 43C82 41.3431 80.6569 40 79 40C77.3431 40 76 41.3431 76 43C76 44.6569 77.3431 46 79 46Z" fill="#E9ECFC"/>
<path d="M22 65C23.6569 65 25 63.6569 25 62C25 60.3431 23.6569 59 22 59C20.3431 59 19 60.3431 19 62C19 63.6569 20.3431 65 22 65Z" fill="#E9ECFC"/>
<path d="M60 65C61.6569 65 63 63.6569 63 62C63 60.3431 61.6569 59 60 59C58.3431 59 57 60.3431 57 62C57 63.6569 58.3431 65 60 65Z" fill="#E9ECFC"/>
<path d="M79 65C80.6569 65 82 63.6569 82 62C82 60.3431 80.6569 59 79 59C77.3431 59 76 60.3431 76 62C76 63.6569 77.3431 65 79 65Z" fill="#E9ECFC"/>
<path d="M3 84C4.65685 84 6 82.6569 6 81C6 79.3431 4.65685 78 3 78C1.34315 78 0 79.3431 0 81C0 82.6569 1.34315 84 3 84Z" fill="#E9ECFC"/>
<path d="M41 84C42.6569 84 44 82.6569 44 81C44 79.3431 42.6569 78 41 78C39.3431 78 38 79.3431 38 81C38 82.6569 39.3431 84 41 84Z" fill="#E9ECFC"/>
<path d="M22 84C23.6569 84 25 82.6569 25 81C25 79.3431 23.6569 78 22 78C20.3431 78 19 79.3431 19 81C19 82.6569 20.3431 84 22 84Z" fill="#E9ECFC"/>
<path d="M60 84C61.6569 84 63 82.6569 63 81C63 79.3431 61.6569 78 60 78C58.3431 78 57 79.3431 57 81C57 82.6569 58.3431 84 60 84Z" fill="#E9ECFC"/>
<path d="M79 84C80.6569 84 82 82.6569 82 81C82 79.3431 80.6569 78 79 78C77.3431 78 76 79.3431 76 81C76 82.6569 77.3431 84 79 84Z" fill="#E9ECFC"/>
</svg>
