<svg width="32" height="32" viewBox="0 0 32 32" fill="none" xmlns="http://www.w3.org/2000/svg">
<path d="M14.3908 21.7816C10.2974 21.7816 7 18.4841 7 14.3908C7 10.2974 10.2974 7 14.3908 7C18.4841 7 21.7816 10.2974 21.7816 14.3908C21.7816 18.4841 18.4841 21.7816 14.3908 21.7816ZM14.3908 8.13704C10.9228 8.13704 8.13704 10.9228 8.13704 14.3908C8.13704 17.8588 10.9228 20.6445 14.3908 20.6445C17.8588 20.6445 20.6445 17.8588 20.6445 14.3908C20.6445 10.9228 17.8588 8.13704 14.3908 8.13704Z" fill="#4F37FD"/>
<path d="M19.8952 19.0908L25.0005 24.1961L24.1966 25L19.0913 19.8947L19.8952 19.0908Z" fill="#4F37FD"/>
</svg>
