<?xml version="1.0" encoding="utf-8"?>
<!-- Generator: Adobe Illustrator 22.0.1, SVG Export Plug-In . SVG Version: 6.00 Build 0)  -->
<svg version="1.1" id="Layer_1" xmlns="http://www.w3.org/2000/svg" xmlns:xlink="http://www.w3.org/1999/xlink" x="0px" y="0px"
	 viewBox="0 0 25 25" style="enable-background:new 0 0 25 25;" xml:space="preserve">
<style type="text/css">
	.st0{fill:#FFFFFF;}
</style>
<path class="st0" d="M12.5,0C5.6,0,0,5.6,0,12.5C0,18,3.5,22.6,8.4,24.3C9,24.5,8.9,24,8.9,23.7v-2.2C5.1,22,5,19.5,4.7,19.1
	c-0.5-0.9-1.7-1.1-1.4-1.5c0.9-0.4,1.7,0.1,2.8,1.6c0.7,1.1,2.2,0.9,2.9,0.7c0.2-0.7,0.5-1.2,1-1.7c-3.9-0.7-5.6-3.1-5.6-6
	c0-1.4,0.5-2.7,1.3-3.7C5.2,6.8,5.8,5.4,5.9,5.2C7.5,5,9.2,6.3,9.4,6.4c0.9-0.2,2-0.4,3.2-0.4c1.2,0,2.2,0.1,3.2,0.4
	c0.3-0.2,1.9-1.4,3.4-1.2c0.1,0.2,0.7,1.6,0.2,3.3c0.9,1,1.4,2.3,1.4,3.7c0,2.9-1.6,5.3-5.6,6c0.3,0.3,0.6,0.7,0.8,1.2
	c0.2,0.4,0.3,0.9,0.3,1.4v3.1c0,0.3,0,0.5,0.4,0.5C21.4,22.7,25,18,25,12.5C25,5.6,19.4,0,12.5,0z"/>
</svg>
