<svg width="89" height="35" viewBox="0 0 89 35" fill="none" xmlns="http://www.w3.org/2000/svg">
<g clip-path="url(#clip0)">
<path d="M41.7307 5.14148V13.9862H47.1766C47.7745 14.0026 48.3692 13.8946 48.9231 13.6692C49.4771 13.4438 49.9782 13.1058 50.3947 12.6767C51.0057 12.0487 51.4173 11.2541 51.5776 10.3927C51.738 9.5314 51.64 8.64186 51.296 7.83609C50.952 7.03031 50.3774 6.34429 49.6443 5.86437C48.9113 5.38445 48.0527 5.13208 47.1766 5.13901H41.7307V5.14148ZM41.7307 17.1003V27.3609H38.4731V2.0373H47.1147C48.1458 2.01606 49.1709 2.19889 50.131 2.57529C51.0911 2.95169 51.9673 3.51423 52.7092 4.23053C53.4472 4.91459 54.036 5.7437 54.4386 6.66591C54.8412 7.58812 55.0491 8.58355 55.0491 9.58982C55.0491 10.5961 54.8412 11.5915 54.4386 12.5137C54.036 13.4359 53.4472 14.265 52.7092 14.9491C51.1992 16.3898 49.3344 17.1093 47.1147 17.1077H41.7307V17.1003Z" fill="#1C1E4F"/>
<path d="M58.3482 22.0509C58.3459 22.4659 58.4428 22.8755 58.631 23.2454C58.8192 23.6153 59.0931 23.9348 59.43 24.1773C60.1508 24.7421 61.0443 25.0411 61.9599 25.0239C63.3348 25.022 64.653 24.4755 65.626 23.504C66.1326 23.0569 66.5383 22.5072 66.8161 21.8914C67.094 21.2755 67.2376 20.6076 67.2375 19.9319C66.2225 19.1283 64.8058 18.7272 62.9872 18.7289C61.6669 18.7289 60.5637 19.0474 59.6775 19.6844C58.7913 20.3214 58.3482 21.1102 58.3482 22.0509ZM62.5564 9.46338C64.9659 9.46338 66.8637 10.1062 68.2499 11.3917C69.6362 12.6773 70.3317 14.4398 70.3367 16.6792V27.3607H67.2325V24.9546H67.0889C65.744 26.9349 63.9501 27.9251 61.7074 27.9251C59.7964 27.9251 58.1923 27.3607 56.9075 26.2269C56.2897 25.7073 55.7958 25.0563 55.4617 24.3214C55.1277 23.5865 54.962 22.7862 54.9767 21.9791C54.9767 20.1902 55.655 18.7644 57.0115 17.7016C58.368 16.6388 60.1833 16.1082 62.4574 16.1099C64.3932 16.1099 65.9874 16.463 67.2399 17.1694V16.4267C67.2433 15.8763 67.1242 15.332 66.8913 14.8332C66.6584 14.3344 66.3175 13.8937 65.8933 13.5429C65.0293 12.7659 63.904 12.3434 62.7421 12.3596C60.9268 12.3596 59.4869 13.1262 58.4225 14.6593L55.551 12.8547C57.1287 10.5938 59.4638 9.46338 62.5564 9.46338Z" fill="#1C1E4F"/>
<path d="M88.234 10.0229L77.3594 35H73.9953L78.0328 26.2617L70.8788 10.0229H74.4211L79.5923 22.4768H79.6616L84.6917 10.0229H88.234Z" fill="#1C1E4F"/>
<path d="M28.564 14.887C28.5665 13.8916 28.4837 12.8978 28.3164 11.9165H14.5704V17.5332H22.4546C22.294 18.4292 21.9531 19.2832 21.4527 20.0436C20.9524 20.804 20.3028 21.4548 19.5435 21.9568V25.5982H24.2468C26.997 23.0633 28.5813 19.318 28.5813 14.887" fill="#1C1E4F"/>
<path d="M14.5704 29.1134C18.5038 29.1134 21.8135 27.8237 24.2245 25.5983L19.5212 21.957C18.2142 22.8382 16.5309 23.3506 14.5704 23.3506C10.7706 23.3506 7.54512 20.791 6.40148 17.3428H1.55212V21.098C2.76633 23.5094 4.62644 25.5362 6.92508 26.9523C9.22371 28.3685 11.8705 29.1184 14.5704 29.1184" fill="#1C1E4F"/>
<path d="M6.39155 17.3429C5.78092 15.5357 5.78092 13.578 6.39155 11.7708V8.02051H1.5521C0.531652 10.0483 0.000152588 12.2868 0.000152588 14.5569C0.000152588 16.8269 0.531652 19.0654 1.5521 21.0932L6.39155 17.3429Z" fill="#1C1E4F"/>
<path d="M14.5704 5.76278C16.6486 5.72871 18.657 6.51286 20.1624 7.9461L24.3211 3.78987C21.6822 1.31459 18.1883 -0.0442981 14.5704 -0.00248069C11.8705 -0.00249992 9.22371 0.747375 6.92508 2.16353C4.62644 3.57969 2.76633 5.60647 1.55212 8.01789L6.39157 11.7682C7.54512 8.31741 10.7706 5.7603 14.5605 5.7603" fill="#1C1E4F"/>
</g>
<defs>
<clipPath id="clip0">
<rect width="88.234" height="35" fill="white"/>
</clipPath>
</defs>
</svg>
