<?xml version="1.0" encoding="utf-8"?>
<!-- Generator: Adobe Illustrator 22.0.1, SVG Export Plug-In . SVG Version: 6.00 Build 0)  -->
<svg version="1.1" id="Layer_1" xmlns="http://www.w3.org/2000/svg" xmlns:xlink="http://www.w3.org/1999/xlink" x="0px" y="0px"
	 viewBox="0 0 24 24" style="enable-background:new 0 0 24 24;" xml:space="preserve">
<style type="text/css">
	.st0{fill:#1C1E4F;}
</style>
<path class="st0" d="M4,6h16c0.6,0,1,0.4,1,1l0,0c0,0.6-0.4,1-1,1H4C3.4,8,3,7.6,3,7l0,0C3,6.4,3.4,6,4,6z M4,11h16c0.6,0,1,0.4,1,1
	l0,0c0,0.6-0.4,1-1,1H4c-0.6,0-1-0.4-1-1l0,0C3,11.4,3.4,11,4,11z M4,16h16c0.6,0,1,0.4,1,1l0,0c0,0.6-0.4,1-1,1H4c-0.6,0-1-0.4-1-1
	l0,0C3,16.4,3.4,16,4,16z"/>
</svg>
