<svg width="547" height="350" viewBox="0 0 547 350" fill="none" xmlns="http://www.w3.org/2000/svg">
<g clip-path="url(#clip0)">
<path d="M334.458 199.211C336.273 199.211 337.744 197.74 337.744 195.926C337.744 194.111 336.273 192.64 334.458 192.64C332.643 192.64 331.172 194.111 331.172 195.926C331.172 197.74 332.643 199.211 334.458 199.211Z" fill="#E9ECFC"/>
<path d="M355.268 199.211C357.083 199.211 358.554 197.74 358.554 195.926C358.554 194.111 357.083 192.64 355.268 192.64C353.454 192.64 351.983 194.111 351.983 195.926C351.983 197.74 353.454 199.211 355.268 199.211Z" fill="#E9ECFC"/>
<path d="M376.079 199.211C377.894 199.211 379.365 197.74 379.365 195.926C379.365 194.111 377.894 192.64 376.079 192.64C374.264 192.64 372.793 194.111 372.793 195.926C372.793 197.74 374.264 199.211 376.079 199.211Z" fill="#E9ECFC"/>
<path d="M396.889 199.211C398.704 199.211 400.175 197.74 400.175 195.926C400.175 194.111 398.704 192.64 396.889 192.64C395.075 192.64 393.604 194.111 393.604 195.926C393.604 197.74 395.075 199.211 396.889 199.211Z" fill="#E9ECFC"/>
<path d="M334.458 221.118C336.273 221.118 337.744 219.646 337.744 217.832C337.744 216.017 336.273 214.546 334.458 214.546C332.643 214.546 331.172 216.017 331.172 217.832C331.172 219.646 332.643 221.118 334.458 221.118Z" fill="#E9ECFC"/>
<path d="M355.268 221.118C357.083 221.118 358.554 219.646 358.554 217.832C358.554 216.017 357.083 214.546 355.268 214.546C353.454 214.546 351.983 216.017 351.983 217.832C351.983 219.646 353.454 221.118 355.268 221.118Z" fill="#E9ECFC"/>
<path d="M376.079 221.118C377.894 221.118 379.365 219.646 379.365 217.832C379.365 216.017 377.894 214.546 376.079 214.546C374.264 214.546 372.793 216.017 372.793 217.832C372.793 219.646 374.264 221.118 376.079 221.118Z" fill="#E9ECFC"/>
<path d="M396.889 221.118C398.704 221.118 400.175 219.646 400.175 217.832C400.175 216.017 398.704 214.546 396.889 214.546C395.075 214.546 393.604 216.017 393.604 217.832C393.604 219.646 395.075 221.118 396.889 221.118Z" fill="#E9ECFC"/>
<path d="M334.458 243.023C336.273 243.023 337.744 241.552 337.744 239.737C337.744 237.922 336.273 236.451 334.458 236.451C332.643 236.451 331.172 237.922 331.172 239.737C331.172 241.552 332.643 243.023 334.458 243.023Z" fill="#E9ECFC"/>
<path d="M355.268 243.023C357.083 243.023 358.554 241.552 358.554 239.737C358.554 237.922 357.083 236.451 355.268 236.451C353.454 236.451 351.983 237.922 351.983 239.737C351.983 241.552 353.454 243.023 355.268 243.023Z" fill="#E9ECFC"/>
<path d="M376.079 243.023C377.894 243.023 379.365 241.552 379.365 239.737C379.365 237.922 377.894 236.451 376.079 236.451C374.264 236.451 372.793 237.922 372.793 239.737C372.793 241.552 374.264 243.023 376.079 243.023Z" fill="#E9ECFC"/>
<path d="M396.889 243.023C398.704 243.023 400.175 241.552 400.175 239.737C400.175 237.922 398.704 236.451 396.889 236.451C395.075 236.451 393.604 237.922 393.604 239.737C393.604 241.552 395.075 243.023 396.889 243.023Z" fill="#E9ECFC"/>
<path d="M334.458 263.833C336.273 263.833 337.744 262.362 337.744 260.548C337.744 258.733 336.273 257.262 334.458 257.262C332.643 257.262 331.172 258.733 331.172 260.548C331.172 262.362 332.643 263.833 334.458 263.833Z" fill="#E9ECFC"/>
<path d="M355.268 263.833C357.083 263.833 358.554 262.362 358.554 260.548C358.554 258.733 357.083 257.262 355.268 257.262C353.454 257.262 351.983 258.733 351.983 260.548C351.983 262.362 353.454 263.833 355.268 263.833Z" fill="#E9ECFC"/>
<path d="M376.079 263.833C377.894 263.833 379.365 262.362 379.365 260.548C379.365 258.733 377.894 257.262 376.079 257.262C374.264 257.262 372.793 258.733 372.793 260.548C372.793 262.362 374.264 263.833 376.079 263.833Z" fill="#E9ECFC"/>
<path d="M396.889 263.833C398.704 263.833 400.175 262.362 400.175 260.548C400.175 258.733 398.704 257.262 396.889 257.262C395.075 257.262 393.604 258.733 393.604 260.548C393.604 262.362 395.075 263.833 396.889 263.833Z" fill="#E9ECFC"/>
<path d="M417.7 199.211C419.515 199.211 420.986 197.74 420.986 195.926C420.986 194.111 419.515 192.64 417.7 192.64C415.885 192.64 414.414 194.111 414.414 195.926C414.414 197.74 415.885 199.211 417.7 199.211Z" fill="#E9ECFC"/>
<path d="M417.7 221.118C419.515 221.118 420.986 219.646 420.986 217.832C420.986 216.017 419.515 214.546 417.7 214.546C415.885 214.546 414.414 216.017 414.414 217.832C414.414 219.646 415.885 221.118 417.7 221.118Z" fill="#E9ECFC"/>
<path d="M417.7 243.023C419.515 243.023 420.986 241.552 420.986 239.737C420.986 237.922 419.515 236.451 417.7 236.451C415.885 236.451 414.414 237.922 414.414 239.737C414.414 241.552 415.885 243.023 417.7 243.023Z" fill="#E9ECFC"/>
<path d="M417.7 263.833C419.515 263.833 420.986 262.362 420.986 260.548C420.986 258.733 419.515 257.262 417.7 257.262C415.885 257.262 414.414 258.733 414.414 260.548C414.414 262.362 415.885 263.833 417.7 263.833Z" fill="#E9ECFC"/>
<path d="M334.458 284.644C336.273 284.644 337.744 283.173 337.744 281.358C337.744 279.543 336.273 278.072 334.458 278.072C332.643 278.072 331.172 279.543 331.172 281.358C331.172 283.173 332.643 284.644 334.458 284.644Z" fill="#E9ECFC"/>
<path d="M355.268 284.644C357.083 284.644 358.554 283.173 358.554 281.358C358.554 279.543 357.083 278.072 355.268 278.072C353.454 278.072 351.983 279.543 351.983 281.358C351.983 283.173 353.454 284.644 355.268 284.644Z" fill="#E9ECFC"/>
<path d="M376.079 284.644C377.894 284.644 379.365 283.173 379.365 281.358C379.365 279.543 377.894 278.072 376.079 278.072C374.264 278.072 372.793 279.543 372.793 281.358C372.793 283.173 374.264 284.644 376.079 284.644Z" fill="#E9ECFC"/>
<path d="M396.889 284.644C398.704 284.644 400.175 283.173 400.175 281.358C400.175 279.543 398.704 278.072 396.889 278.072C395.075 278.072 393.604 279.543 393.604 281.358C393.604 283.173 395.075 284.644 396.889 284.644Z" fill="#E9ECFC"/>
<path d="M417.7 284.644C419.515 284.644 420.986 283.173 420.986 281.358C420.986 279.543 419.515 278.072 417.7 278.072C415.885 278.072 414.414 279.543 414.414 281.358C414.414 283.173 415.885 284.644 417.7 284.644Z" fill="#E9ECFC"/>
<path d="M157.021 55.728C158.836 55.728 160.307 54.2569 160.307 52.4421C160.307 50.6274 158.836 49.1562 157.021 49.1562C155.206 49.1562 153.735 50.6274 153.735 52.4421C153.735 54.2569 155.206 55.728 157.021 55.728Z" fill="#E9ECFC"/>
<path d="M177.831 55.728C179.646 55.728 181.117 54.2569 181.117 52.4421C181.117 50.6274 179.646 49.1562 177.831 49.1562C176.017 49.1562 174.546 50.6274 174.546 52.4421C174.546 54.2569 176.017 55.728 177.831 55.728Z" fill="#E9ECFC"/>
<path d="M198.642 55.728C200.457 55.728 201.928 54.2569 201.928 52.4421C201.928 50.6274 200.457 49.1562 198.642 49.1562C196.827 49.1562 195.356 50.6274 195.356 52.4421C195.356 54.2569 196.827 55.728 198.642 55.728Z" fill="#E9ECFC"/>
<path d="M219.452 55.728C221.267 55.728 222.738 54.2569 222.738 52.4421C222.738 50.6274 221.267 49.1562 219.452 49.1562C217.638 49.1562 216.167 50.6274 216.167 52.4421C216.167 54.2569 217.638 55.728 219.452 55.728Z" fill="#E9ECFC"/>
<path d="M157.021 77.6342C158.836 77.6342 160.307 76.1631 160.307 74.3484C160.307 72.5336 158.836 71.0625 157.021 71.0625C155.206 71.0625 153.735 72.5336 153.735 74.3484C153.735 76.1631 155.206 77.6342 157.021 77.6342Z" fill="#E9ECFC"/>
<path d="M177.831 77.6342C179.646 77.6342 181.117 76.1631 181.117 74.3484C181.117 72.5336 179.646 71.0625 177.831 71.0625C176.017 71.0625 174.546 72.5336 174.546 74.3484C174.546 76.1631 176.017 77.6342 177.831 77.6342Z" fill="#E9ECFC"/>
<path d="M198.642 77.6342C200.457 77.6342 201.928 76.1631 201.928 74.3484C201.928 72.5336 200.457 71.0625 198.642 71.0625C196.827 71.0625 195.356 72.5336 195.356 74.3484C195.356 76.1631 196.827 77.6342 198.642 77.6342Z" fill="#E9ECFC"/>
<path d="M219.452 77.6342C221.267 77.6342 222.738 76.1631 222.738 74.3484C222.738 72.5336 221.267 71.0625 219.452 71.0625C217.638 71.0625 216.167 72.5336 216.167 74.3484C216.167 76.1631 217.638 77.6342 219.452 77.6342Z" fill="#E9ECFC"/>
<path d="M157.021 99.5395C158.836 99.5395 160.307 98.0684 160.307 96.2536C160.307 94.4389 158.836 92.9678 157.021 92.9678C155.206 92.9678 153.735 94.4389 153.735 96.2536C153.735 98.0684 155.206 99.5395 157.021 99.5395Z" fill="#E9ECFC"/>
<path d="M177.831 99.5395C179.646 99.5395 181.117 98.0684 181.117 96.2536C181.117 94.4389 179.646 92.9678 177.831 92.9678C176.017 92.9678 174.546 94.4389 174.546 96.2536C174.546 98.0684 176.017 99.5395 177.831 99.5395Z" fill="#E9ECFC"/>
<path d="M198.642 99.5395C200.457 99.5395 201.928 98.0684 201.928 96.2536C201.928 94.4389 200.457 92.9678 198.642 92.9678C196.827 92.9678 195.356 94.4389 195.356 96.2536C195.356 98.0684 196.827 99.5395 198.642 99.5395Z" fill="#E9ECFC"/>
<path d="M219.452 99.5395C221.267 99.5395 222.738 98.0684 222.738 96.2536C222.738 94.4389 221.267 92.9678 219.452 92.9678C217.638 92.9678 216.167 94.4389 216.167 96.2536C216.167 98.0684 217.638 99.5395 219.452 99.5395Z" fill="#E9ECFC"/>
<path d="M157.021 120.35C158.836 120.35 160.307 118.879 160.307 117.064C160.307 115.249 158.836 113.778 157.021 113.778C155.206 113.778 153.735 115.249 153.735 117.064C153.735 118.879 155.206 120.35 157.021 120.35Z" fill="#E9ECFC"/>
<path d="M177.831 120.35C179.646 120.35 181.117 118.879 181.117 117.064C181.117 115.249 179.646 113.778 177.831 113.778C176.017 113.778 174.546 115.249 174.546 117.064C174.546 118.879 176.017 120.35 177.831 120.35Z" fill="#E9ECFC"/>
<path d="M198.642 120.35C200.457 120.35 201.928 118.879 201.928 117.064C201.928 115.249 200.457 113.778 198.642 113.778C196.827 113.778 195.356 115.249 195.356 117.064C195.356 118.879 196.827 120.35 198.642 120.35Z" fill="#E9ECFC"/>
<path d="M219.452 120.35C221.267 120.35 222.738 118.879 222.738 117.064C222.738 115.249 221.267 113.778 219.452 113.778C217.638 113.778 216.167 115.249 216.167 117.064C216.167 118.879 217.638 120.35 219.452 120.35Z" fill="#E9ECFC"/>
<path d="M240.263 55.728C242.078 55.728 243.549 54.2569 243.549 52.4421C243.549 50.6274 242.078 49.1562 240.263 49.1562C238.448 49.1562 236.977 50.6274 236.977 52.4421C236.977 54.2569 238.448 55.728 240.263 55.728Z" fill="#E9ECFC"/>
<path d="M240.263 77.6342C242.078 77.6342 243.549 76.1631 243.549 74.3484C243.549 72.5336 242.078 71.0625 240.263 71.0625C238.448 71.0625 236.977 72.5336 236.977 74.3484C236.977 76.1631 238.448 77.6342 240.263 77.6342Z" fill="#E9ECFC"/>
<path d="M240.263 99.5395C242.078 99.5395 243.549 98.0684 243.549 96.2536C243.549 94.4389 242.078 92.9678 240.263 92.9678C238.448 92.9678 236.977 94.4389 236.977 96.2536C236.977 98.0684 238.448 99.5395 240.263 99.5395Z" fill="#E9ECFC"/>
<path d="M240.263 120.35C242.078 120.35 243.549 118.879 243.549 117.064C243.549 115.249 242.078 113.778 240.263 113.778C238.448 113.778 236.977 115.249 236.977 117.064C236.977 118.879 238.448 120.35 240.263 120.35Z" fill="#E9ECFC"/>
<path d="M157.021 141.161C158.836 141.161 160.307 139.689 160.307 137.875C160.307 136.06 158.836 134.589 157.021 134.589C155.206 134.589 153.735 136.06 153.735 137.875C153.735 139.689 155.206 141.161 157.021 141.161Z" fill="#E9ECFC"/>
<path d="M177.831 141.161C179.646 141.161 181.117 139.689 181.117 137.875C181.117 136.06 179.646 134.589 177.831 134.589C176.017 134.589 174.546 136.06 174.546 137.875C174.546 139.689 176.017 141.161 177.831 141.161Z" fill="#E9ECFC"/>
<path d="M198.642 141.161C200.457 141.161 201.928 139.689 201.928 137.875C201.928 136.06 200.457 134.589 198.642 134.589C196.827 134.589 195.356 136.06 195.356 137.875C195.356 139.689 196.827 141.161 198.642 141.161Z" fill="#E9ECFC"/>
<path d="M219.452 141.161C221.267 141.161 222.738 139.689 222.738 137.875C222.738 136.06 221.267 134.589 219.452 134.589C217.638 134.589 216.167 136.06 216.167 137.875C216.167 139.689 217.638 141.161 219.452 141.161Z" fill="#E9ECFC"/>
<path d="M240.263 141.161C242.078 141.161 243.549 139.689 243.549 137.875C243.549 136.06 242.078 134.589 240.263 134.589C238.448 134.589 236.977 136.06 236.977 137.875C236.977 139.689 238.448 141.161 240.263 141.161Z" fill="#E9ECFC"/>
<path d="M542.596 208.51H487.7C486.538 208.51 485.424 208.048 484.602 207.227C483.78 206.405 483.319 205.291 483.319 204.129V180.033C483.319 178.871 483.78 177.756 484.602 176.935C485.424 176.113 486.538 175.651 487.7 175.651H542.596C543.758 175.651 544.872 176.113 545.694 176.935C546.515 177.756 546.977 178.871 546.977 180.033V204.129C546.977 205.291 546.515 206.405 545.694 207.227C544.872 208.048 543.758 208.51 542.596 208.51Z" fill="#1C1E4F"/>
<path d="M537.119 203.034H482.223C481.061 203.034 479.947 202.572 479.125 201.75C478.304 200.929 477.842 199.814 477.842 198.652V174.556C477.842 173.394 478.304 172.28 479.125 171.458C479.947 170.636 481.061 170.175 482.223 170.175H537.119C538.281 170.175 539.396 170.636 540.217 171.458C541.039 172.28 541.501 173.394 541.501 174.556V198.652C541.501 199.814 541.039 200.929 540.217 201.75C539.396 202.572 538.281 203.034 537.119 203.034Z" fill="#2CCD9A" stroke="#1C1E4F" stroke-width="0.75" stroke-linecap="round" stroke-linejoin="round"/>
<path d="M519.529 177.854L529.387 187.711L519.529 197.569" fill="#2FD39F"/>
<path d="M519.529 177.854L529.387 187.711L519.529 197.569" stroke="#1C1E4F" stroke-width="0.75" stroke-linecap="round" stroke-linejoin="round"/>
<path d="M499.814 197.569L489.956 187.711L499.814 177.854" fill="#2FD39F"/>
<path d="M499.814 197.569L489.956 187.711L499.814 177.854" stroke="#1C1E4F" stroke-width="0.75" stroke-linecap="round" stroke-linejoin="round"/>
<path d="M514.732 178.39L504.874 197.01" stroke="#1C1E4F" stroke-width="0.75" stroke-linecap="round" stroke-linejoin="round"/>
<path d="M124.107 296.835V319.836M124.107 296.659L72.6287 326.385L21.15 296.659H124.107ZM124.107 296.659L72.6287 266.933L21.15 296.659H124.107ZM51.6867 313.647V337.557L72.3987 349.518L93.1106 337.557V313.647L72.3987 301.687L51.6867 313.647ZM51.6867 314.107L72.3987 326.068L93.1106 314.107H51.6867ZM72.3987 326.068V349.069V326.068ZM51.6648 254.48V278.401L72.3768 290.35L93.0887 278.401V254.48L72.3768 242.519L51.6648 254.48ZM51.6648 254.48L72.3768 266.9L93.0887 254.951L51.6648 254.48ZM72.3768 266.9V289.901V266.9ZM0.416199 283.899V307.82L21.1281 319.77L41.8401 307.82V283.921L21.1281 271.96L0.416199 283.899ZM0.416199 284.37L21.1281 296.32L41.8401 284.37H0.416199ZM21.1281 296.342V319.343V296.342ZM103.395 284.392V308.302L124.107 320.263L144.819 308.302V284.414L124.107 272.453L103.395 284.392ZM103.395 284.852L124.107 296.813L144.819 284.852H103.395Z" stroke="#1C1E4F" stroke-width="0.75" stroke-miterlimit="10"/>
<path d="M489.989 0.416016H362.935C360.516 0.416016 358.554 2.37753 358.554 4.79718V66.1334C358.554 68.5531 360.516 70.5146 362.935 70.5146H489.989C492.409 70.5146 494.37 68.5531 494.37 66.1334V4.79718C494.37 2.37753 492.409 0.416016 489.989 0.416016Z" fill="white" stroke="#1C1E4F" stroke-width="0.75" stroke-miterlimit="10"/>
<path d="M362.935 0.416016H489.989C491.151 0.416016 492.265 0.877601 493.087 1.69923C493.909 2.52085 494.37 3.63522 494.37 4.79718V23.4171H358.554V4.79718C358.554 3.63522 359.016 2.52085 359.838 1.69923C360.659 0.877601 361.773 0.416016 362.935 0.416016Z" fill="#2CCD9A" stroke="#1C1E4F" stroke-width="0.75" stroke-miterlimit="10"/>
<path d="M494.37 23.417H358.554" stroke="#1C1E4F" stroke-width="0.75" stroke-miterlimit="10"/>
<path d="M373.198 15.75C375.316 15.75 377.032 14.0337 377.032 11.9165C377.032 9.79933 375.316 8.08301 373.198 8.08301C371.081 8.08301 369.365 9.79933 369.365 11.9165C369.365 14.0337 371.081 15.75 373.198 15.75Z" stroke="#1C1E4F" stroke-width="0.75" stroke-miterlimit="10"/>
<path d="M385.794 15.75C387.911 15.75 389.628 14.0337 389.628 11.9165C389.628 9.79933 387.911 8.08301 385.794 8.08301C383.677 8.08301 381.961 9.79933 381.961 11.9165C381.961 14.0337 383.677 15.75 385.794 15.75Z" stroke="#1C1E4F" stroke-width="0.75" stroke-miterlimit="10"/>
<path d="M397.842 15.75C399.96 15.75 401.676 14.0337 401.676 11.9165C401.676 9.79933 399.96 8.08301 397.842 8.08301C395.725 8.08301 394.009 9.79933 394.009 11.9165C394.009 14.0337 395.725 15.75 397.842 15.75Z" stroke="#1C1E4F" stroke-width="0.75" stroke-miterlimit="10"/>
<path d="M369.365 37.6562L379.222 47.5139L369.365 57.3715" stroke="#1C1E4F" stroke-width="0.75" stroke-linecap="round" stroke-linejoin="round"/>
<path d="M381.961 57.3711H392.914" stroke="#1C1E4F" stroke-width="0.75" stroke-linecap="round" stroke-linejoin="round"/>
<path d="M404.699 179.003C404.699 186.829 401.59 194.334 396.056 199.868C390.523 205.402 383.017 208.511 375.192 208.511H199.88C195.648 208.499 191.469 207.578 187.626 205.809C183.782 204.04 180.364 201.466 177.602 198.26C174.841 195.054 172.802 191.292 171.622 187.229C170.443 183.165 170.151 178.896 170.767 174.71C171.382 170.524 172.891 166.519 175.191 162.967C177.49 159.416 180.526 156.4 184.094 154.125C187.661 151.85 191.676 150.369 195.866 149.782C200.056 149.195 204.324 149.516 208.379 150.723C207.77 148.076 207.465 145.367 207.47 142.651C207.472 136.718 208.928 130.876 211.711 125.636C214.494 120.396 218.519 115.918 223.434 112.595C228.349 109.271 234.003 107.203 239.902 106.571C245.801 105.939 251.766 106.763 257.273 108.971C260.024 102.434 264.816 96.9628 270.933 93.3745C277.051 89.7863 284.165 88.2735 291.213 89.0623C298.261 89.851 304.864 92.8989 310.037 97.7505C315.21 102.602 318.674 108.997 319.912 115.98C324.991 113.354 330.659 112.078 336.373 112.275C342.087 112.472 347.654 114.135 352.539 117.105C357.424 120.075 361.464 124.252 364.268 129.234C367.073 134.216 368.549 139.836 368.554 145.553C368.558 147.14 368.444 148.725 368.215 150.296C370.497 149.731 372.84 149.447 375.192 149.452C379.07 149.452 382.911 150.217 386.494 151.703C390.077 153.188 393.331 155.366 396.072 158.11C398.812 160.855 400.985 164.113 402.465 167.698C403.946 171.283 404.705 175.125 404.699 179.003Z" fill="white" stroke="#1C1E4F" stroke-width="0.75" stroke-miterlimit="10"/>
<path d="M249.135 153.385H241.468V167.481H249.135V153.385Z" fill="#4F37FD"/>
<path d="M259.003 142.881H244.885V149.956H259.003V142.881Z" fill="#2CCD9A"/>
<path d="M241.446 146.331H227.328V153.385H241.446V146.331Z" fill="#4F37FD"/>
<path d="M333.352 150.92H330.361V167.601H333.22V156.648H333.352L339.025 167.601H339.168L344.863 156.648H344.984V167.601H347.798V150.92H345.071L339.288 162.245H339.189L333.352 150.92ZM268.587 167.601H271.446V153.362H278.916V150.887H271.446V153.362H262.618V155.837H268.576L268.587 167.601ZM293.505 150.92V153.11H298.883V167.568H301.742V153.11H307.13V150.92H293.505ZM322.859 163.691C322.867 163.881 322.837 164.071 322.771 164.249C322.703 164.426 322.599 164.587 322.464 164.72C322.332 164.861 322.166 164.966 321.982 165.027C321.806 165.1 321.614 165.13 321.424 165.115H315.192C315.001 165.128 314.81 165.098 314.633 165.027C314.454 164.963 314.293 164.858 314.162 164.72C314.028 164.587 313.923 164.426 313.855 164.249C313.789 164.071 313.759 163.881 313.768 163.691V150.92H310.909V163.548C310.879 164.089 310.963 164.63 311.156 165.135C311.349 165.641 311.646 166.101 312.029 166.484C312.411 166.868 312.87 167.166 313.375 167.36C313.88 167.555 314.421 167.64 314.962 167.612H321.632C322.173 167.64 322.714 167.554 323.22 167.36C323.726 167.166 324.185 166.868 324.568 166.485C324.952 166.102 325.25 165.642 325.444 165.136C325.638 164.63 325.724 164.089 325.696 163.548V150.92H322.859V163.691ZM287.689 160.909H282.136L284.874 154.184H284.973L287.689 160.909ZM286.484 150.92H283.527L276.594 167.612H279.387L281.095 163.384H288.708L290.416 167.612H293.395L286.484 150.92Z" fill="#1C1E4F"/>
<path d="M373.823 136.78C375.032 136.78 376.013 135.799 376.013 134.589C376.013 133.379 375.032 132.398 373.823 132.398C372.613 132.398 371.632 133.379 371.632 134.589C371.632 135.799 372.613 136.78 373.823 136.78Z" fill="#4F37FD"/>
<path d="M386.966 136.78C388.176 136.78 389.157 135.799 389.157 134.589C389.157 133.379 388.176 132.398 386.966 132.398C385.756 132.398 384.776 133.379 384.776 134.589C384.776 135.799 385.756 136.78 386.966 136.78Z" fill="#4F37FD"/>
<path d="M400.11 136.78C401.319 136.78 402.3 135.799 402.3 134.589C402.3 133.379 401.319 132.398 400.11 132.398C398.9 132.398 397.919 133.379 397.919 134.589C397.919 135.799 398.9 136.78 400.11 136.78Z" fill="#4F37FD"/>
<path d="M413.253 136.78C414.463 136.78 415.444 135.799 415.444 134.589C415.444 133.379 414.463 132.398 413.253 132.398C412.043 132.398 411.062 133.379 411.062 134.589C411.062 135.799 412.043 136.78 413.253 136.78Z" fill="#4F37FD"/>
<path d="M426.396 136.78C427.606 136.78 428.587 135.799 428.587 134.589C428.587 133.379 427.606 132.398 426.396 132.398C425.187 132.398 424.206 133.379 424.206 134.589C424.206 135.799 425.187 136.78 426.396 136.78Z" fill="#4F37FD"/>
<path d="M426.396 80.9202C427.606 80.9202 428.587 79.9395 428.587 78.7296C428.587 77.5198 427.606 76.5391 426.396 76.5391C425.187 76.5391 424.206 77.5198 424.206 78.7296C424.206 79.9395 425.187 80.9202 426.396 80.9202Z" fill="#4F37FD"/>
<path d="M426.396 94.0638C427.606 94.0638 428.587 93.083 428.587 91.8732C428.587 90.6634 427.606 89.6826 426.396 89.6826C425.187 89.6826 424.206 90.6634 424.206 91.8732C424.206 93.083 425.187 94.0638 426.396 94.0638Z" fill="#4F37FD"/>
<path d="M426.396 107.207C427.606 107.207 428.587 106.227 428.587 105.017C428.587 103.807 427.606 102.826 426.396 102.826C425.187 102.826 424.206 103.807 424.206 105.017C424.206 106.227 425.187 107.207 426.396 107.207Z" fill="#4F37FD"/>
<path d="M426.396 120.351C427.606 120.351 428.587 119.37 428.587 118.16C428.587 116.95 427.606 115.97 426.396 115.97C425.187 115.97 424.206 116.95 424.206 118.16C424.206 119.37 425.187 120.351 426.396 120.351Z" fill="#4F37FD"/>
<path d="M355.268 140.066C358.293 140.066 360.745 137.614 360.745 134.59C360.745 131.565 358.293 129.113 355.268 129.113C352.244 129.113 349.792 131.565 349.792 134.59C349.792 137.614 352.244 140.066 355.268 140.066Z" fill="#4F37FD"/>
<path d="M426.462 65.5857C429.487 65.5857 431.939 63.1338 431.939 60.1093C431.939 57.0847 429.487 54.6328 426.462 54.6328C423.438 54.6328 420.986 57.0847 420.986 60.1093C420.986 63.1338 423.438 65.5857 426.462 65.5857Z" fill="#4F37FD"/>
<path d="M426.462 65.5857C429.487 65.5857 431.939 63.1338 431.939 60.1093C431.939 57.0847 429.487 54.6328 426.462 54.6328C423.438 54.6328 420.986 57.0847 420.986 60.1093C420.986 63.1338 423.438 65.5857 426.462 65.5857Z" fill="#4F37FD"/>
<path d="M108.28 242.541C109.49 242.541 110.471 241.561 110.471 240.351C110.471 239.141 109.49 238.16 108.28 238.16C107.071 238.16 106.09 239.141 106.09 240.351C106.09 241.561 107.071 242.541 108.28 242.541Z" fill="#4F37FD"/>
<path d="M108.28 229.398C109.49 229.398 110.471 228.417 110.471 227.207C110.471 225.997 109.49 225.017 108.28 225.017C107.071 225.017 106.09 225.997 106.09 227.207C106.09 228.417 107.071 229.398 108.28 229.398Z" fill="#4F37FD"/>
<path d="M108.28 216.254C109.49 216.254 110.471 215.273 110.471 214.064C110.471 212.854 109.49 211.873 108.28 211.873C107.071 211.873 106.09 212.854 106.09 214.064C106.09 215.273 107.071 216.254 108.28 216.254Z" fill="#4F37FD"/>
<path d="M108.28 203.111C109.49 203.111 110.471 202.13 110.471 200.92C110.471 199.71 109.49 198.729 108.28 198.729C107.071 198.729 106.09 199.71 106.09 200.92C106.09 202.13 107.071 203.111 108.28 203.111Z" fill="#4F37FD"/>
<path d="M108.28 189.967C109.49 189.967 110.471 188.986 110.471 187.777C110.471 186.567 109.49 185.586 108.28 185.586C107.071 185.586 106.09 186.567 106.09 187.777C106.09 188.986 107.071 189.967 108.28 189.967Z" fill="#4F37FD"/>
<path d="M164.14 189.967C165.35 189.967 166.331 188.986 166.331 187.777C166.331 186.567 165.35 185.586 164.14 185.586C162.93 185.586 161.95 186.567 161.95 187.777C161.95 188.986 162.93 189.967 164.14 189.967Z" fill="#4F37FD"/>
<path d="M150.997 189.967C152.207 189.967 153.187 188.986 153.187 187.777C153.187 186.567 152.207 185.586 150.997 185.586C149.787 185.586 148.806 186.567 148.806 187.777C148.806 188.986 149.787 189.967 150.997 189.967Z" fill="#4F37FD"/>
<path d="M137.853 189.967C139.063 189.967 140.044 188.986 140.044 187.777C140.044 186.567 139.063 185.586 137.853 185.586C136.643 185.586 135.663 186.567 135.663 187.777C135.663 188.986 136.643 189.967 137.853 189.967Z" fill="#4F37FD"/>
<path d="M124.71 189.967C125.92 189.967 126.9 188.986 126.9 187.777C126.9 186.567 125.92 185.586 124.71 185.586C123.5 185.586 122.519 186.567 122.519 187.777C122.519 188.986 123.5 189.967 124.71 189.967Z" fill="#4F37FD"/>
<path d="M108.28 264.381C111.305 264.381 113.757 261.929 113.757 258.905C113.757 255.88 111.305 253.428 108.28 253.428C105.256 253.428 102.804 255.88 102.804 258.905C102.804 261.929 105.256 264.381 108.28 264.381Z" fill="#4F37FD"/>
<path d="M182.76 193.177C185.785 193.177 188.237 190.725 188.237 187.7C188.237 184.676 185.785 182.224 182.76 182.224C179.736 182.224 177.284 184.676 177.284 187.7C177.284 190.725 179.736 193.177 182.76 193.177Z" fill="#4F37FD"/>
<path d="M84.7645 165.794H29.8685C28.7066 165.794 27.5922 165.333 26.7706 164.511C25.9489 163.689 25.4874 162.575 25.4874 161.413V137.317C25.4874 136.155 25.9489 135.04 26.7706 134.219C27.5922 133.397 28.7066 132.936 29.8685 132.936H84.7645C85.9264 132.936 87.0408 133.397 87.8624 134.219C88.6841 135.04 89.1456 136.155 89.1456 137.317V161.413C89.1456 162.575 88.6841 163.689 87.8624 164.511C87.0408 165.333 85.9264 165.794 84.7645 165.794Z" fill="#1C1E4F"/>
<path d="M79.288 160.318H24.3921C23.2301 160.318 22.1158 159.856 21.2941 159.034C20.4725 158.213 20.0109 157.098 20.0109 155.937V131.84C20.0109 130.678 20.4725 129.564 21.2941 128.742C22.1158 127.921 23.2301 127.459 24.3921 127.459H79.288C80.45 127.459 81.5644 127.921 82.386 128.742C83.2076 129.564 83.6692 130.678 83.6692 131.84V155.937C83.6692 157.098 83.2076 158.213 82.386 159.034C81.5644 159.856 80.45 160.318 79.288 160.318Z" fill="#2CCD9A" stroke="#1C1E4F" stroke-width="0.75" stroke-linecap="round" stroke-linejoin="round"/>
<path d="M56.035 134.042V153.746" stroke="#1C1E4F" stroke-width="0.75" stroke-linecap="round" stroke-linejoin="round"/>
<path d="M69.9124 153.757C72.9369 153.757 75.3888 149.344 75.3888 143.9C75.3888 138.455 72.9369 134.042 69.9124 134.042C66.8878 134.042 64.4359 138.455 64.4359 143.9C64.4359 149.344 66.8878 153.757 69.9124 153.757Z" fill="#2FD39F" stroke="#1C1E4F" stroke-width="0.75" stroke-linecap="round" stroke-linejoin="round"/>
<path d="M28.2914 134.042V153.746" stroke="#1C1E4F" stroke-width="0.75" stroke-linecap="round" stroke-linejoin="round"/>
<path d="M42.1686 153.757C45.1932 153.757 47.6451 149.344 47.6451 143.9C47.6451 138.455 45.1932 134.042 42.1686 134.042C39.1441 134.042 36.6922 138.455 36.6922 143.9C36.6922 149.344 39.1441 153.757 42.1686 153.757Z" fill="#2FD39F" stroke="#1C1E4F" stroke-width="0.75" stroke-linecap="round" stroke-linejoin="round"/>
</g>
<defs>
<clipPath id="clip0">
<rect width="546.977" height="350" fill="white"/>
</clipPath>
</defs>
</svg>
