<svg width="178" height="178" viewBox="0 0 178 178" fill="none" xmlns="http://www.w3.org/2000/svg">
<path d="M3 100C4.65685 100 6 98.6569 6 97C6 95.3431 4.65685 94 3 94C1.34315 94 0 95.3431 0 97C0 98.6569 1.34315 100 3 100Z" fill="white" fill-opacity="0.8"/>
<path d="M41 100C42.6569 100 44 98.6569 44 97C44 95.3431 42.6569 94 41 94C39.3431 94 38 95.3431 38 97C38 98.6569 39.3431 100 41 100Z" fill="white" fill-opacity="0.8"/>
<path d="M3 120C4.65685 120 6 118.657 6 117C6 115.343 4.65685 114 3 114C1.34315 114 0 115.343 0 117C0 118.657 1.34315 120 3 120Z" fill="white" fill-opacity="0.8"/>
<path d="M41 120C42.6569 120 44 118.657 44 117C44 115.343 42.6569 114 41 114C39.3431 114 38 115.343 38 117C38 118.657 39.3431 120 41 120Z" fill="white" fill-opacity="0.8"/>
<path d="M3 140C4.65685 140 6 138.657 6 137C6 135.343 4.65685 134 3 134C1.34315 134 0 135.343 0 137C0 138.657 1.34315 140 3 140Z" fill="white" fill-opacity="0.8"/>
<path d="M41 140C42.6569 140 44 138.657 44 137C44 135.343 42.6569 134 41 134C39.3431 134 38 135.343 38 137C38 138.657 39.3431 140 41 140Z" fill="white" fill-opacity="0.8"/>
<path d="M3 159C4.65685 159 6 157.657 6 156C6 154.343 4.65685 153 3 153C1.34315 153 0 154.343 0 156C0 157.657 1.34315 159 3 159Z" fill="white" fill-opacity="0.8"/>
<path d="M22 100C23.6569 100 25 98.6569 25 97C25 95.3431 23.6569 94 22 94C20.3431 94 19 95.3431 19 97C19 98.6569 20.3431 100 22 100Z" fill="white" fill-opacity="0.8"/>
<path d="M60 100C61.6569 100 63 98.6569 63 97C63 95.3431 61.6569 94 60 94C58.3431 94 57 95.3431 57 97C57 98.6569 58.3431 100 60 100Z" fill="white" fill-opacity="0.8"/>
<path d="M79 100C80.6569 100 82 98.6569 82 97C82 95.3431 80.6569 94 79 94C77.3431 94 76 95.3431 76 97C76 98.6569 77.3431 100 79 100Z" fill="white" fill-opacity="0.8"/>
<path d="M22 120C23.6569 120 25 118.657 25 117C25 115.343 23.6569 114 22 114C20.3431 114 19 115.343 19 117C19 118.657 20.3431 120 22 120Z" fill="white" fill-opacity="0.8"/>
<path d="M60 120C61.6569 120 63 118.657 63 117C63 115.343 61.6569 114 60 114C58.3431 114 57 115.343 57 117C57 118.657 58.3431 120 60 120Z" fill="white" fill-opacity="0.8"/>
<path d="M22 140C23.6569 140 25 138.657 25 137C25 135.343 23.6569 134 22 134C20.3431 134 19 135.343 19 137C19 138.657 20.3431 140 22 140Z" fill="white" fill-opacity="0.8"/>
<path d="M22 159C23.6569 159 25 157.657 25 156C25 154.343 23.6569 153 22 153C20.3431 153 19 154.343 19 156C19 157.657 20.3431 159 22 159Z" fill="white" fill-opacity="0.8"/>
<path d="M3 178C4.65685 178 6 176.657 6 175C6 173.343 4.65685 172 3 172C1.34315 172 0 173.343 0 175C0 176.657 1.34315 178 3 178Z" fill="white" fill-opacity="0.8"/>
<path d="M3 6C4.65685 6 6 4.65685 6 3C6 1.34315 4.65685 0 3 0C1.34315 0 0 1.34315 0 3C0 4.65685 1.34315 6 3 6Z" fill="white" fill-opacity="0.8"/>
<path d="M41 6C42.6569 6 44 4.65685 44 3C44 1.34315 42.6569 0 41 0C39.3431 0 38 1.34315 38 3C38 4.65685 39.3431 6 41 6Z" fill="white" fill-opacity="0.8"/>
<path d="M3 26C4.65685 26 6 24.6569 6 23C6 21.3431 4.65685 20 3 20C1.34315 20 0 21.3431 0 23C0 24.6569 1.34315 26 3 26Z" fill="white" fill-opacity="0.8"/>
<path d="M41 26C42.6569 26 44 24.6569 44 23C44 21.3431 42.6569 20 41 20C39.3431 20 38 21.3431 38 23C38 24.6569 39.3431 26 41 26Z" fill="white" fill-opacity="0.8"/>
<path d="M3 46C4.65685 46 6 44.6569 6 43C6 41.3431 4.65685 40 3 40C1.34315 40 0 41.3431 0 43C0 44.6569 1.34315 46 3 46Z" fill="white" fill-opacity="0.8"/>
<path d="M41 46C42.6569 46 44 44.6569 44 43C44 41.3431 42.6569 40 41 40C39.3431 40 38 41.3431 38 43C38 44.6569 39.3431 46 41 46Z" fill="white" fill-opacity="0.8"/>
<path d="M3 65C4.65685 65 6 63.6569 6 62C6 60.3431 4.65685 59 3 59C1.34315 59 0 60.3431 0 62C0 63.6569 1.34315 65 3 65Z" fill="white" fill-opacity="0.8"/>
<path d="M41 65C42.6569 65 44 63.6569 44 62C44 60.3431 42.6569 59 41 59C39.3431 59 38 60.3431 38 62C38 63.6569 39.3431 65 41 65Z" fill="white" fill-opacity="0.8"/>
<path d="M22 6C23.6569 6 25 4.65685 25 3C25 1.34315 23.6569 0 22 0C20.3431 0 19 1.34315 19 3C19 4.65685 20.3431 6 22 6Z" fill="white" fill-opacity="0.8"/>
<path d="M60 6C61.6569 6 63 4.65685 63 3C63 1.34315 61.6569 0 60 0C58.3431 0 57 1.34315 57 3C57 4.65685 58.3431 6 60 6Z" fill="white" fill-opacity="0.8"/>
<path d="M79 6C80.6569 6 82 4.65685 82 3C82 1.34315 80.6569 0 79 0C77.3431 0 76 1.34315 76 3C76 4.65685 77.3431 6 79 6Z" fill="white" fill-opacity="0.8"/>
<path d="M22 26C23.6569 26 25 24.6569 25 23C25 21.3431 23.6569 20 22 20C20.3431 20 19 21.3431 19 23C19 24.6569 20.3431 26 22 26Z" fill="white" fill-opacity="0.8"/>
<path d="M60 26C61.6569 26 63 24.6569 63 23C63 21.3431 61.6569 20 60 20C58.3431 20 57 21.3431 57 23C57 24.6569 58.3431 26 60 26Z" fill="white" fill-opacity="0.8"/>
<path d="M79 26C80.6569 26 82 24.6569 82 23C82 21.3431 80.6569 20 79 20C77.3431 20 76 21.3431 76 23C76 24.6569 77.3431 26 79 26Z" fill="white" fill-opacity="0.8"/>
<path d="M22 46C23.6569 46 25 44.6569 25 43C25 41.3431 23.6569 40 22 40C20.3431 40 19 41.3431 19 43C19 44.6569 20.3431 46 22 46Z" fill="white" fill-opacity="0.8"/>
<path d="M60 46C61.6569 46 63 44.6569 63 43C63 41.3431 61.6569 40 60 40C58.3431 40 57 41.3431 57 43C57 44.6569 58.3431 46 60 46Z" fill="white" fill-opacity="0.8"/>
<path d="M79 46C80.6569 46 82 44.6569 82 43C82 41.3431 80.6569 40 79 40C77.3431 40 76 41.3431 76 43C76 44.6569 77.3431 46 79 46Z" fill="white" fill-opacity="0.8"/>
<path d="M22 65C23.6569 65 25 63.6569 25 62C25 60.3431 23.6569 59 22 59C20.3431 59 19 60.3431 19 62C19 63.6569 20.3431 65 22 65Z" fill="white" fill-opacity="0.8"/>
<path d="M60 65C61.6569 65 63 63.6569 63 62C63 60.3431 61.6569 59 60 59C58.3431 59 57 60.3431 57 62C57 63.6569 58.3431 65 60 65Z" fill="white" fill-opacity="0.8"/>
<path d="M79 65C80.6569 65 82 63.6569 82 62C82 60.3431 80.6569 59 79 59C77.3431 59 76 60.3431 76 62C76 63.6569 77.3431 65 79 65Z" fill="white" fill-opacity="0.8"/>
<path d="M3 84C4.65685 84 6 82.6569 6 81C6 79.3431 4.65685 78 3 78C1.34315 78 0 79.3431 0 81C0 82.6569 1.34315 84 3 84Z" fill="white" fill-opacity="0.8"/>
<path d="M41 84C42.6569 84 44 82.6569 44 81C44 79.3431 42.6569 78 41 78C39.3431 78 38 79.3431 38 81C38 82.6569 39.3431 84 41 84Z" fill="white" fill-opacity="0.8"/>
<path d="M22 84C23.6569 84 25 82.6569 25 81C25 79.3431 23.6569 78 22 78C20.3431 78 19 79.3431 19 81C19 82.6569 20.3431 84 22 84Z" fill="white" fill-opacity="0.8"/>
<path d="M60 84C61.6569 84 63 82.6569 63 81C63 79.3431 61.6569 78 60 78C58.3431 78 57 79.3431 57 81C57 82.6569 58.3431 84 60 84Z" fill="white" fill-opacity="0.8"/>
<path d="M79 84C80.6569 84 82 82.6569 82 81C82 79.3431 80.6569 78 79 78C77.3431 78 76 79.3431 76 81C76 82.6569 77.3431 84 79 84Z" fill="white" fill-opacity="0.8"/>
<path d="M99 6C100.657 6 102 4.65685 102 3C102 1.34315 100.657 0 99 0C97.3431 0 96 1.34315 96 3C96 4.65685 97.3431 6 99 6Z" fill="white" fill-opacity="0.8"/>
<path d="M137 6C138.657 6 140 4.65685 140 3C140 1.34315 138.657 0 137 0C135.343 0 134 1.34315 134 3C134 4.65685 135.343 6 137 6Z" fill="white" fill-opacity="0.8"/>
<path d="M99 26C100.657 26 102 24.6569 102 23C102 21.3431 100.657 20 99 20C97.3431 20 96 21.3431 96 23C96 24.6569 97.3431 26 99 26Z" fill="white" fill-opacity="0.8"/>
<path d="M137 26C138.657 26 140 24.6569 140 23C140 21.3431 138.657 20 137 20C135.343 20 134 21.3431 134 23C134 24.6569 135.343 26 137 26Z" fill="white" fill-opacity="0.8"/>
<path d="M99 46C100.657 46 102 44.6569 102 43C102 41.3431 100.657 40 99 40C97.3431 40 96 41.3431 96 43C96 44.6569 97.3431 46 99 46Z" fill="white" fill-opacity="0.8"/>
<path d="M137 46C138.657 46 140 44.6569 140 43C140 41.3431 138.657 40 137 40C135.343 40 134 41.3431 134 43C134 44.6569 135.343 46 137 46Z" fill="white" fill-opacity="0.8"/>
<path d="M99 65C100.657 65 102 63.6569 102 62C102 60.3431 100.657 59 99 59C97.3431 59 96 60.3431 96 62C96 63.6569 97.3431 65 99 65Z" fill="white" fill-opacity="0.8"/>
<path d="M118 6C119.657 6 121 4.65685 121 3C121 1.34315 119.657 0 118 0C116.343 0 115 1.34315 115 3C115 4.65685 116.343 6 118 6Z" fill="white" fill-opacity="0.8"/>
<path d="M156 6C157.657 6 159 4.65685 159 3C159 1.34315 157.657 0 156 0C154.343 0 153 1.34315 153 3C153 4.65685 154.343 6 156 6Z" fill="white" fill-opacity="0.8"/>
<path d="M175 6C176.657 6 178 4.65685 178 3C178 1.34315 176.657 0 175 0C173.343 0 172 1.34315 172 3C172 4.65685 173.343 6 175 6Z" fill="white" fill-opacity="0.8"/>
<path d="M118 26C119.657 26 121 24.6569 121 23C121 21.3431 119.657 20 118 20C116.343 20 115 21.3431 115 23C115 24.6569 116.343 26 118 26Z" fill="white" fill-opacity="0.8"/>
<path d="M156 26C157.657 26 159 24.6569 159 23C159 21.3431 157.657 20 156 20C154.343 20 153 21.3431 153 23C153 24.6569 154.343 26 156 26Z" fill="white" fill-opacity="0.8"/>
<path d="M118 46C119.657 46 121 44.6569 121 43C121 41.3431 119.657 40 118 40C116.343 40 115 41.3431 115 43C115 44.6569 116.343 46 118 46Z" fill="white" fill-opacity="0.8"/>
<path d="M118 65C119.657 65 121 63.6569 121 62C121 60.3431 119.657 59 118 59C116.343 59 115 60.3431 115 62C115 63.6569 116.343 65 118 65Z" fill="white" fill-opacity="0.8"/>
<path d="M99 84C100.657 84 102 82.6569 102 81C102 79.3431 100.657 78 99 78C97.3431 78 96 79.3431 96 81C96 82.6569 97.3431 84 99 84Z" fill="white" fill-opacity="0.8"/>
</svg>
