<svg width="60" height="60" viewBox="0 0 60 60" fill="none" xmlns="http://www.w3.org/2000/svg">
<path d="M55.3125 21.5625V19.6875C55.3125 18.6929 54.9174 17.7391 54.2141 17.0359C53.5109 16.3326 52.5571 15.9375 51.5625 15.9375H34.6875V21.5625H55.3125Z" fill="#F8F9FF"/>
<path d="M45 2.8125L38.4375 7.5L45 12.1875L45.0019 9.375H57.1875V5.625H45V2.8125Z" fill="#F8F9FF"/>
<path d="M50.625 50.625H38.4375V54.375H50.6231L50.625 57.1875L57.1875 52.5L50.625 47.8125V50.625Z" fill="#F8F9FF"/>
<path d="M34.6875 21.5625V6.5625C34.6875 5.56794 34.2924 4.61411 33.5891 3.91085C32.8859 3.20759 31.9321 2.8125 30.9375 2.8125H6.5625C5.56794 2.8125 4.61411 3.20759 3.91085 3.91085C3.20759 4.61411 2.8125 5.56794 2.8125 6.5625V53.4375C2.8125 54.4321 3.20759 55.3859 3.91085 56.0891C4.61411 56.7924 5.56794 57.1875 6.5625 57.1875H30.9375C31.9321 57.1875 32.8859 56.7924 33.5891 56.0891C34.2924 55.3859 34.6875 54.4321 34.6875 53.4375V21.5625ZM30.9375 15.9375V52.5C30.9375 52.7486 30.8387 52.9871 30.6629 53.1629C30.4871 53.3387 30.2486 53.4375 30 53.4375H7.5C7.25136 53.4375 7.0129 53.3387 6.83709 53.1629C6.66127 52.9871 6.5625 52.7486 6.5625 52.5V7.5C6.5625 7.25136 6.66127 7.0129 6.83709 6.83709C7.0129 6.66127 7.25136 6.5625 7.5 6.5625H11.25C11.2515 7.05932 11.4495 7.53538 11.8008 7.88669C12.1521 8.238 12.6282 8.43602 13.125 8.4375H24.375C24.8718 8.43602 25.3479 8.238 25.6992 7.88669C26.0505 7.53538 26.2485 7.05932 26.25 6.5625H30C30.2486 6.5625 30.4871 6.66127 30.6629 6.83709C30.8387 7.0129 30.9375 7.25136 30.9375 7.5V15.9375Z" fill="#F8F9FF"/>
<path d="M10.3125 19.6875V21.5625H30.9375V15.9375H14.0625C13.0679 15.9375 12.1141 16.3326 11.4108 17.0359C10.7076 17.7391 10.3125 18.6929 10.3125 19.6875Z" fill="#F8F9FF"/>
<path d="M10.3125 40.3125C10.3125 41.3071 10.7076 42.2609 11.4108 42.9641C12.1141 43.6674 13.0679 44.0625 14.0625 44.0625H30.9375V27.1875H10.3125V40.3125ZM14.0625 34.6875C14.0625 34.1902 14.26 33.7133 14.6117 33.3617C14.9633 33.01 15.4402 32.8125 15.9375 32.8125H21.5625C22.0598 32.8125 22.5367 33.01 22.8883 33.3617C23.24 33.7133 23.4375 34.1902 23.4375 34.6875V38.4375C23.4375 38.9348 23.24 39.4117 22.8883 39.7633C22.5367 40.115 22.0598 40.3125 21.5625 40.3125H15.9375C15.4402 40.3125 14.9633 40.115 14.6117 39.7633C14.26 39.4117 14.0625 38.9348 14.0625 38.4375V34.6875Z" fill="#F8F9FF"/>
<path d="M34.6875 27.1875V44.0625H51.5625C52.5571 44.0625 53.5109 43.6674 54.2141 42.9641C54.9174 42.2609 55.3125 41.3071 55.3125 40.3125V27.1875H34.6875ZM46.875 40.3125C46.4105 40.3127 45.9532 40.1975 45.5442 39.9775C45.1351 39.7574 44.7871 39.4393 44.5312 39.0516C44.1978 39.5558 43.7107 39.9391 43.1422 40.1447C42.5738 40.3504 41.9542 40.3674 41.3753 40.1933C40.7964 40.0192 40.2891 39.6632 39.9284 39.1781C39.5677 38.6929 39.3729 38.1045 39.3729 37.5C39.3729 36.8955 39.5677 36.3071 39.9284 35.8219C40.2891 35.3368 40.7964 34.9808 41.3753 34.8067C41.9542 34.6326 42.5738 34.6496 43.1422 34.8553C43.7107 35.0609 44.1978 35.4442 44.5312 35.9484C44.7997 35.5426 45.1687 35.2134 45.6025 34.9929C46.0362 34.7724 46.5197 34.6682 47.0057 34.6904C47.4917 34.7127 47.9637 34.8607 48.3754 35.1199C48.7872 35.3791 49.1246 35.7407 49.3548 36.1693C49.585 36.5979 49.7001 37.079 49.6888 37.5654C49.6775 38.0518 49.5402 38.5269 49.2903 38.9444C49.0404 39.3619 48.6865 39.7074 48.2632 39.9472C47.8399 40.187 47.3615 40.3129 46.875 40.3125Z" fill="#F8F9FF"/>
<path d="M30 5.625H26.25C26.0014 5.625 25.7629 5.72377 25.5871 5.89959C25.4113 6.0754 25.3125 6.31386 25.3125 6.5625C25.3125 6.81114 25.2137 7.0496 25.0379 7.22541C24.8621 7.40123 24.6236 7.5 24.375 7.5H13.125C12.8764 7.5 12.6379 7.40123 12.4621 7.22541C12.2863 7.0496 12.1875 6.81114 12.1875 6.5625C12.1875 6.31386 12.0887 6.0754 11.9129 5.89959C11.7371 5.72377 11.4986 5.625 11.25 5.625H7.5C7.00272 5.625 6.52581 5.82254 6.17417 6.17417C5.82254 6.52581 5.625 7.00272 5.625 7.5V52.5C5.625 52.9973 5.82254 53.4742 6.17417 53.8258C6.52581 54.1775 7.00272 54.375 7.5 54.375H30C30.4973 54.375 30.9742 54.1775 31.3258 53.8258C31.6775 53.4742 31.875 52.9973 31.875 52.5V7.5C31.875 7.00272 31.6775 6.52581 31.3258 6.17417C30.9742 5.82254 30.4973 5.625 30 5.625ZM11.25 20.625V19.6875C11.25 18.9416 11.5463 18.2262 12.0738 17.6988C12.6012 17.1713 13.3166 16.875 14.0625 16.875H30V20.625H11.25ZM30 22.5V26.25H11.25V22.5H30ZM11.25 28.125H30V43.125H14.0625C13.3166 43.125 12.6012 42.8287 12.0738 42.3012C11.5463 41.7738 11.25 41.0584 11.25 40.3125V28.125ZM7.5 52.5V7.5H10.4728C10.6674 8.04798 11.0268 8.52233 11.5016 8.85802C11.9764 9.19371 12.5435 9.37429 13.125 9.375H24.375C24.9565 9.37429 25.5236 9.19371 25.9984 8.85802C26.4732 8.52233 26.8326 8.04798 27.0272 7.5H30V15H14.0625C12.8198 15.0015 11.6283 15.4958 10.7496 16.3746C9.87083 17.2533 9.37649 18.4448 9.375 19.6875V40.3125C9.37649 41.5552 9.87083 42.7467 10.7496 43.6254C11.6283 44.5042 12.8198 44.9985 14.0625 45H30V52.5H7.5Z" fill="#4F37FD"/>
<path d="M57.1874 4.68759H45.9374V2.81259C45.9375 2.64035 45.89 2.47144 45.8003 2.32439C45.7107 2.17734 45.5822 2.05783 45.4291 1.97899C45.276 1.90015 45.1041 1.86501 44.9323 1.87745C44.7605 1.88988 44.5954 1.9494 44.4553 2.04947L37.8928 6.73697C37.7712 6.82369 37.6722 6.93818 37.6038 7.07092C37.5355 7.20365 37.4998 7.35079 37.4998 7.50009C37.4998 7.64939 37.5355 7.79653 37.6038 7.92926C37.6722 8.062 37.7712 8.17649 37.8928 8.26322L44.4553 12.9507C44.5954 13.0508 44.7605 13.1103 44.9323 13.1227C45.1041 13.1352 45.276 13.1 45.4291 13.0212C45.5822 12.9423 45.7107 12.8228 45.8003 12.6758C45.89 12.5287 45.9375 12.3598 45.9374 12.1876V10.3126H57.1874C57.4361 10.3126 57.6745 10.2138 57.8504 10.038C58.0262 9.86219 58.1249 9.62373 58.1249 9.37509V5.62509C58.1249 5.37645 58.0262 5.13799 57.8504 4.96218C57.6745 4.78636 57.4361 4.68759 57.1874 4.68759ZM56.2499 8.43759H44.9999C44.7513 8.43759 44.5128 8.53636 44.337 8.71218C44.1612 8.88799 44.0624 9.12645 44.0624 9.37509V10.367L40.0509 7.50009L44.0624 4.63415V5.62509C44.0624 5.87373 44.1612 6.11219 44.337 6.288C44.5128 6.46382 44.7513 6.56259 44.9999 6.56259H56.2499V8.43759Z" fill="#4F37FD"/>
<path d="M57.7322 51.737L51.1697 47.0495C51.0295 46.9494 50.8645 46.8899 50.6927 46.8774C50.5209 46.865 50.349 46.9001 50.1959 46.979C50.0427 47.0578 49.9143 47.1773 49.8246 47.3244C49.7349 47.4714 49.6875 47.6404 49.6875 47.8126V49.6876H38.4375C38.1889 49.6876 37.9504 49.7864 37.7746 49.9622C37.5988 50.138 37.5 50.3764 37.5 50.6251V54.3751C37.5 54.6237 37.5988 54.8622 37.7746 55.038C37.9504 55.2138 38.1889 55.3126 38.4375 55.3126H49.6875V57.1876C49.6875 57.3598 49.7349 57.5287 49.8246 57.6758C49.9143 57.8228 50.0427 57.9423 50.1959 58.0212C50.349 58.1 50.5209 58.1352 50.6927 58.1227C50.8645 58.1103 51.0295 58.0508 51.1697 57.9507L57.7322 53.2632C57.8537 53.1765 57.9528 53.062 58.0211 52.9293C58.0895 52.7965 58.1251 52.6494 58.1251 52.5001C58.1251 52.3508 58.0895 52.2036 58.0211 52.0709C57.9528 51.9382 57.8537 51.8237 57.7322 51.737ZM51.5625 55.367V54.3751C51.5625 54.1264 51.4637 53.888 51.2879 53.7122C51.1121 53.5364 50.8736 53.4376 50.625 53.4376H39.375V51.5626H50.625C50.8736 51.5626 51.1121 51.4638 51.2879 51.288C51.4637 51.1122 51.5625 50.8737 51.5625 50.6251V49.6341L55.5741 52.5001L51.5625 55.367Z" fill="#4F37FD"/>
<path d="M51.5625 45.001C52.8052 44.9995 53.9967 44.5051 54.8754 43.6264C55.7542 42.7476 56.2485 41.5562 56.25 40.3135V19.6885C56.2485 18.4457 55.7542 17.2543 54.8754 16.3756C53.9967 15.4968 52.8052 15.0025 51.5625 15.001H35.625V6.56348C35.6235 5.32073 35.1292 4.12931 34.2504 3.25056C33.3717 2.3718 32.1802 1.87747 30.9375 1.87598H6.5625C5.31975 1.87747 4.12834 2.3718 3.24958 3.25056C2.37083 4.12931 1.87649 5.32073 1.875 6.56348V53.4385C1.87649 54.6812 2.37083 55.8726 3.24958 56.7514C4.12834 57.6301 5.31975 58.1245 6.5625 58.126H30.9375C32.1802 58.1245 33.3717 57.6301 34.2504 56.7514C35.1292 55.8726 35.6235 54.6812 35.625 53.4385V45.001H51.5625ZM51.5625 43.126H35.625V28.126H54.375V40.3135C54.375 41.0594 54.0787 41.7748 53.5512 42.3022C53.0238 42.8297 52.3084 43.126 51.5625 43.126ZM54.375 26.251H35.625V22.501H54.375V26.251ZM51.5625 16.876C52.3084 16.876 53.0238 17.1723 53.5512 17.6997C54.0787 18.2272 54.375 18.9426 54.375 19.6885V20.626H35.625V16.876H51.5625ZM33.75 53.4385C33.75 54.1844 33.4537 54.8998 32.9262 55.4272C32.3988 55.9547 31.6834 56.251 30.9375 56.251H6.5625C5.81658 56.251 5.10121 55.9547 4.57376 55.4272C4.04632 54.8998 3.75 54.1844 3.75 53.4385V6.56348C3.75 5.81756 4.04632 5.10219 4.57376 4.57474C5.10121 4.04729 5.81658 3.75098 6.5625 3.75098H30.9375C31.6834 3.75098 32.3988 4.04729 32.9262 4.57474C33.4537 5.10219 33.75 5.81756 33.75 6.56348V53.4385Z" fill="#4F37FD"/>
<path d="M46.8752 33.75C46.024 33.754 45.2001 34.0498 44.5408 34.5881C43.9906 34.1416 43.3251 33.8602 42.6215 33.7763C41.9179 33.6925 41.2049 33.8098 40.5652 34.1145C39.9254 34.4192 39.3852 34.899 39.0069 35.4981C38.6286 36.0973 38.4279 36.7914 38.4279 37.5C38.4279 38.2086 38.6286 38.9027 39.0069 39.5019C39.3852 40.1011 39.9254 40.5808 40.5652 40.8855C41.2049 41.1903 41.9179 41.3075 42.6215 41.2237C43.3251 41.1398 43.9906 40.8584 44.5408 40.4119C45.0076 40.7863 45.5575 41.0434 46.1442 41.1614C46.7309 41.2795 47.3373 41.2552 47.9127 41.0904C48.488 40.9257 49.0154 40.6254 49.4507 40.2147C49.886 39.804 50.2165 39.2949 50.4144 38.7301C50.6123 38.1653 50.6719 37.5613 50.5882 36.9687C50.5044 36.3762 50.2798 35.8123 49.9331 35.3245C49.5864 34.8367 49.1278 34.4391 48.5957 34.1652C48.0636 33.8912 47.4736 33.7488 46.8752 33.75ZM40.3127 37.5C40.3127 37.0027 40.5102 36.5258 40.8618 36.1742C41.2135 35.8225 41.6904 35.625 42.1877 35.625C42.6358 35.6238 43.069 35.7858 43.4064 36.0806C43.2195 36.5305 43.1233 37.0129 43.1233 37.5C43.1233 37.9872 43.2195 38.4695 43.4064 38.9194C43.069 39.2142 42.6358 39.3762 42.1877 39.375C41.6904 39.375 41.2135 39.1775 40.8618 38.8258C40.5102 38.4742 40.3127 37.9973 40.3127 37.5ZM46.8752 39.375C46.5043 39.375 46.1418 39.265 45.8335 39.059C45.5251 38.853 45.2848 38.5601 45.1429 38.2175C45.001 37.8749 44.9638 37.4979 45.0362 37.1342C45.1085 36.7705 45.2871 36.4364 45.5493 36.1742C45.8116 35.912 46.1457 35.7334 46.5094 35.661C46.8731 35.5887 47.2501 35.6258 47.5927 35.7677C47.9353 35.9096 48.2281 36.15 48.4342 36.4583C48.6402 36.7667 48.7502 37.1292 48.7502 37.5C48.7502 37.9973 48.5526 38.4742 48.201 38.8258C47.8494 39.1775 47.3724 39.375 46.8752 39.375Z" fill="#4F37FD"/>
<path d="M15.9375 41.25H21.5625C22.3084 41.25 23.0238 40.9537 23.5512 40.4262C24.0787 39.8988 24.375 39.1834 24.375 38.4375V34.6875C24.375 33.9416 24.0787 33.2262 23.5512 32.6988C23.0238 32.1713 22.3084 31.875 21.5625 31.875H15.9375C15.1916 31.875 14.4762 32.1713 13.9488 32.6988C13.4213 33.2262 13.125 33.9416 13.125 34.6875V38.4375C13.125 39.1834 13.4213 39.8988 13.9488 40.4262C14.4762 40.9537 15.1916 41.25 15.9375 41.25ZM21.5625 39.375H20.625V37.5H22.5V38.4375C22.5 38.6861 22.4012 38.9246 22.2254 39.1004C22.0496 39.2762 21.8111 39.375 21.5625 39.375ZM22.5 34.6875V35.625H20.625V33.75H21.5625C21.8111 33.75 22.0496 33.8488 22.2254 34.0246C22.4012 34.2004 22.5 34.4389 22.5 34.6875ZM15 34.6875C15 34.4389 15.0988 34.2004 15.2746 34.0246C15.4504 33.8488 15.6889 33.75 15.9375 33.75H18.75V39.375H15.9375C15.6889 39.375 15.4504 39.2762 15.2746 39.1004C15.0988 38.9246 15 38.6861 15 38.4375V34.6875Z" fill="#4F37FD"/>
</svg>
