<svg width="305" height="40" viewBox="0 0 305 40" fill="none" xmlns="http://www.w3.org/2000/svg">
<path d="M22.8099 4.13223C22.8099 0.826446 19.6694 0 17.1901 0V0.495868C18.6777 0.495868 19.8347 0.991736 19.8347 2.14876C19.8347 2.80992 19.3388 3.80165 17.8512 3.80165C16.6942 3.80165 14.2149 3.1405 12.3967 2.47934C10.2479 1.65289 8.26446 0.991736 6.61157 0.991736C3.30578 0.991736 0.991736 3.47107 0.991736 6.28099C0.991736 8.76033 2.80992 9.58678 3.47107 9.91735L3.63636 9.58678C3.30578 9.2562 2.80992 8.92562 2.80992 7.93388C2.80992 7.27273 3.47107 6.1157 5.12397 6.1157C6.61157 6.1157 8.59504 6.77686 11.2397 7.60331C13.5537 8.26446 16.0331 8.76033 17.3554 8.92562V14.0496L14.876 16.1983V16.3636L17.3554 18.5124V25.6198C16.0331 26.4463 14.5455 26.6116 13.2231 26.6116C10.7438 26.6116 8.59504 25.9504 6.77686 23.9669L13.5537 20.6612V9.2562L5.28926 12.8926C5.95041 10.7438 7.76859 9.2562 9.58678 8.26446L9.42149 7.76859C4.46281 9.09091 0 13.719 0 19.3388C0 25.9504 5.45455 30.9091 11.5702 30.9091C18.1818 30.9091 22.4793 25.6198 22.4793 20.1653H22.1488C21.157 22.314 19.6694 24.2975 17.8512 25.2893V18.5124L20.4959 16.3636V16.1983L17.8512 14.0496V8.92562C20.3306 8.92562 22.8099 7.27273 22.8099 4.13223ZM8.42975 22.314L6.44628 23.3058C5.28926 21.8182 4.6281 19.8347 4.6281 17.0248C4.6281 15.8678 4.6281 14.5455 4.95868 13.5537L8.42975 12.0661V22.314ZM25.9504 26.1157L23.8017 27.7686L24.1322 28.0992L25.124 27.2727L28.7603 30.5785L33.719 27.2727L33.5537 26.9421L32.2314 27.7686L30.5785 26.1157V14.876L31.9008 13.8843L34.7107 16.1983V26.281C34.7107 32.562 33.3884 33.5537 30.5785 34.5455V35.0413C35.2066 35.2066 39.5041 33.719 39.5041 25.6198V14.7107L40.9917 13.5537L40.6612 13.2231L39.3388 14.2149L35.2066 10.7438L30.5785 14.2149V0.661157H30.2479L24.4628 4.6281V4.95868C25.124 5.28926 26.1157 5.61983 26.1157 7.43802L25.9504 26.1157ZM56.1983 24.2975L52.0661 27.438L47.9339 24.1322V22.1488L55.7025 16.8595V16.6942L51.7355 10.7438L43.1405 15.3719V26.281L41.4876 27.6033L41.8182 27.9339L43.3058 26.7769L48.9256 30.9091L56.3636 24.9587L56.1983 24.2975ZM47.9339 21.4876V13.3884L48.2645 13.2231L51.9008 19.0083L47.9339 21.4876ZM87.7686 2.64463C87.7686 2.14876 87.6033 1.65289 87.438 1.15702H87.1074C86.6116 2.47934 85.9504 3.1405 84.2975 3.1405C82.8099 3.1405 81.8182 2.31405 81.157 1.65289L76.3636 7.10744L76.6942 7.43802L78.3471 5.95041C79.3388 6.77686 80.1653 7.43802 82.4793 7.60331V21.3223L72.7273 4.6281C71.9008 3.30578 70.7438 1.4876 68.4297 1.4876C65.7851 1.4876 63.4711 3.80165 63.8016 7.43802H64.2975C64.4628 6.44628 64.9587 5.28926 66.1157 5.28926C66.9421 5.28926 67.7686 6.1157 68.2645 6.94215V12.3967C65.2893 12.3967 63.3058 13.719 63.3058 16.1983C63.3058 17.5207 63.9669 19.5041 65.9504 20V19.6694C65.6198 19.3388 65.4545 19.0083 65.4545 18.5124C65.4545 17.686 66.1157 17.0248 67.2727 17.0248H68.0992V23.9669C64.6281 23.9669 61.8182 25.9504 61.8182 29.2562C61.8182 32.3967 64.4628 33.8843 67.438 33.719V33.3884C65.6198 33.2231 64.7934 32.3967 64.7934 31.2397C64.7934 29.7521 65.7851 29.0909 67.1074 29.0909C68.4297 29.0909 69.5868 29.9174 70.4132 30.9091L75.2066 25.6198L74.876 25.2893L73.719 26.6116C71.9008 24.9587 70.9091 24.4628 68.7603 24.1322V7.60331L81.9835 30.7438H82.9752V7.60331C85.4545 7.43802 87.7686 5.45455 87.7686 2.64463ZM99.8347 24.2975L95.7025 27.438L91.5702 24.1322V22.1488L99.3388 16.8595V16.6942L95.3719 10.7438L86.7769 15.3719V26.281L85.124 27.6033L85.4545 27.9339L86.9421 26.7769L92.562 30.9091L100 24.9587L99.8347 24.2975ZM91.5702 21.4876V13.3884L91.9008 13.2231L95.5372 19.0083L91.5702 21.4876ZM126.777 12.562L125.62 13.3884L122.479 10.7438L118.843 14.0496L120.331 15.5372V27.9339L116.364 25.4545V15.2066L117.686 14.3802L113.884 10.7438L110.248 14.0496L111.736 15.5372V27.438L111.24 27.7686L107.769 25.2893V15.3719C107.769 13.0579 106.612 12.3967 105.289 11.5702C104.132 10.7438 103.471 10.2479 103.471 9.09091C103.471 8.09917 104.463 7.60331 104.959 7.27273V6.94215C103.636 6.94215 100.165 8.26446 100.165 11.405C100.165 13.0579 100.992 13.719 101.818 14.5455C102.645 15.3719 103.471 16.0331 103.471 17.5207V27.1074L101.653 28.4298L101.983 28.7603L103.636 27.438L107.438 30.7438L111.57 27.9339L116.198 30.7438L124.959 25.6198V14.5455L127.107 12.8926L126.777 12.562ZM157.521 3.47107L155.868 4.95868L152.231 1.65289L146.777 5.61983V1.98347H146.281L146.446 28.7603C145.95 28.7603 144.463 28.4298 143.306 28.0992L142.975 5.78512C142.975 4.13223 141.818 1.81818 138.843 1.81818C135.868 1.81818 133.884 4.13223 133.884 6.44628H134.38C134.545 5.45455 135.041 4.6281 136.033 4.6281C137.025 4.6281 137.851 5.28926 137.851 7.43802V13.8843C134.876 14.0496 133.058 15.7025 133.058 17.8512C133.058 19.1736 133.719 21.157 135.702 21.157V20.8264C135.041 20.4959 134.876 20 134.876 19.6694C134.876 18.6777 135.702 18.3471 137.025 18.3471H137.686V28.595C135.207 29.4215 134.215 31.2397 134.215 33.2231C134.215 36.0331 136.364 38.0165 139.669 38.0165C141.983 38.0165 143.967 37.6859 145.95 37.1901C147.603 36.8595 149.752 36.3636 150.744 36.3636C152.066 36.3636 152.562 37.0248 152.562 37.8512C152.562 39.0083 152.066 39.5041 151.405 39.6694V40C154.05 39.5041 155.702 37.8512 155.702 35.3719C155.702 32.8926 153.223 31.405 150.579 31.405C149.256 31.405 146.446 31.9008 144.463 32.2314C142.149 32.7273 139.835 33.0578 139.174 33.0578C138.017 33.0578 136.694 32.562 136.694 30.9091C136.694 29.5868 137.851 28.4298 140.661 28.4298C142.149 28.4298 143.967 28.595 145.785 29.0909C147.769 29.5868 149.587 30.0826 151.24 30.0826C153.719 30.0826 155.868 29.2562 155.868 25.7851V5.45455L157.851 3.80165L157.521 3.47107ZM150.744 13.5537C150.248 14.0496 149.587 14.5455 148.76 14.5455C147.934 14.5455 147.107 14.0496 146.777 13.5537V6.28099L148.43 5.12397L150.744 7.27273V13.5537ZM150.744 18.5124C150.413 18.1818 149.587 17.686 148.76 17.686C147.934 17.686 147.107 18.1818 146.777 18.5124V14.2149C147.107 14.5455 147.934 15.0413 148.76 15.0413C149.587 15.0413 150.413 14.5455 150.744 14.2149V18.5124ZM150.744 26.281C150.744 27.6033 149.917 28.9256 148.099 28.9256H146.777V19.1736C147.107 18.843 147.934 18.3471 148.76 18.3471C149.587 18.3471 150.248 18.843 150.744 19.1736V26.281ZM173.388 14.5455L168.099 10.7438L160 15.3719V26.1157L158.347 27.438L158.512 27.7686L159.835 26.7769L165.124 30.7438L173.388 25.7851V14.5455ZM164.463 24.9587V13.0579L168.595 16.0331V27.7686L164.463 24.9587ZM189.091 11.0744H188.76C188.264 11.405 187.769 11.7355 187.273 11.7355C186.612 11.7355 185.785 11.405 185.455 10.9091H185.124L182.314 14.0496L179.504 10.9091L174.545 14.2149L174.711 14.5455L176.033 13.719L177.686 15.5372V25.9504L175.537 27.6033L175.868 27.9339L176.859 27.1074L180.826 30.4132L185.95 26.9421L185.785 26.6116L184.298 27.438L182.314 25.7851V14.2149C183.14 15.0413 184.132 15.8678 185.289 15.8678C187.603 16.0331 188.926 13.719 189.091 11.0744ZM208.926 26.9421L203.306 30.7438L195.702 19.1736L201.157 10.7438H201.488C202.149 11.405 203.14 12.0661 204.298 12.0661C205.455 12.0661 206.281 11.405 206.777 10.7438H207.107C206.942 14.0496 204.628 16.0331 202.975 16.0331C201.322 16.0331 200.496 15.2066 199.504 14.7107L199.008 15.5372L207.273 27.7686L208.926 26.7769V26.9421ZM190.744 26.1157L188.595 27.7686L188.926 28.0992L189.917 27.2727L193.554 30.5785L198.512 27.2727L198.182 26.9421L196.859 27.7686L195.207 26.1157V0.661157H195.041L189.091 4.6281V4.95868C189.752 5.28926 190.744 5.45455 190.744 7.43802V26.1157ZM236.364 4.13223C236.364 0.826446 233.223 0 230.744 0V0.495868C232.231 0.495868 233.388 0.991736 233.388 2.14876C233.388 2.80992 232.893 3.80165 231.405 3.80165C230.248 3.80165 227.769 3.1405 225.95 2.47934C223.802 1.81818 221.818 1.15702 220.165 1.15702C216.859 1.15702 214.545 3.63636 214.545 6.44628C214.545 8.92562 216.364 9.75207 217.025 10.0826L217.19 9.75207C216.694 9.42149 216.198 9.09091 216.198 8.09917C216.198 7.43802 216.859 6.28099 218.512 6.28099C220 6.28099 221.983 6.94215 224.628 7.76859C226.942 8.42975 229.421 8.92562 230.744 9.09091V14.2149L228.264 16.3636V16.5289L230.744 18.6777V25.7851C229.421 26.6116 227.934 26.7769 226.612 26.7769C224.132 26.7769 221.983 26.1157 220.165 24.1322L226.942 20.8264V9.2562L218.678 12.8926C219.504 10.7438 221.322 9.2562 222.975 8.09917L222.81 7.76859C217.851 9.09091 213.388 13.5537 213.388 19.1736C213.388 25.7851 218.843 30.7438 224.959 30.7438C231.57 30.7438 235.868 25.4545 235.868 20H235.537C234.545 22.1488 233.058 24.1322 231.24 25.124V18.3471L233.884 16.1983V16.0331L231.405 13.8843V8.92562C233.884 8.92562 236.364 7.27273 236.364 4.13223ZM221.983 22.314L220 23.3058C218.843 21.8182 218.182 19.8347 218.182 17.0248C218.182 15.8678 218.347 14.5455 218.678 13.5537L222.149 12.0661L221.983 22.314ZM242.149 2.47934H241.983L238.678 5.28926V5.45455L241.488 8.59504H241.818L245.124 5.78512V5.61983L242.149 2.47934ZM247.107 26.9421L245.785 27.7686L244.132 26.1157V14.7107L245.785 13.5537L245.455 13.2231L244.298 14.2149L241.322 10.7438L236.529 14.0496L236.859 14.5455L238.017 13.719L239.504 15.5372V26.281L237.355 27.9339L237.521 28.2645L238.678 27.438L242.314 30.7438L247.273 27.438L247.107 26.9421ZM274.711 26.7769L273.554 27.6033L271.736 25.9504V14.7107L273.388 13.3884L273.058 13.0579L271.736 14.2149L267.934 10.7438L262.975 14.2149L259.174 10.7438L254.545 14.2149L251.57 10.7438L246.777 14.0496L246.942 14.5455L248.099 13.719L249.752 15.5372V26.281L248.43 27.6033L252.231 30.7438L255.868 27.438L254.38 25.9504V14.7107L255.868 13.719L258.347 16.0331V25.9504L257.025 27.2727L260.826 30.4132L264.463 27.1074L262.975 25.6198V14.7107L264.297 13.8843L266.942 16.1983V26.1157L265.785 27.2727L269.587 30.7438L274.711 27.2727V26.7769ZM289.091 24.2975L284.959 27.438L280.826 24.1322V22.1488L288.595 16.8595V16.6942L284.628 10.7438L276.033 15.3719V26.6116L281.818 30.7438L289.256 24.7934L289.091 24.2975ZM280.826 21.4876V13.3884L281.157 13.2231L284.793 19.0083L280.826 21.4876ZM304.132 20L300.992 17.5207C303.141 15.7025 303.967 13.2231 303.967 11.5702V10.5785H303.636C303.306 11.405 302.645 12.2314 301.322 12.2314C300 12.2314 299.174 11.5702 298.347 10.5785L290.909 14.7107V20.6612L293.719 22.8099C290.909 25.2893 290.413 26.9421 290.413 28.2645C290.413 29.9174 291.24 31.0744 292.562 31.5702L292.727 31.2397C292.397 30.9091 292.066 30.7438 292.066 29.9174C292.066 29.4215 292.727 28.595 294.05 28.595C295.702 28.595 296.694 29.7521 297.19 30.2479L304.298 25.9504V20H304.132ZM302.314 15.0413C301.157 17.0248 298.678 19.0083 297.19 20L295.372 18.5124V12.7273C296.033 14.3802 297.851 15.7025 299.669 15.7025C300.826 15.7025 301.488 15.5372 302.314 15.0413ZM299.504 28.2645C298.678 26.4463 296.694 25.124 294.711 25.124C294.215 25.124 292.893 25.124 291.57 25.9504C292.397 24.6281 294.545 22.314 297.355 20.6612L299.339 22.314L299.504 28.2645Z" fill="#1C1E4F"/>
</svg>
