<svg width="145" height="35" viewBox="0 0 145 35" fill="none" xmlns="http://www.w3.org/2000/svg">
<g clip-path="url(#clip0)">
<path fill-rule="evenodd" clip-rule="evenodd" d="M12.6188 8.23828H22.4907C27.791 8.23828 29.7863 10.9216 29.4779 14.8637C28.9683 21.3744 25.0338 24.9725 19.815 24.9725H17.1674C16.4514 24.9725 15.9697 25.4465 15.7761 26.7308L14.6574 34.1971C14.5835 34.6813 14.3287 34.9616 13.9464 35.0024H7.74403C7.16049 35.0024 6.95408 34.5564 7.10443 33.5907L10.886 9.6551C11.0364 8.69441 11.5613 8.23828 12.6188 8.23828Z" fill="#1C1E4F"/>
<path fill-rule="evenodd" clip-rule="evenodd" d="M55.4649 7.79492C58.7954 7.79492 61.8686 9.60162 61.4481 14.1069C60.9385 19.4582 58.0717 22.4192 53.5486 22.432H49.5988C49.0306 22.432 48.7554 22.8932 48.6076 23.8462L47.8431 28.7057C47.7284 29.4396 47.3513 29.804 46.7932 29.804H43.1161C42.53 29.804 42.3262 29.4269 42.4561 28.5911L45.4911 9.10981C45.6414 8.15168 46.0007 7.79492 46.6556 7.79492H55.4649ZM49.474 18.2223H52.4681C54.3411 18.1509 55.5872 16.8539 55.712 14.5146C55.7885 13.0698 54.8125 12.0352 53.2606 12.0428L50.4397 12.0556L49.474 18.2197V18.2223ZM71.4423 28.3082C71.7786 28.005 72.1201 27.8444 72.0717 28.2216L71.9519 29.1236C71.8908 29.5951 72.0768 29.8473 72.5176 29.8473H75.7819C76.3323 29.8473 76.5999 29.6231 76.7375 28.7745L78.7506 16.1378C78.85 15.5033 78.6971 15.1924 78.2155 15.1924H74.6225C74.2989 15.1924 74.1434 15.3759 74.0568 15.8703L73.9243 16.6475C73.8555 17.0527 73.6694 17.124 73.4962 16.7137C72.8871 15.2714 71.3327 14.6242 69.1642 14.6752C64.1238 14.7771 60.727 18.602 60.3651 23.5073C60.0823 27.2991 62.8012 30.278 66.384 30.278C68.9807 30.278 70.1452 29.5135 71.4525 28.3133L71.4423 28.3082ZM68.708 26.3639C66.5395 26.3639 65.0284 24.6337 65.3444 22.5135C65.6603 20.3934 67.6862 18.6631 69.8547 18.6631C72.0233 18.6631 73.5344 20.3908 73.221 22.5135C72.9075 24.6362 70.8791 26.3639 68.708 26.3639ZM85.1467 15.1517H81.8467C81.1613 15.1517 80.8835 15.6613 81.1026 16.2882L85.2155 28.3337L81.1663 34.0621C80.83 34.5386 81.0899 34.9769 81.5664 34.9769H85.2894C85.5067 35.0019 85.7266 34.964 85.9231 34.8678C86.1196 34.7716 86.2843 34.6211 86.3979 34.4342L99.0448 16.2882C99.4346 15.7301 99.2512 15.1466 98.6116 15.144H95.0873C94.4834 15.144 94.2413 15.381 93.8948 15.8856L88.6174 23.5303L86.2628 15.8703C86.1252 15.4065 85.7812 15.1517 85.1467 15.1517Z" fill="#1C1E4F"/>
<path fill-rule="evenodd" clip-rule="evenodd" d="M112.204 7.79492C115.537 7.79492 118.61 9.60162 118.187 14.1069C117.69 19.4582 114.811 22.4192 110.288 22.432H106.338C105.77 22.432 105.494 22.8932 105.347 23.8462L104.582 28.7057C104.465 29.4396 104.09 29.804 103.532 29.804H99.8576C99.2715 29.804 99.0677 29.4269 99.1976 28.5911L102.238 9.10981C102.385 8.15168 102.747 7.79492 103.402 7.79492H112.204ZM106.215 18.2223H109.21C111.083 18.1509 112.329 16.8539 112.454 14.5146C112.53 13.0698 111.554 12.0352 110 12.0428L107.181 12.0556L106.215 18.2197V18.2223ZM128.184 28.3082C128.52 28.005 128.862 27.8444 128.813 28.2216L128.693 29.1236C128.63 29.5951 128.818 29.8473 129.257 29.8473H132.523C133.074 29.8473 133.341 29.6231 133.476 28.7745L135.49 16.1378C135.592 15.5033 135.439 15.1924 134.954 15.1924H131.367C131.043 15.1924 130.885 15.3759 130.801 15.8703L130.668 16.6475C130.6 17.0527 130.414 17.124 130.24 16.7137C129.631 15.2714 128.077 14.6242 125.895 14.6752C120.858 14.7771 117.461 18.602 117.096 23.5073C116.816 27.2991 119.535 30.278 123.115 30.278C125.715 30.278 126.877 29.5135 128.186 28.3133L128.184 28.3082ZM125.45 26.3639C123.281 26.3639 121.77 24.6337 122.086 22.5135C122.402 20.3934 124.428 18.6631 126.596 18.6631C128.765 18.6631 130.276 20.3908 129.96 22.5135C129.644 24.6362 127.618 26.3639 125.45 26.3639ZM140.517 29.8652H136.748C136.681 29.8689 136.614 29.8574 136.552 29.8315C136.49 29.8057 136.435 29.7662 136.39 29.716C136.346 29.6658 136.313 29.6061 136.295 29.5415C136.276 29.4769 136.273 29.4089 136.285 29.3428L139.597 8.35553C139.629 8.21251 139.709 8.08445 139.822 7.99199C139.936 7.89953 140.078 7.84806 140.224 7.84588H143.996C144.061 7.84248 144.127 7.85376 144.188 7.87889C144.249 7.90401 144.303 7.94237 144.347 7.99116C144.391 8.03996 144.424 8.09797 144.443 8.161C144.462 8.22402 144.467 8.29047 144.457 8.35553L141.144 29.3428C141.116 29.4893 141.038 29.6217 140.924 29.7178C140.81 29.8138 140.666 29.8677 140.517 29.8703V29.8652Z" fill="#1C1E4F"/>
<path fill-rule="evenodd" clip-rule="evenodd" d="M6.43199 0H16.3166C19.0993 0 22.3992 0.0917365 24.6085 2.03859C26.084 3.34073 26.8586 5.41245 26.6803 7.6447C26.0738 15.19 21.5583 19.4175 15.5062 19.4175H10.6315C9.8033 19.4175 9.25288 19.9654 9.01844 21.4561L7.65769 30.1074C7.57105 30.668 7.32641 30.9993 6.89322 31.04H0.795292C0.12001 31.04 -0.119526 30.5304 0.0563021 29.4041L4.43926 1.64616C4.61509 0.53003 5.22922 0 6.43199 0Z" fill="#1C1E4F"/>
<path fill-rule="evenodd" clip-rule="evenodd" d="M9.16089 20.5768L10.886 9.6551C11.0364 8.69441 11.5613 8.23828 12.6061 8.23828H22.478C24.1114 8.23828 25.4339 8.49311 26.4685 8.96453C25.4747 15.6791 21.1325 19.4123 15.4423 19.4123H10.5803C9.92791 19.4123 9.44884 19.7385 9.16089 20.5768Z" fill="#1C1E4F"/>
</g>
<defs>
<clipPath id="clip0">
<rect width="144.467" height="35" fill="white"/>
</clipPath>
</defs>
</svg>
