<svg width="37" height="34" viewBox="0 0 37 34" fill="none" xmlns="http://www.w3.org/2000/svg">
<path d="M28.006 33.9999C27.6535 33.999 27.3021 33.9619 26.9578 33.8892C20.4028 32.5875 14.3639 29.5353 9.53609 25.0841C4.81135 20.623 1.53449 14.9431 0.101977 8.7316C-0.0669338 7.95746 -0.0254763 7.15461 0.222361 6.4003C0.470199 5.646 0.916076 4.96561 1.51709 4.42461L5.71003 0.550332C5.92419 0.355901 6.17866 0.20701 6.45681 0.113376C6.73497 0.0197423 7.03057 -0.0165299 7.32432 0.00692705C7.62889 0.0374311 7.92282 0.131622 8.18541 0.282875C8.448 0.434128 8.67289 0.638771 8.84426 0.882413L14.0854 8.31901C14.282 8.60756 14.3769 8.94906 14.3561 9.29325C14.3353 9.63744 14.2 9.96614 13.9701 10.231L11.3391 13.2499C12.3869 15.4763 13.8709 17.4885 15.7102 19.177C17.5376 20.9268 19.6975 22.324 22.073 23.2928L25.333 20.8073C25.6068 20.5995 25.94 20.4767 26.2882 20.4551C26.6365 20.4336 26.9834 20.5143 27.2827 20.6865L35.1969 25.5973C35.4685 25.7529 35.6998 25.9656 35.8737 26.2193C36.0475 26.473 36.1593 26.7612 36.2006 27.0622C36.242 27.3633 36.2118 27.6694 36.1124 27.9577C36.013 28.246 35.8469 28.509 35.6267 28.7269L31.5385 32.6112C31.0742 33.0548 30.523 33.4059 29.9167 33.6442C29.3105 33.8826 28.6611 34.0034 28.006 33.9999ZM7.1566 1.99941L2.96366 5.87369C2.62555 6.17613 2.37527 6.55785 2.23743 6.98131C2.09958 7.40477 2.07892 7.85538 2.17748 8.28882C3.5095 14.1175 6.57139 19.4511 10.9931 23.645C15.5364 27.8328 21.2193 30.7037 27.3875 31.9269C27.8544 32.0206 28.3382 32.0017 28.7956 31.8717C29.253 31.7417 29.6696 31.5048 30.0081 31.1823L34.0962 27.2979L26.4546 22.5582L22.9535 25.235C22.8195 25.3368 22.6615 25.4057 22.4934 25.4355C22.3253 25.4653 22.1522 25.4552 21.9891 25.4061C19.0821 24.3778 16.4476 22.7456 14.2741 20.6261C12.026 18.6107 10.281 16.134 9.16921 13.3807C9.12217 13.214 9.12061 13.0386 9.16467 12.8711C9.20873 12.7037 9.29693 12.55 9.42078 12.4247L12.251 9.17437L7.1566 1.99941Z" fill="#4F37FD"/>
</svg>
