<svg width="178" height="178" viewBox="0 0 178 178" fill="none" xmlns="http://www.w3.org/2000/svg">
<path d="M175 78C173.343 78 172 79.3431 172 81C172 82.6569 173.343 84 175 84C176.657 84 178 82.6569 178 81C178 79.3431 176.657 78 175 78Z" fill="white" fill-opacity="0.8"/>
<path d="M137 78C135.343 78 134 79.3431 134 81C134 82.6569 135.343 84 137 84C138.657 84 140 82.6569 140 81C140 79.3431 138.657 78 137 78Z" fill="white" fill-opacity="0.8"/>
<path d="M175 58C173.343 58 172 59.3431 172 61C172 62.6569 173.343 64 175 64C176.657 64 178 62.6569 178 61C178 59.3431 176.657 58 175 58Z" fill="white" fill-opacity="0.8"/>
<path d="M137 58C135.343 58 134 59.3431 134 61C134 62.6569 135.343 64 137 64C138.657 64 140 62.6569 140 61C140 59.3431 138.657 58 137 58Z" fill="white" fill-opacity="0.8"/>
<path d="M175 38C173.343 38 172 39.3431 172 41C172 42.6569 173.343 44 175 44C176.657 44 178 42.6569 178 41C178 39.3431 176.657 38 175 38Z" fill="white" fill-opacity="0.8"/>
<path d="M137 38C135.343 38 134 39.3431 134 41C134 42.6569 135.343 44 137 44C138.657 44 140 42.6569 140 41C140 39.3431 138.657 38 137 38Z" fill="white" fill-opacity="0.8"/>
<path d="M175 19C173.343 19 172 20.3431 172 22C172 23.6569 173.343 25 175 25C176.657 25 178 23.6569 178 22C178 20.3431 176.657 19 175 19Z" fill="white" fill-opacity="0.8"/>
<path d="M156 78C154.343 78 153 79.3431 153 81C153 82.6569 154.343 84 156 84C157.657 84 159 82.6569 159 81C159 79.3431 157.657 78 156 78Z" fill="white" fill-opacity="0.8"/>
<path d="M118 78C116.343 78 115 79.3431 115 81C115 82.6569 116.343 84 118 84C119.657 84 121 82.6569 121 81C121 79.3431 119.657 78 118 78Z" fill="white" fill-opacity="0.8"/>
<path d="M99 78C97.3431 78 96 79.3431 96 81C96 82.6569 97.3431 84 99 84C100.657 84 102 82.6569 102 81C102 79.3431 100.657 78 99 78Z" fill="white" fill-opacity="0.8"/>
<path d="M156 58C154.343 58 153 59.3431 153 61C153 62.6569 154.343 64 156 64C157.657 64 159 62.6569 159 61C159 59.3431 157.657 58 156 58Z" fill="white" fill-opacity="0.8"/>
<path d="M118 58C116.343 58 115 59.3431 115 61C115 62.6569 116.343 64 118 64C119.657 64 121 62.6569 121 61C121 59.3431 119.657 58 118 58Z" fill="white" fill-opacity="0.8"/>
<path d="M156 38C154.343 38 153 39.3431 153 41C153 42.6569 154.343 44 156 44C157.657 44 159 42.6569 159 41C159 39.3431 157.657 38 156 38Z" fill="white" fill-opacity="0.8"/>
<path d="M156 19C154.343 19 153 20.3431 153 22C153 23.6569 154.343 25 156 25C157.657 25 159 23.6569 159 22C159 20.3431 157.657 19 156 19Z" fill="white" fill-opacity="0.8"/>
<path d="M175 -2.62268e-07C173.343 -4.07115e-07 172 1.34315 172 3C172 4.65685 173.343 6 175 6C176.657 6 178 4.65685 178 3C178 1.34315 176.657 -1.17422e-07 175 -2.62268e-07Z" fill="white" fill-opacity="0.8"/>
<path d="M175 172C173.343 172 172 173.343 172 175C172 176.657 173.343 178 175 178C176.657 178 178 176.657 178 175C178 173.343 176.657 172 175 172Z" fill="white" fill-opacity="0.8"/>
<path d="M137 172C135.343 172 134 173.343 134 175C134 176.657 135.343 178 137 178C138.657 178 140 176.657 140 175C140 173.343 138.657 172 137 172Z" fill="white" fill-opacity="0.8"/>
<path d="M175 152C173.343 152 172 153.343 172 155C172 156.657 173.343 158 175 158C176.657 158 178 156.657 178 155C178 153.343 176.657 152 175 152Z" fill="white" fill-opacity="0.8"/>
<path d="M137 152C135.343 152 134 153.343 134 155C134 156.657 135.343 158 137 158C138.657 158 140 156.657 140 155C140 153.343 138.657 152 137 152Z" fill="white" fill-opacity="0.8"/>
<path d="M175 132C173.343 132 172 133.343 172 135C172 136.657 173.343 138 175 138C176.657 138 178 136.657 178 135C178 133.343 176.657 132 175 132Z" fill="white" fill-opacity="0.8"/>
<path d="M137 132C135.343 132 134 133.343 134 135C134 136.657 135.343 138 137 138C138.657 138 140 136.657 140 135C140 133.343 138.657 132 137 132Z" fill="white" fill-opacity="0.8"/>
<path d="M175 113C173.343 113 172 114.343 172 116C172 117.657 173.343 119 175 119C176.657 119 178 117.657 178 116C178 114.343 176.657 113 175 113Z" fill="white" fill-opacity="0.8"/>
<path d="M137 113C135.343 113 134 114.343 134 116C134 117.657 135.343 119 137 119C138.657 119 140 117.657 140 116C140 114.343 138.657 113 137 113Z" fill="white" fill-opacity="0.8"/>
<path d="M156 172C154.343 172 153 173.343 153 175C153 176.657 154.343 178 156 178C157.657 178 159 176.657 159 175C159 173.343 157.657 172 156 172Z" fill="white" fill-opacity="0.8"/>
<path d="M118 172C116.343 172 115 173.343 115 175C115 176.657 116.343 178 118 178C119.657 178 121 176.657 121 175C121 173.343 119.657 172 118 172Z" fill="white" fill-opacity="0.8"/>
<path d="M99 172C97.3431 172 96 173.343 96 175C96 176.657 97.3431 178 99 178C100.657 178 102 176.657 102 175C102 173.343 100.657 172 99 172Z" fill="white" fill-opacity="0.8"/>
<path d="M156 152C154.343 152 153 153.343 153 155C153 156.657 154.343 158 156 158C157.657 158 159 156.657 159 155C159 153.343 157.657 152 156 152Z" fill="white" fill-opacity="0.8"/>
<path d="M118 152C116.343 152 115 153.343 115 155C115 156.657 116.343 158 118 158C119.657 158 121 156.657 121 155C121 153.343 119.657 152 118 152Z" fill="white" fill-opacity="0.8"/>
<path d="M99 152C97.3431 152 96 153.343 96 155C96 156.657 97.3431 158 99 158C100.657 158 102 156.657 102 155C102 153.343 100.657 152 99 152Z" fill="white" fill-opacity="0.8"/>
<path d="M156 132C154.343 132 153 133.343 153 135C153 136.657 154.343 138 156 138C157.657 138 159 136.657 159 135C159 133.343 157.657 132 156 132Z" fill="white" fill-opacity="0.8"/>
<path d="M118 132C116.343 132 115 133.343 115 135C115 136.657 116.343 138 118 138C119.657 138 121 136.657 121 135C121 133.343 119.657 132 118 132Z" fill="white" fill-opacity="0.8"/>
<path d="M99 132C97.3431 132 96 133.343 96 135C96 136.657 97.3431 138 99 138C100.657 138 102 136.657 102 135C102 133.343 100.657 132 99 132Z" fill="white" fill-opacity="0.8"/>
<path d="M156 113C154.343 113 153 114.343 153 116C153 117.657 154.343 119 156 119C157.657 119 159 117.657 159 116C159 114.343 157.657 113 156 113Z" fill="white" fill-opacity="0.8"/>
<path d="M118 113C116.343 113 115 114.343 115 116C115 117.657 116.343 119 118 119C119.657 119 121 117.657 121 116C121 114.343 119.657 113 118 113Z" fill="white" fill-opacity="0.8"/>
<path d="M99 113C97.3431 113 96 114.343 96 116C96 117.657 97.3431 119 99 119C100.657 119 102 117.657 102 116C102 114.343 100.657 113 99 113Z" fill="white" fill-opacity="0.8"/>
<path d="M175 94C173.343 94 172 95.3431 172 97C172 98.6569 173.343 100 175 100C176.657 100 178 98.6569 178 97C178 95.3431 176.657 94 175 94Z" fill="white" fill-opacity="0.8"/>
<path d="M137 94C135.343 94 134 95.3431 134 97C134 98.6569 135.343 100 137 100C138.657 100 140 98.6569 140 97C140 95.3431 138.657 94 137 94Z" fill="white" fill-opacity="0.8"/>
<path d="M156 94C154.343 94 153 95.3431 153 97C153 98.6569 154.343 100 156 100C157.657 100 159 98.6569 159 97C159 95.3431 157.657 94 156 94Z" fill="white" fill-opacity="0.8"/>
<path d="M118 94C116.343 94 115 95.3431 115 97C115 98.6569 116.343 100 118 100C119.657 100 121 98.6569 121 97C121 95.3431 119.657 94 118 94Z" fill="white" fill-opacity="0.8"/>
<path d="M99 94C97.3431 94 96 95.3431 96 97C96 98.6569 97.3431 100 99 100C100.657 100 102 98.6569 102 97C102 95.3431 100.657 94 99 94Z" fill="white" fill-opacity="0.8"/>
<path d="M79 172C77.3431 172 76 173.343 76 175C76 176.657 77.3431 178 79 178C80.6569 178 82 176.657 82 175C82 173.343 80.6569 172 79 172Z" fill="white" fill-opacity="0.8"/>
<path d="M41 172C39.3431 172 38 173.343 38 175C38 176.657 39.3431 178 41 178C42.6569 178 44 176.657 44 175C44 173.343 42.6569 172 41 172Z" fill="white" fill-opacity="0.8"/>
<path d="M79 152C77.3431 152 76 153.343 76 155C76 156.657 77.3431 158 79 158C80.6569 158 82 156.657 82 155C82 153.343 80.6569 152 79 152Z" fill="white" fill-opacity="0.8"/>
<path d="M41 152C39.3431 152 38 153.343 38 155C38 156.657 39.3431 158 41 158C42.6569 158 44 156.657 44 155C44 153.343 42.6569 152 41 152Z" fill="white" fill-opacity="0.8"/>
<path d="M79 132C77.3431 132 76 133.343 76 135C76 136.657 77.3431 138 79 138C80.6569 138 82 136.657 82 135C82 133.343 80.6569 132 79 132Z" fill="white" fill-opacity="0.8"/>
<path d="M41 132C39.3431 132 38 133.343 38 135C38 136.657 39.3431 138 41 138C42.6569 138 44 136.657 44 135C44 133.343 42.6569 132 41 132Z" fill="white" fill-opacity="0.8"/>
<path d="M79 113C77.3431 113 76 114.343 76 116C76 117.657 77.3431 119 79 119C80.6569 119 82 117.657 82 116C82 114.343 80.6569 113 79 113Z" fill="white" fill-opacity="0.8"/>
<path d="M60 172C58.3431 172 57 173.343 57 175C57 176.657 58.3431 178 60 178C61.6569 178 63 176.657 63 175C63 173.343 61.6569 172 60 172Z" fill="white" fill-opacity="0.8"/>
<path d="M22 172C20.3431 172 19 173.343 19 175C19 176.657 20.3431 178 22 178C23.6569 178 25 176.657 25 175C25 173.343 23.6569 172 22 172Z" fill="white" fill-opacity="0.8"/>
<path d="M3 172C1.34315 172 4.62788e-07 173.343 2.98133e-07 175C1.33479e-07 176.657 1.34315 178 3 178C4.65685 178 6 176.657 6 175C6 173.343 4.65685 172 3 172Z" fill="white" fill-opacity="0.8"/>
<path d="M60 152C58.3431 152 57 153.343 57 155C57 156.657 58.3431 158 60 158C61.6569 158 63 156.657 63 155C63 153.343 61.6569 152 60 152Z" fill="white" fill-opacity="0.8"/>
<path d="M22 152C20.3431 152 19 153.343 19 155C19 156.657 20.3431 158 22 158C23.6569 158 25 156.657 25 155C25 153.343 23.6569 152 22 152Z" fill="white" fill-opacity="0.8"/>
<path d="M60 132C58.3431 132 57 133.343 57 135C57 136.657 58.3431 138 60 138C61.6569 138 63 136.657 63 135C63 133.343 61.6569 132 60 132Z" fill="white" fill-opacity="0.8"/>
<path d="M60 113C58.3431 113 57 114.343 57 116C57 117.657 58.3431 119 60 119C61.6569 119 63 117.657 63 116C63 114.343 61.6569 113 60 113Z" fill="white" fill-opacity="0.8"/>
<path d="M79 94C77.3431 94 76 95.3431 76 97C76 98.6569 77.3431 100 79 100C80.6569 100 82 98.6569 82 97C82 95.3431 80.6569 94 79 94Z" fill="white" fill-opacity="0.8"/>
</svg>
