<svg width="60" height="60" viewBox="0 0 60 60" fill="none" xmlns="http://www.w3.org/2000/svg">
<path d="M20.5219 51.6562L30 57.1875L39.4781 51.6562C43.4411 49.3461 46.7291 46.0372 49.014 42.0595C51.2989 38.0819 52.5009 33.5747 52.5 28.9875V10.3125L30 2.8125L7.5 10.3125V28.9875C7.4991 33.5747 8.70107 38.0819 10.986 42.0595C13.2709 46.0372 16.5589 49.3461 20.5219 51.6562ZM11.25 13.0125L30 6.76875L48.75 13.0125V28.9875C48.7419 32.9186 47.7075 36.7795 45.7492 40.1881C43.7908 43.5967 40.9764 46.4349 37.5844 48.4219L30 52.8469L22.4156 48.4219C19.0236 46.4349 16.2092 43.5967 14.2508 40.1881C12.2925 36.7795 11.2581 32.9186 11.25 28.9875V13.0125Z" fill="#F8F9FF"/>
<path d="M37.5 25.3125H22.5C22.0027 25.3125 21.5258 25.51 21.1742 25.8617C20.8225 26.2133 20.625 26.6902 20.625 27.1875V40.3125C20.625 40.8098 20.8225 41.2867 21.1742 41.6383C21.5258 41.99 22.0027 42.1875 22.5 42.1875H37.5C37.9973 42.1875 38.4742 41.99 38.8258 41.6383C39.1775 41.2867 39.375 40.8098 39.375 40.3125V27.1875C39.375 26.6902 39.1775 26.2133 38.8258 25.8617C38.4742 25.51 37.9973 25.3125 37.5 25.3125Z" fill="#F8F9FF"/>
<path d="M27.1875 19.6875C27.1875 18.9416 27.4838 18.2262 28.0113 17.6988C28.5387 17.1713 29.2541 16.875 30 16.875C30.7459 16.875 31.4613 17.1713 31.9887 17.6988C32.5162 18.2262 32.8125 18.9416 32.8125 19.6875V25.3125H35.625V19.6875C35.625 18.1957 35.0324 16.7649 33.9775 15.71C32.9226 14.6551 31.4918 14.0625 30 14.0625C28.5082 14.0625 27.0774 14.6551 26.0225 15.71C24.9676 16.7649 24.375 18.1957 24.375 19.6875V25.3125H27.1875V19.6875Z" fill="#F8F9FF"/>
<path d="M30 58.1252C29.8353 58.1246 29.6736 58.0807 29.5312 57.9977L20.0531 52.4665C15.954 50.0673 12.5528 46.6388 10.1865 42.5206C7.82019 38.4024 6.57094 33.7374 6.5625 28.9877V10.3127C6.56245 10.1159 6.62436 9.92402 6.73946 9.76433C6.85456 9.60465 7.01699 9.48524 7.20375 9.42304L29.7038 1.92304C29.8961 1.85899 30.1039 1.85899 30.2963 1.92304L52.7963 9.42304C52.983 9.48524 53.1454 9.60465 53.2605 9.76433C53.3756 9.92402 53.4375 10.1159 53.4375 10.3127V28.9877C53.4294 33.7371 52.1807 38.402 49.8149 42.5202C47.4491 46.6384 44.0484 50.067 39.9497 52.4665L30.4688 57.9977C30.3264 58.0807 30.1647 58.1246 30 58.1252ZM8.4375 10.9887V28.9887C8.44498 33.4102 9.60756 37.753 11.8101 41.5869C14.0126 45.4208 17.1786 48.6128 20.9944 50.8465L30 56.1021L39.0056 50.8465C42.8216 48.6127 45.9877 45.4206 48.1902 41.5865C50.3927 37.7524 51.5552 33.4094 51.5625 28.9877V10.9877L30 3.80085L8.4375 10.9887Z" fill="#4F37FD"/>
<path d="M30 53.7849C29.8353 53.7843 29.6736 53.7403 29.5312 53.6574L21.9469 49.2324C18.4134 47.1625 15.4814 44.206 13.4409 40.6555C11.4004 37.1049 10.322 33.0832 10.3125 28.988V13.013C10.3125 12.8162 10.3744 12.6243 10.4895 12.4646C10.6046 12.3049 10.767 12.1855 10.9538 12.1233L29.7038 5.87958C29.8961 5.81553 30.1039 5.81553 30.2963 5.87958L49.0463 12.1233C49.233 12.1855 49.3954 12.3049 49.5105 12.4646C49.6256 12.6243 49.6875 12.8162 49.6875 13.013V28.988C49.6784 33.0828 48.6006 37.1043 46.5608 40.6548C44.5209 44.2054 41.5897 47.162 38.0569 49.2324L30.4725 53.6574C30.3291 53.741 30.166 53.785 30 53.7849ZM12.1875 13.688V28.988C12.196 32.7552 13.1876 36.4549 15.0644 39.7213C16.9411 42.9878 19.6379 45.7078 22.8881 47.6124L30 51.7618L37.1119 47.6124C40.3621 45.7078 43.0589 42.9878 44.9356 39.7213C46.8124 36.4549 47.804 32.7552 47.8125 28.988V13.688L30 7.75739L12.1875 13.688Z" fill="#4F37FD"/>
<path d="M30 30.9375C30.2486 30.9375 30.4871 31.0363 30.6629 31.2121C30.8387 31.3879 30.9375 31.6264 30.9375 31.875C30.9375 32.1236 31.0363 32.3621 31.2121 32.5379C31.3879 32.7137 31.6264 32.8125 31.875 32.8125C32.1236 32.8125 32.3621 32.7137 32.5379 32.5379C32.7137 32.3621 32.8125 32.1236 32.8125 31.875C32.8101 31.2954 32.6287 30.7307 32.293 30.2581C31.9574 29.7855 31.484 29.4282 30.9375 29.235V28.125C30.9375 27.8764 30.8387 27.6379 30.6629 27.4621C30.4871 27.2863 30.2486 27.1875 30 27.1875C29.7514 27.1875 29.5129 27.2863 29.3371 27.4621C29.1613 27.6379 29.0625 27.8764 29.0625 28.125V29.235C28.4375 29.4551 27.9106 29.8894 27.575 30.4608C27.2395 31.0322 27.117 31.704 27.2293 32.357C27.3416 33.0101 27.6814 33.6024 28.1885 34.0289C28.6956 34.4555 29.3374 34.6888 30 34.6875C30.1854 34.6875 30.3667 34.7425 30.5208 34.8455C30.675 34.9485 30.7952 35.0949 30.8661 35.2662C30.9371 35.4375 30.9557 35.626 30.9195 35.8079C30.8833 35.9898 30.794 36.1568 30.6629 36.2879C30.5318 36.419 30.3648 36.5083 30.1829 36.5445C30.001 36.5807 29.8125 36.5621 29.6412 36.4911C29.4699 36.4202 29.3235 36.3 29.2205 36.1458C29.1175 35.9917 29.0625 35.8104 29.0625 35.625C29.0625 35.3764 28.9637 35.1379 28.7879 34.9621C28.6121 34.7863 28.3736 34.6875 28.125 34.6875C27.8764 34.6875 27.6379 34.7863 27.4621 34.9621C27.2863 35.1379 27.1875 35.3764 27.1875 35.625C27.1899 36.2046 27.3713 36.7693 27.707 37.2419C28.0426 37.7145 28.516 38.0718 29.0625 38.265V39.375C29.0625 39.6236 29.1613 39.8621 29.3371 40.0379C29.5129 40.2137 29.7514 40.3125 30 40.3125C30.2486 40.3125 30.4871 40.2137 30.6629 40.0379C30.8387 39.8621 30.9375 39.6236 30.9375 39.375V38.265C31.5625 38.0449 32.0894 37.6106 32.425 37.0392C32.7605 36.4678 32.883 35.796 32.7707 35.143C32.6584 34.4899 32.3186 33.8976 31.8115 33.4711C31.3044 33.0445 30.6626 32.8112 30 32.8125C29.7514 32.8125 29.5129 32.7137 29.3371 32.5379C29.1613 32.3621 29.0625 32.1236 29.0625 31.875C29.0625 31.6264 29.1613 31.3879 29.3371 31.2121C29.5129 31.0363 29.7514 30.9375 30 30.9375Z" fill="#4F37FD"/>
<path d="M37.5 24.375H36.5625V19.6875C36.5625 17.947 35.8711 16.2778 34.6404 15.0471C33.4097 13.8164 31.7405 13.125 30 13.125C28.2595 13.125 26.5903 13.8164 25.3596 15.0471C24.1289 16.2778 23.4375 17.947 23.4375 19.6875V24.375H22.5C21.7541 24.375 21.0387 24.6713 20.5113 25.1988C19.9838 25.7262 19.6875 26.4416 19.6875 27.1875V40.3125C19.6875 41.0584 19.9838 41.7738 20.5113 42.3012C21.0387 42.8287 21.7541 43.125 22.5 43.125H37.5C38.2459 43.125 38.9613 42.8287 39.4887 42.3012C40.0162 41.7738 40.3125 41.0584 40.3125 40.3125V27.1875C40.3125 26.4416 40.0162 25.7262 39.4887 25.1988C38.9613 24.6713 38.2459 24.375 37.5 24.375ZM25.3125 19.6875C25.3125 18.4443 25.8064 17.252 26.6854 16.3729C27.5645 15.4939 28.7568 15 30 15C31.2432 15 32.4355 15.4939 33.3146 16.3729C34.1936 17.252 34.6875 18.4443 34.6875 19.6875V24.375H33.75V19.6875C33.75 18.6929 33.3549 17.7391 32.6516 17.0359C31.9484 16.3326 30.9946 15.9375 30 15.9375C29.0054 15.9375 28.0516 16.3326 27.3484 17.0359C26.6451 17.7391 26.25 18.6929 26.25 19.6875V24.375H25.3125V19.6875ZM31.875 24.375H28.125V19.6875C28.125 19.1902 28.3225 18.7133 28.6742 18.3617C29.0258 18.01 29.5027 17.8125 30 17.8125C30.4973 17.8125 30.9742 18.01 31.3258 18.3617C31.6775 18.7133 31.875 19.1902 31.875 19.6875V24.375ZM38.4375 40.3125C38.4375 40.5611 38.3387 40.7996 38.1629 40.9754C37.9871 41.1512 37.7486 41.25 37.5 41.25H22.5C22.2514 41.25 22.0129 41.1512 21.8371 40.9754C21.6613 40.7996 21.5625 40.5611 21.5625 40.3125V27.1875C21.5625 26.9389 21.6613 26.7004 21.8371 26.5246C22.0129 26.3488 22.2514 26.25 22.5 26.25H37.5C37.7486 26.25 37.9871 26.3488 38.1629 26.5246C38.3387 26.7004 38.4375 26.9389 38.4375 27.1875V40.3125Z" fill="#4F37FD"/>
</svg>
