<svg width="5" height="10" viewBox="0 0 5 10" fill="none" xmlns="http://www.w3.org/2000/svg">
<path d="M0.709538 9.99871C0.544044 9.99904 0.383661 9.94104 0.256231 9.83479C0.184511 9.77496 0.125226 9.70148 0.0817705 9.61856C0.0383154 9.53563 0.0115446 9.4449 0.00299141 9.35155C-0.00556181 9.25821 0.0042707 9.16408 0.0319255 9.07456C0.0595804 8.98504 0.104514 8.90189 0.164153 8.82987L3.3373 5.00977L0.27748 1.18255C0.218645 1.10965 0.174709 1.02576 0.148196 0.935721C0.121684 0.845678 0.113118 0.751251 0.122991 0.657866C0.132864 0.564481 0.160981 0.473981 0.205726 0.391566C0.250472 0.309151 0.310963 0.236447 0.383724 0.177633C0.457008 0.112751 0.542828 0.0638109 0.6358 0.0338851C0.728772 0.00395926 0.826888 -0.00630633 0.92399 0.00373205C1.02109 0.0137704 1.11508 0.0438963 1.20007 0.092219C1.28505 0.140542 1.35919 0.206018 1.41783 0.284539L4.83887 4.56077C4.94305 4.6883 5 4.84826 5 5.01334C5 5.17842 4.94305 5.33838 4.83887 5.46591L1.29742 9.74214C1.22636 9.82839 1.1361 9.89657 1.03396 9.94114C0.93182 9.98572 0.820673 10.0054 0.709538 9.99871Z" fill="white"/>
</svg>
