<svg id="Layer_1" data-name="Layer 1" xmlns="http://www.w3.org/2000/svg" viewBox="0 0 499.39 319.55"><defs><style>.cls-1{fill:#e9ecfc;}.cls-2{fill:#1c1e4f;}.cls-3,.cls-6,.cls-9{fill:#2ccd9a;}.cls-10,.cls-3,.cls-4,.cls-5,.cls-6,.cls-7{stroke:#1c1e4f;stroke-width:0.75px;}.cls-10,.cls-3,.cls-7{stroke-linecap:round;stroke-linejoin:round;}.cls-4,.cls-7{fill:none;}.cls-4,.cls-5,.cls-6{stroke-miterlimit:10;}.cls-5{fill:#fff;}.cls-8{fill:#4f37fd;}.cls-10{fill:#2fd39f;}</style></defs><circle class="cls-1" cx="305.36" cy="178.88" r="3"/><circle class="cls-1" cx="324.36" cy="178.88" r="3"/><circle class="cls-1" cx="343.36" cy="178.88" r="3"/><circle class="cls-1" cx="362.36" cy="178.88" r="3"/><circle class="cls-1" cx="305.36" cy="198.88" r="3"/><circle class="cls-1" cx="324.36" cy="198.88" r="3"/><circle class="cls-1" cx="343.36" cy="198.88" r="3"/><circle class="cls-1" cx="362.36" cy="198.88" r="3"/><circle class="cls-1" cx="305.36" cy="218.88" r="3"/><circle class="cls-1" cx="324.36" cy="218.88" r="3"/><circle class="cls-1" cx="343.36" cy="218.88" r="3"/><circle class="cls-1" cx="362.36" cy="218.88" r="3"/><circle class="cls-1" cx="305.36" cy="237.88" r="3"/><circle class="cls-1" cx="324.36" cy="237.88" r="3"/><circle class="cls-1" cx="343.36" cy="237.88" r="3"/><circle class="cls-1" cx="362.36" cy="237.88" r="3"/><circle class="cls-1" cx="381.36" cy="178.88" r="3"/><circle class="cls-1" cx="381.36" cy="198.88" r="3"/><circle class="cls-1" cx="381.36" cy="218.88" r="3"/><circle class="cls-1" cx="381.36" cy="237.88" r="3"/><circle class="cls-1" cx="305.36" cy="256.88" r="3"/><circle class="cls-1" cx="324.36" cy="256.88" r="3"/><circle class="cls-1" cx="343.36" cy="256.88" r="3"/><circle class="cls-1" cx="362.36" cy="256.88" r="3"/><circle class="cls-1" cx="381.36" cy="256.88" r="3"/><circle class="cls-1" cx="143.36" cy="47.88" r="3"/><circle class="cls-1" cx="162.36" cy="47.88" r="3"/><circle class="cls-1" cx="181.36" cy="47.88" r="3"/><circle class="cls-1" cx="200.36" cy="47.88" r="3"/><circle class="cls-1" cx="143.36" cy="67.88" r="3"/><circle class="cls-1" cx="162.36" cy="67.88" r="3"/><circle class="cls-1" cx="181.36" cy="67.88" r="3"/><circle class="cls-1" cx="200.36" cy="67.88" r="3"/><circle class="cls-1" cx="143.36" cy="87.88" r="3"/><circle class="cls-1" cx="162.36" cy="87.88" r="3"/><circle class="cls-1" cx="181.36" cy="87.88" r="3"/><circle class="cls-1" cx="200.36" cy="87.88" r="3"/><circle class="cls-1" cx="143.36" cy="106.88" r="3"/><circle class="cls-1" cx="162.36" cy="106.88" r="3"/><circle class="cls-1" cx="181.36" cy="106.88" r="3"/><circle class="cls-1" cx="200.36" cy="106.88" r="3"/><circle class="cls-1" cx="219.36" cy="47.88" r="3"/><circle class="cls-1" cx="219.36" cy="67.88" r="3"/><circle class="cls-1" cx="219.36" cy="87.88" r="3"/><circle class="cls-1" cx="219.36" cy="106.88" r="3"/><circle class="cls-1" cx="143.36" cy="125.88" r="3"/><circle class="cls-1" cx="162.36" cy="125.88" r="3"/><circle class="cls-1" cx="181.36" cy="125.88" r="3"/><circle class="cls-1" cx="200.36" cy="125.88" r="3"/><circle class="cls-1" cx="219.36" cy="125.88" r="3"/><path class="cls-2" d="M537.51,206.13H487.38a4,4,0,0,1-4-4v-22a4,4,0,0,1,4-4h50.13a4,4,0,0,1,4,4v22A4,4,0,0,1,537.51,206.13Z" transform="translate(-42.12 -15.76)"/><path class="cls-3" d="M532.51,201.13H482.38a4,4,0,0,1-4-4v-22a4,4,0,0,1,4-4h50.13a4,4,0,0,1,4,4v22A4,4,0,0,1,532.51,201.13Z" transform="translate(-42.12 -15.76)"/><polyline class="cls-3" points="474.33 162.38 483.33 171.38 474.33 180.38"/><polyline class="cls-3" points="456.33 180.38 447.33 171.38 456.33 162.38"/><line class="cls-3" x1="469.95" y1="162.87" x2="460.95" y2="179.87"/><path class="cls-4" d="M155.43,286.61l-47,27.14-47-27.14m94,0-47-27.14-47,27.14m27.88,15.51V324l18.91,10.92L127.1,324V302.12L108.19,291.2Zm0,.42,18.91,10.92,18.91-10.92m-18.91,10.92v21M89.28,248.1v21.84l18.91,10.91,18.91-10.91V248.1l-18.91-10.92Zm0,0,18.91,11.34,18.91-10.91m-18.91,10.91v21M42.49,275v21.84L61.4,307.73l18.91-10.91V275L61.4,264.06Zm0,.43L61.4,286.32l18.91-10.91M61.4,286.32v21m75.11-31.91v21.83l18.92,10.92,18.91-10.92V275.43l-18.91-10.92Zm0,.42,18.92,10.92,18.91-10.92m-18.91,10.92v21" transform="translate(-42.12 -15.76)"/><rect class="cls-5" x="327.36" y="0.38" width="124" height="64" rx="4"/><path class="cls-6" d="M331.36.38h116a4,4,0,0,1,4,4v17a0,0,0,0,1,0,0h-124a0,0,0,0,1,0,0v-17A4,4,0,0,1,331.36.38Z"/><line class="cls-4" x1="451.36" y1="21.38" x2="327.36" y2="21.38"/><circle class="cls-4" cx="340.73" cy="10.88" r="3.5"/><circle class="cls-4" cx="352.23" cy="10.88" r="3.5"/><circle class="cls-4" cx="363.23" cy="10.88" r="3.5"/><polyline class="cls-7" points="337.23 34.38 346.23 43.38 337.23 52.38"/><line class="cls-7" x1="348.73" y1="52.38" x2="358.73" y2="52.38"/><path class="cls-5" d="M411.6,179.19a26.94,26.94,0,0,1-26.94,26.94H224.6a26.94,26.94,0,1,1,7.76-52.76,32.59,32.59,0,0,1-.83-7.37A33.14,33.14,0,0,1,277,115.25a30,30,0,0,1,57.19,6.4,30.43,30.43,0,0,1,44.41,27,29.43,29.43,0,0,1-.31,4.33,26.27,26.27,0,0,1,6.37-.77A26.94,26.94,0,0,1,411.6,179.19Z" transform="translate(-42.12 -15.76)"/><path class="cls-8" d="M269.57,155.8h-7v12.89h7Z" transform="translate(-42.12 -15.76)"/><path class="cls-9" d="M278.59,146.21H265.7v6.45h12.89Z" transform="translate(-42.12 -15.76)"/><path class="cls-8" d="M262.56,149.36H249.67v6.44h12.89Z" transform="translate(-42.12 -15.76)"/><path class="cls-2" d="M346.46,153.55h-2.72v15.23h2.61v-10h.11l5.18,10h.13l5.21-10h.1v10h2.58V153.55h-2.5l-5.31,10.34h-.08Zm-59.13,15.23h2.61v-13h6.82v-2.26h-6.82v2.26h-8.05v2.26h5.44Zm22.76-15.23v2H315v13.2h2.61v-13.2h4.91v-2Zm26.78,11.66a1.14,1.14,0,0,1-.36.94,1.11,1.11,0,0,1-.43.28,1.12,1.12,0,0,1-.51.08h-5.66a1.12,1.12,0,0,1-.51-.08,1.22,1.22,0,0,1-.44-.28,1.39,1.39,0,0,1-.28-.43,1.11,1.11,0,0,1-.07-.51V153.55H326v11.53a3.53,3.53,0,0,0,3.71,3.71h6.09a3.52,3.52,0,0,0,3.7-3.71V153.55h-2.62Zm-32.09-2.55H299.7l2.51-6.14h.08Zm-1.1-9.12H301l-6.33,15.24h2.54l1.57-3.86h6.94l1.57,3.86H310Z" transform="translate(-42.12 -15.76)"/><circle class="cls-8" cx="341.3" cy="122.88" r="2"/><circle class="cls-8" cx="353.3" cy="122.88" r="2"/><circle class="cls-8" cx="365.3" cy="122.88" r="2"/><circle class="cls-8" cx="377.3" cy="122.88" r="2"/><circle class="cls-8" cx="389.3" cy="122.88" r="2"/><circle class="cls-8" cx="389.3" cy="71.88" r="2"/><circle class="cls-8" cx="389.3" cy="83.88" r="2"/><circle class="cls-8" cx="389.3" cy="95.88" r="2"/><circle class="cls-8" cx="389.3" cy="107.88" r="2"/><circle class="cls-8" cx="324.36" cy="122.88" r="5"/><circle class="cls-8" cx="389.36" cy="54.88" r="5"/><circle class="cls-8" cx="389.36" cy="54.88" r="5"/><circle class="cls-8" cx="98.86" cy="219.44" r="2"/><circle class="cls-8" cx="98.86" cy="207.44" r="2"/><circle class="cls-8" cx="98.86" cy="195.44" r="2"/><circle class="cls-8" cx="98.86" cy="183.44" r="2"/><circle class="cls-8" cx="98.86" cy="171.44" r="2"/><circle class="cls-8" cx="149.86" cy="171.44" r="2"/><circle class="cls-8" cx="137.86" cy="171.44" r="2"/><circle class="cls-8" cx="125.86" cy="171.44" r="2"/><circle class="cls-8" cx="113.86" cy="171.44" r="2"/><circle class="cls-8" cx="98.86" cy="236.38" r="5"/><circle class="cls-8" cx="166.86" cy="171.37" r="5"/><path class="cls-2" d="M119.51,167.13H69.38a4,4,0,0,1-4-4v-22a4,4,0,0,1,4-4h50.13a4,4,0,0,1,4,4v22A4,4,0,0,1,119.51,167.13Z" transform="translate(-42.12 -15.76)"/><path class="cls-3" d="M114.51,162.13H64.38a4,4,0,0,1-4-4v-22a4,4,0,0,1,4-4h50.13a4,4,0,0,1,4,4v22A4,4,0,0,1,114.51,162.13Z" transform="translate(-42.12 -15.76)"/><line class="cls-10" x1="51.16" y1="122.38" x2="51.16" y2="140.37"/><ellipse class="cls-10" cx="63.83" cy="131.38" rx="5" ry="9"/><line class="cls-10" x1="25.83" y1="122.38" x2="25.83" y2="140.37"/><ellipse class="cls-10" cx="38.5" cy="131.38" rx="5" ry="9"/></svg>