<svg width="516" height="450" viewBox="0 0 516 450" fill="none" xmlns="http://www.w3.org/2000/svg">
<g clip-path="url(#clip0)">
<path d="M128.88 261.68H13.88C11.6709 261.68 9.88 263.471 9.88 265.68V418.6C9.88 420.809 11.6709 422.6 13.88 422.6H128.88C131.089 422.6 132.88 420.809 132.88 418.6V265.68C132.88 263.471 131.089 261.68 128.88 261.68Z" fill="#1C1E4F"/>
<path d="M119.38 251.38H4.38C2.17087 251.38 0.380005 253.171 0.380005 255.38V408.3C0.380005 410.509 2.17087 412.3 4.38 412.3H119.38C121.589 412.3 123.38 410.509 123.38 408.3V255.38C123.38 253.171 121.589 251.38 119.38 251.38Z" fill="white" stroke="#1C1E4F" stroke-width="0.75" stroke-miterlimit="10"/>
<path d="M28.1 276.67L19.88 271.97L11.66 276.67C11.4531 276.67 11.2547 276.588 11.1085 276.441C10.9622 276.295 10.88 276.097 10.88 275.89V251.66C10.88 251.453 10.9622 251.255 11.1085 251.108C11.2547 250.962 11.4531 250.88 11.66 250.88H28.1C28.3069 250.88 28.5053 250.962 28.6516 251.108C28.7978 251.255 28.88 251.453 28.88 251.66V275.89C28.88 276.097 28.7978 276.295 28.6516 276.441C28.5053 276.588 28.3069 276.67 28.1 276.67Z" fill="#4F37FD"/>
<path d="M80.38 302.88H14.75C12.817 302.88 11.25 304.447 11.25 306.38C11.25 308.313 12.817 309.88 14.75 309.88H80.38C82.313 309.88 83.88 308.313 83.88 306.38C83.88 304.447 82.313 302.88 80.38 302.88Z" fill="#E9ECFC"/>
<path d="M98.38 317.88H14.75C12.817 317.88 11.25 319.447 11.25 321.38C11.25 323.313 12.817 324.88 14.75 324.88H98.38C100.313 324.88 101.88 323.313 101.88 321.38C101.88 319.447 100.313 317.88 98.38 317.88Z" fill="#E9ECFC"/>
<path d="M57.38 332.88H14.75C12.817 332.88 11.25 334.447 11.25 336.38C11.25 338.313 12.817 339.88 14.75 339.88H57.38C59.313 339.88 60.88 338.313 60.88 336.38C60.88 334.447 59.313 332.88 57.38 332.88Z" fill="#E9ECFC"/>
<path d="M89.38 347.88H14.75C12.817 347.88 11.25 349.447 11.25 351.38C11.25 353.313 12.817 354.88 14.75 354.88H89.38C91.313 354.88 92.88 353.313 92.88 351.38C92.88 349.447 91.313 347.88 89.38 347.88Z" fill="#E9ECFC"/>
<path d="M47.38 362.88H14.75C12.817 362.88 11.25 364.447 11.25 366.38C11.25 368.313 12.817 369.88 14.75 369.88H47.38C49.313 369.88 50.88 368.313 50.88 366.38C50.88 364.447 49.313 362.88 47.38 362.88Z" fill="#E9ECFC"/>
<path d="M77.38 377.88H14.75C12.817 377.88 11.25 379.447 11.25 381.38C11.25 383.313 12.817 384.88 14.75 384.88H77.38C79.313 384.88 80.88 383.313 80.88 381.38C80.88 379.447 79.313 377.88 77.38 377.88Z" fill="#E9ECFC"/>
<path d="M353.38 100.38H151.38C149.171 100.38 147.38 102.171 147.38 104.38V270.38C147.38 272.589 149.171 274.38 151.38 274.38H353.38C355.589 274.38 357.38 272.589 357.38 270.38V104.38C357.38 102.171 355.589 100.38 353.38 100.38Z" stroke="#1C1E4F" stroke-width="0.75" stroke-miterlimit="10"/>
<path d="M357.88 121.38H147.88" stroke="#1C1E4F" stroke-width="0.75" stroke-miterlimit="10"/>
<path d="M161.75 114.38C163.683 114.38 165.25 112.813 165.25 110.88C165.25 108.947 163.683 107.38 161.75 107.38C159.817 107.38 158.25 108.947 158.25 110.88C158.25 112.813 159.817 114.38 161.75 114.38Z" stroke="#1C1E4F" stroke-width="0.75" stroke-miterlimit="10"/>
<path d="M173.25 114.38C175.183 114.38 176.75 112.813 176.75 110.88C176.75 108.947 175.183 107.38 173.25 107.38C171.317 107.38 169.75 108.947 169.75 110.88C169.75 112.813 171.317 114.38 173.25 114.38Z" stroke="#1C1E4F" stroke-width="0.75" stroke-miterlimit="10"/>
<path d="M184.25 114.38C186.183 114.38 187.75 112.813 187.75 110.88C187.75 108.947 186.183 107.38 184.25 107.38C182.317 107.38 180.75 108.947 180.75 110.88C180.75 112.813 182.317 114.38 184.25 114.38Z" stroke="#1C1E4F" stroke-width="0.75" stroke-miterlimit="10"/>
<path d="M264.38 138.88H161.75C159.817 138.88 158.25 140.447 158.25 142.38C158.25 144.313 159.817 145.88 161.75 145.88H264.38C266.313 145.88 267.88 144.313 267.88 142.38C267.88 140.447 266.313 138.88 264.38 138.88Z" fill="#E9ECFC"/>
<path d="M383.88 188.88C385.537 188.88 386.88 187.537 386.88 185.88C386.88 184.223 385.537 182.88 383.88 182.88C382.223 182.88 380.88 184.223 380.88 185.88C380.88 187.537 382.223 188.88 383.88 188.88Z" fill="#E9ECFC"/>
<path d="M402.88 188.88C404.537 188.88 405.88 187.537 405.88 185.88C405.88 184.223 404.537 182.88 402.88 182.88C401.223 182.88 399.88 184.223 399.88 185.88C399.88 187.537 401.223 188.88 402.88 188.88Z" fill="#E9ECFC"/>
<path d="M421.88 188.88C423.537 188.88 424.88 187.537 424.88 185.88C424.88 184.223 423.537 182.88 421.88 182.88C420.223 182.88 418.88 184.223 418.88 185.88C418.88 187.537 420.223 188.88 421.88 188.88Z" fill="#E9ECFC"/>
<path d="M440.88 188.88C442.537 188.88 443.88 187.537 443.88 185.88C443.88 184.223 442.537 182.88 440.88 182.88C439.223 182.88 437.88 184.223 437.88 185.88C437.88 187.537 439.223 188.88 440.88 188.88Z" fill="#E9ECFC"/>
<path d="M383.88 208.88C385.537 208.88 386.88 207.537 386.88 205.88C386.88 204.223 385.537 202.88 383.88 202.88C382.223 202.88 380.88 204.223 380.88 205.88C380.88 207.537 382.223 208.88 383.88 208.88Z" fill="#E9ECFC"/>
<path d="M402.88 208.88C404.537 208.88 405.88 207.537 405.88 205.88C405.88 204.223 404.537 202.88 402.88 202.88C401.223 202.88 399.88 204.223 399.88 205.88C399.88 207.537 401.223 208.88 402.88 208.88Z" fill="#E9ECFC"/>
<path d="M421.88 208.88C423.537 208.88 424.88 207.537 424.88 205.88C424.88 204.223 423.537 202.88 421.88 202.88C420.223 202.88 418.88 204.223 418.88 205.88C418.88 207.537 420.223 208.88 421.88 208.88Z" fill="#E9ECFC"/>
<path d="M440.88 208.88C442.537 208.88 443.88 207.537 443.88 205.88C443.88 204.223 442.537 202.88 440.88 202.88C439.223 202.88 437.88 204.223 437.88 205.88C437.88 207.537 439.223 208.88 440.88 208.88Z" fill="#E9ECFC"/>
<path d="M383.88 228.88C385.537 228.88 386.88 227.537 386.88 225.88C386.88 224.223 385.537 222.88 383.88 222.88C382.223 222.88 380.88 224.223 380.88 225.88C380.88 227.537 382.223 228.88 383.88 228.88Z" fill="#E9ECFC"/>
<path d="M402.88 228.88C404.537 228.88 405.88 227.537 405.88 225.88C405.88 224.223 404.537 222.88 402.88 222.88C401.223 222.88 399.88 224.223 399.88 225.88C399.88 227.537 401.223 228.88 402.88 228.88Z" fill="#E9ECFC"/>
<path d="M421.88 228.88C423.537 228.88 424.88 227.537 424.88 225.88C424.88 224.223 423.537 222.88 421.88 222.88C420.223 222.88 418.88 224.223 418.88 225.88C418.88 227.537 420.223 228.88 421.88 228.88Z" fill="#E9ECFC"/>
<path d="M440.88 228.88C442.537 228.88 443.88 227.537 443.88 225.88C443.88 224.223 442.537 222.88 440.88 222.88C439.223 222.88 437.88 224.223 437.88 225.88C437.88 227.537 439.223 228.88 440.88 228.88Z" fill="#E9ECFC"/>
<path d="M383.88 247.88C385.537 247.88 386.88 246.537 386.88 244.88C386.88 243.223 385.537 241.88 383.88 241.88C382.223 241.88 380.88 243.223 380.88 244.88C380.88 246.537 382.223 247.88 383.88 247.88Z" fill="#E9ECFC"/>
<path d="M402.88 247.88C404.537 247.88 405.88 246.537 405.88 244.88C405.88 243.223 404.537 241.88 402.88 241.88C401.223 241.88 399.88 243.223 399.88 244.88C399.88 246.537 401.223 247.88 402.88 247.88Z" fill="#E9ECFC"/>
<path d="M421.88 247.88C423.537 247.88 424.88 246.537 424.88 244.88C424.88 243.223 423.537 241.88 421.88 241.88C420.223 241.88 418.88 243.223 418.88 244.88C418.88 246.537 420.223 247.88 421.88 247.88Z" fill="#E9ECFC"/>
<path d="M440.88 247.88C442.537 247.88 443.88 246.537 443.88 244.88C443.88 243.223 442.537 241.88 440.88 241.88C439.223 241.88 437.88 243.223 437.88 244.88C437.88 246.537 439.223 247.88 440.88 247.88Z" fill="#E9ECFC"/>
<path d="M459.88 188.88C461.537 188.88 462.88 187.537 462.88 185.88C462.88 184.223 461.537 182.88 459.88 182.88C458.223 182.88 456.88 184.223 456.88 185.88C456.88 187.537 458.223 188.88 459.88 188.88Z" fill="#E9ECFC"/>
<path d="M459.88 208.88C461.537 208.88 462.88 207.537 462.88 205.88C462.88 204.223 461.537 202.88 459.88 202.88C458.223 202.88 456.88 204.223 456.88 205.88C456.88 207.537 458.223 208.88 459.88 208.88Z" fill="#E9ECFC"/>
<path d="M459.88 228.88C461.537 228.88 462.88 227.537 462.88 225.88C462.88 224.223 461.537 222.88 459.88 222.88C458.223 222.88 456.88 224.223 456.88 225.88C456.88 227.537 458.223 228.88 459.88 228.88Z" fill="#E9ECFC"/>
<path d="M459.88 247.88C461.537 247.88 462.88 246.537 462.88 244.88C462.88 243.223 461.537 241.88 459.88 241.88C458.223 241.88 456.88 243.223 456.88 244.88C456.88 246.537 458.223 247.88 459.88 247.88Z" fill="#E9ECFC"/>
<path d="M383.88 266.88C385.537 266.88 386.88 265.537 386.88 263.88C386.88 262.223 385.537 260.88 383.88 260.88C382.223 260.88 380.88 262.223 380.88 263.88C380.88 265.537 382.223 266.88 383.88 266.88Z" fill="#E9ECFC"/>
<path d="M402.88 266.88C404.537 266.88 405.88 265.537 405.88 263.88C405.88 262.223 404.537 260.88 402.88 260.88C401.223 260.88 399.88 262.223 399.88 263.88C399.88 265.537 401.223 266.88 402.88 266.88Z" fill="#E9ECFC"/>
<path d="M421.88 266.88C423.537 266.88 424.88 265.537 424.88 263.88C424.88 262.223 423.537 260.88 421.88 260.88C420.223 260.88 418.88 262.223 418.88 263.88C418.88 265.537 420.223 266.88 421.88 266.88Z" fill="#E9ECFC"/>
<path d="M440.88 266.88C442.537 266.88 443.88 265.537 443.88 263.88C443.88 262.223 442.537 260.88 440.88 260.88C439.223 260.88 437.88 262.223 437.88 263.88C437.88 265.537 439.223 266.88 440.88 266.88Z" fill="#E9ECFC"/>
<path d="M459.88 266.88C461.537 266.88 462.88 265.537 462.88 263.88C462.88 262.223 461.537 260.88 459.88 260.88C458.223 260.88 456.88 262.223 456.88 263.88C456.88 265.537 458.223 266.88 459.88 266.88Z" fill="#E9ECFC"/>
<path d="M227.38 153.88H161.75C159.817 153.88 158.25 155.447 158.25 157.38C158.25 159.313 159.817 160.88 161.75 160.88H227.38C229.313 160.88 230.88 159.313 230.88 157.38C230.88 155.447 229.313 153.88 227.38 153.88Z" fill="#4F37FD"/>
<path d="M257.38 168.88H181.75C179.817 168.88 178.25 170.447 178.25 172.38C178.25 174.313 179.817 175.88 181.75 175.88H257.38C259.313 175.88 260.88 174.313 260.88 172.38C260.88 170.447 259.313 168.88 257.38 168.88Z" fill="#E9ECFC"/>
<path d="M234.38 183.88H181.75C179.817 183.88 178.25 185.447 178.25 187.38C178.25 189.313 179.817 190.88 181.75 190.88H234.38C236.313 190.88 237.88 189.313 237.88 187.38C237.88 185.447 236.313 183.88 234.38 183.88Z" fill="#4F37FD"/>
<path d="M407.38 229.38H291.38C289.171 229.38 287.38 231.171 287.38 233.38V289.38C287.38 291.589 289.171 293.38 291.38 293.38H407.38C409.589 293.38 411.38 291.589 411.38 289.38V233.38C411.38 231.171 409.589 229.38 407.38 229.38Z" fill="white" stroke="#1C1E4F" stroke-width="0.75" stroke-miterlimit="10"/>
<path d="M291.38 229.38H407.38C408.441 229.38 409.458 229.801 410.208 230.551C410.959 231.302 411.38 232.319 411.38 233.38V250.38H287.38V233.38C287.38 232.319 287.801 231.302 288.552 230.551C289.302 229.801 290.319 229.38 291.38 229.38Z" fill="#2CCD9A" stroke="#1C1E4F" stroke-width="0.75" stroke-miterlimit="10"/>
<path d="M411.38 250.38H287.38" stroke="#1C1E4F" stroke-width="0.75" stroke-miterlimit="10"/>
<path d="M300.75 243.38C302.683 243.38 304.25 241.813 304.25 239.88C304.25 237.947 302.683 236.38 300.75 236.38C298.817 236.38 297.25 237.947 297.25 239.88C297.25 241.813 298.817 243.38 300.75 243.38Z" stroke="#1C1E4F" stroke-width="0.75" stroke-miterlimit="10"/>
<path d="M312.25 243.38C314.183 243.38 315.75 241.813 315.75 239.88C315.75 237.947 314.183 236.38 312.25 236.38C310.317 236.38 308.75 237.947 308.75 239.88C308.75 241.813 310.317 243.38 312.25 243.38Z" stroke="#1C1E4F" stroke-width="0.75" stroke-miterlimit="10"/>
<path d="M323.25 243.38C325.183 243.38 326.75 241.813 326.75 239.88C326.75 237.947 325.183 236.38 323.25 236.38C321.317 236.38 319.75 237.947 319.75 239.88C319.75 241.813 321.317 243.38 323.25 243.38Z" stroke="#1C1E4F" stroke-width="0.75" stroke-miterlimit="10"/>
<path d="M297.25 263.38L306.25 272.38L297.25 281.38" stroke="#1C1E4F" stroke-width="0.75" stroke-linecap="round" stroke-linejoin="round"/>
<path d="M308.75 281.38H318.75" stroke="#1C1E4F" stroke-width="0.75" stroke-linecap="round" stroke-linejoin="round"/>
<path d="M284.91 67.3799H234.78C233.719 67.3799 232.702 66.9585 231.952 66.2083C231.201 65.4582 230.78 64.4407 230.78 63.3799V41.3799C230.78 40.319 231.201 39.3016 231.952 38.5515C232.702 37.8013 233.719 37.3799 234.78 37.3799H284.91C285.971 37.3799 286.988 37.8013 287.738 38.5515C288.489 39.3016 288.91 40.319 288.91 41.3799V63.3799C288.91 64.4407 288.489 65.4582 287.738 66.2083C286.988 66.9585 285.971 67.3799 284.91 67.3799Z" fill="#1C1E4F"/>
<path d="M279.91 62.3799H229.78C228.719 62.3799 227.702 61.9585 226.952 61.2083C226.201 60.4582 225.78 59.4407 225.78 58.3799V36.3799C225.78 35.319 226.201 34.3016 226.952 33.5515C227.702 32.8013 228.719 32.3799 229.78 32.3799H279.91C280.971 32.3799 281.988 32.8013 282.738 33.5515C283.489 34.3016 283.91 35.319 283.91 36.3799V58.3799C283.91 59.4407 283.489 60.4582 282.738 61.2083C281.988 61.9585 280.971 62.3799 279.91 62.3799Z" fill="#2CCD9A" stroke="#1C1E4F" stroke-width="0.75" stroke-linecap="round" stroke-linejoin="round"/>
<path d="M263.84 39.3799L272.84 48.3799L263.84 57.3799" fill="#2CCD9A"/>
<path d="M263.84 39.3799L272.84 48.3799L263.84 57.3799" stroke="#1C1E4F" stroke-width="0.75" stroke-linecap="round" stroke-linejoin="round"/>
<path d="M245.84 57.3799L236.84 48.3799L245.84 39.3799" fill="#2CCD9A"/>
<path d="M245.84 57.3799L236.84 48.3799L245.84 39.3799" stroke="#1C1E4F" stroke-width="0.75" stroke-linecap="round" stroke-linejoin="round"/>
<path d="M259.47 39.8799L250.47 56.8799" stroke="#1C1E4F" stroke-width="0.75" stroke-linecap="round" stroke-linejoin="round"/>
<path d="M478.83 50.0202V71.0202M478.83 49.8602L431.83 77.0002L384.83 49.8602H478.83ZM478.83 49.8602L431.83 22.7102L384.83 49.8602H478.83ZM412.66 65.3702V87.2502L431.57 98.1702L450.51 87.2502V65.3702L431.6 54.4502L412.66 65.3702ZM412.66 65.7902L431.57 76.7102L450.48 65.7902H412.66ZM431.57 76.7102V97.7102V76.7102ZM412.66 11.3502V33.1802L431.57 44.1002L450.48 33.1802V11.3502L431.6 0.430176L412.66 11.3502ZM412.66 11.3502L431.57 22.6902L450.48 11.7802L412.66 11.3502ZM431.6 22.6902V43.6902V22.6902ZM365.89 38.2502V60.0702L384.8 70.9802L403.71 60.0702V38.2502L384.8 27.3102L365.89 38.2502ZM365.89 38.6802L384.8 49.5902L403.71 38.6802H365.89ZM384.8 49.5702V70.5702V49.5702ZM459.92 38.6602V60.5102L478.83 71.4302L497.74 60.5102V38.6802L478.83 27.7602L459.92 38.6602ZM459.92 39.0802L478.83 50.0002L497.74 39.0802H459.92Z" stroke="#1C1E4F" stroke-width="0.75" stroke-miterlimit="10"/>
<path d="M233.19 349.64C245.34 349.64 255.19 339.79 255.19 327.64C255.19 315.49 245.34 305.64 233.19 305.64C221.04 305.64 211.19 315.49 211.19 327.64C211.19 339.79 221.04 349.64 233.19 349.64Z" fill="#E9ECFC" stroke="#1C1E4F" stroke-width="0.75" stroke-miterlimit="10"/>
<path d="M226.44 316.29H237.22C238.451 316.29 239.631 316.779 240.501 317.649C241.371 318.519 241.86 319.699 241.86 320.93V322.12C241.86 323.351 241.371 324.531 240.501 325.401C239.631 326.271 238.451 326.76 237.22 326.76H226.44V316.29Z" stroke="#1C1E4F" stroke-width="0.75" stroke-miterlimit="10"/>
<path d="M226.44 327H238.76C240.166 327 241.514 327.558 242.508 328.552C243.502 329.546 244.06 330.894 244.06 332.3V333.66C244.06 335.066 243.502 336.414 242.508 337.408C241.514 338.402 240.166 338.96 238.76 338.96H226.44V327Z" stroke="#1C1E4F" stroke-width="0.75" stroke-miterlimit="10"/>
<path d="M276.38 412.38C288.53 412.38 298.38 402.53 298.38 390.38C298.38 378.23 288.53 368.38 276.38 368.38C264.23 368.38 254.38 378.23 254.38 390.38C254.38 402.53 264.23 412.38 276.38 412.38Z" fill="#E9ECFC" stroke="#1C1E4F" stroke-width="0.75" stroke-miterlimit="10"/>
<path d="M267.38 390.88L276.38 373.88L285.38 390.88L276.38 406.88L267.38 390.88Z" stroke="#1C1E4F" stroke-width="0.75" stroke-miterlimit="10"/>
<path d="M267.38 390.88L276.38 395.88L285.38 390.88" stroke="#1C1E4F" stroke-width="0.75" stroke-miterlimit="10"/>
<path d="M267.38 390.88L276.38 385.88L285.38 390.88" stroke="#1C1E4F" stroke-width="0.75" stroke-miterlimit="10"/>
<path d="M200.38 414.38C212.53 414.38 222.38 404.53 222.38 392.38C222.38 380.23 212.53 370.38 200.38 370.38C188.23 370.38 178.38 380.23 178.38 392.38C178.38 404.53 188.23 414.38 200.38 414.38Z" fill="#E9ECFC" stroke="#1C1E4F" stroke-width="0.75" stroke-miterlimit="10"/>
<path d="M196.85 380.39L200.38 376.87L203.86 380.35" stroke="#1C1E4F" stroke-width="0.75" stroke-miterlimit="10"/>
<path d="M194.4 401.92L184.86 392.38L194.41 382.82" stroke="#1C1E4F" stroke-width="0.75" stroke-miterlimit="10"/>
<path d="M203.92 404.35L200.38 407.9L196.83 404.35" stroke="#1C1E4F" stroke-width="0.75" stroke-miterlimit="10"/>
<path d="M203.92 392.35L200.38 395.9L196.83 392.35" stroke="#1C1E4F" stroke-width="0.75" stroke-miterlimit="10"/>
<path d="M206.33 382.82L215.89 392.38L206.35 401.93" stroke="#1C1E4F" stroke-width="0.75" stroke-miterlimit="10"/>
<path d="M196.83 392.35L200.38 388.81L203.92 392.35" stroke="#1C1E4F" stroke-width="0.75" stroke-miterlimit="10"/>
<path d="M189.87 352.38C193.46 352.38 196.37 349.47 196.37 345.88C196.37 342.29 193.46 339.38 189.87 339.38C186.28 339.38 183.37 342.29 183.37 345.88C183.37 349.47 186.28 352.38 189.87 352.38Z" fill="#4F37FD" stroke="#1C1E4F" stroke-width="0.75" stroke-miterlimit="10"/>
<path d="M235.87 380.38C239.46 380.38 242.37 377.47 242.37 373.88C242.37 370.29 239.46 367.38 235.87 367.38C232.28 367.38 229.37 370.29 229.37 373.88C229.37 377.47 232.28 380.38 235.87 380.38Z" fill="#2CCD9A" stroke="#1C1E4F" stroke-width="0.75" stroke-miterlimit="10"/>
<path d="M282.88 345.38C288.127 345.38 292.38 341.127 292.38 335.88C292.38 330.633 288.127 326.38 282.88 326.38C277.633 326.38 273.38 330.633 273.38 335.88C273.38 341.127 277.633 345.38 282.88 345.38Z" fill="#4F37FD" stroke="#1C1E4F" stroke-width="0.75" stroke-miterlimit="10"/>
<path d="M240.88 439.38C246.127 439.38 250.38 435.127 250.38 429.88C250.38 424.633 246.127 420.38 240.88 420.38C235.633 420.38 231.38 424.633 231.38 429.88C231.38 435.127 235.633 439.38 240.88 439.38Z" fill="#4F37FD" stroke="#1C1E4F" stroke-width="0.75" stroke-miterlimit="10"/>
<path d="M128.88 48.8799H36.88C34.6709 48.8799 32.88 50.6707 32.88 52.8799V144.88C32.88 147.089 34.6709 148.88 36.88 148.88H128.88C131.089 148.88 132.88 147.089 132.88 144.88V52.8799C132.88 50.6707 131.089 48.8799 128.88 48.8799Z" fill="#1C1E4F"/>
<path d="M118.88 38.8799H26.88C24.6709 38.8799 22.88 40.6707 22.88 42.8799V134.88C22.88 137.089 24.6709 138.88 26.88 138.88H118.88C121.089 138.88 122.88 137.089 122.88 134.88V42.8799C122.88 40.6707 121.089 38.8799 118.88 38.8799Z" fill="white" stroke="#1C1E4F" stroke-width="0.75" stroke-miterlimit="10"/>
<path d="M36.11 56.3501V52.1101" stroke="#1C1E4F" stroke-width="0.75" stroke-linecap="round" stroke-linejoin="round"/>
<path d="M109.64 125.65L36.1 52.1101H40.35" fill="white"/>
<path d="M109.64 125.65L36.1 52.1101H40.35" stroke="#1C1E4F" stroke-width="0.75" stroke-linecap="round" stroke-linejoin="round"/>
<path d="M109.64 121.41V125.65" stroke="#1C1E4F" stroke-width="0.75" stroke-linecap="round" stroke-linejoin="round"/>
<path d="M109.64 125.65H105.4" stroke="#1C1E4F" stroke-width="0.75" stroke-linecap="round" stroke-linejoin="round"/>
<path d="M351.81 150.88C352.915 150.88 353.81 149.984 353.81 148.88C353.81 147.775 352.915 146.88 351.81 146.88C350.705 146.88 349.81 147.775 349.81 148.88C349.81 149.984 350.705 150.88 351.81 150.88Z" fill="#4F37FD"/>
<path d="M363.81 150.88C364.915 150.88 365.81 149.984 365.81 148.88C365.81 147.775 364.915 146.88 363.81 146.88C362.705 146.88 361.81 147.775 361.81 148.88C361.81 149.984 362.705 150.88 363.81 150.88Z" fill="#4F37FD"/>
<path d="M375.81 150.88C376.915 150.88 377.81 149.984 377.81 148.88C377.81 147.775 376.915 146.88 375.81 146.88C374.705 146.88 373.81 147.775 373.81 148.88C373.81 149.984 374.705 150.88 375.81 150.88Z" fill="#4F37FD"/>
<path d="M387.81 150.88C388.915 150.88 389.81 149.984 389.81 148.88C389.81 147.775 388.915 146.88 387.81 146.88C386.705 146.88 385.81 147.775 385.81 148.88C385.81 149.984 386.705 150.88 387.81 150.88Z" fill="#4F37FD"/>
<path d="M399.81 150.88C400.915 150.88 401.81 149.984 401.81 148.88C401.81 147.775 400.915 146.88 399.81 146.88C398.705 146.88 397.81 147.775 397.81 148.88C397.81 149.984 398.705 150.88 399.81 150.88Z" fill="#4F37FD"/>
<path d="M399.81 99.8799C400.915 99.8799 401.81 98.9845 401.81 97.8799C401.81 96.7753 400.915 95.8799 399.81 95.8799C398.705 95.8799 397.81 96.7753 397.81 97.8799C397.81 98.9845 398.705 99.8799 399.81 99.8799Z" fill="#4F37FD"/>
<path d="M399.81 111.88C400.915 111.88 401.81 110.984 401.81 109.88C401.81 108.775 400.915 107.88 399.81 107.88C398.705 107.88 397.81 108.775 397.81 109.88C397.81 110.984 398.705 111.88 399.81 111.88Z" fill="#4F37FD"/>
<path d="M399.81 123.88C400.915 123.88 401.81 122.984 401.81 121.88C401.81 120.775 400.915 119.88 399.81 119.88C398.705 119.88 397.81 120.775 397.81 121.88C397.81 122.984 398.705 123.88 399.81 123.88Z" fill="#4F37FD"/>
<path d="M399.81 135.88C400.915 135.88 401.81 134.984 401.81 133.88C401.81 132.775 400.915 131.88 399.81 131.88C398.705 131.88 397.81 132.775 397.81 133.88C397.81 134.984 398.705 135.88 399.81 135.88Z" fill="#4F37FD"/>
<path d="M334.87 153.88C337.631 153.88 339.87 151.641 339.87 148.88C339.87 146.118 337.631 143.88 334.87 143.88C332.109 143.88 329.87 146.118 329.87 148.88C329.87 151.641 332.109 153.88 334.87 153.88Z" fill="#4F37FD"/>
<path d="M399.88 85.8799C402.641 85.8799 404.88 83.6413 404.88 80.8799C404.88 78.1185 402.641 75.8799 399.88 75.8799C397.119 75.8799 394.88 78.1185 394.88 80.8799C394.88 83.6413 397.119 85.8799 399.88 85.8799Z" fill="#4F37FD"/>
<path d="M152.94 207.88C154.045 207.88 154.94 206.984 154.94 205.88C154.94 204.775 154.045 203.88 152.94 203.88C151.835 203.88 150.94 204.775 150.94 205.88C150.94 206.984 151.835 207.88 152.94 207.88Z" fill="#4F37FD"/>
<path d="M140.94 207.88C142.045 207.88 142.94 206.984 142.94 205.88C142.94 204.775 142.045 203.88 140.94 203.88C139.835 203.88 138.94 204.775 138.94 205.88C138.94 206.984 139.835 207.88 140.94 207.88Z" fill="#4F37FD"/>
<path d="M128.94 207.88C130.045 207.88 130.94 206.984 130.94 205.88C130.94 204.775 130.045 203.88 128.94 203.88C127.835 203.88 126.94 204.775 126.94 205.88C126.94 206.984 127.835 207.88 128.94 207.88Z" fill="#4F37FD"/>
<path d="M116.94 207.88C118.045 207.88 118.94 206.984 118.94 205.88C118.94 204.775 118.045 203.88 116.94 203.88C115.835 203.88 114.94 204.775 114.94 205.88C114.94 206.984 115.835 207.88 116.94 207.88Z" fill="#4F37FD"/>
<path d="M104.94 207.88C106.045 207.88 106.94 206.984 106.94 205.88C106.94 204.775 106.045 203.88 104.94 203.88C103.835 203.88 102.94 204.775 102.94 205.88C102.94 206.984 103.835 207.88 104.94 207.88Z" fill="#4F37FD"/>
<path d="M104.94 258.88C106.045 258.88 106.94 257.984 106.94 256.88C106.94 255.775 106.045 254.88 104.94 254.88C103.835 254.88 102.94 255.775 102.94 256.88C102.94 257.984 103.835 258.88 104.94 258.88Z" fill="#4F37FD"/>
<path d="M104.94 246.88C106.045 246.88 106.94 245.984 106.94 244.88C106.94 243.775 106.045 242.88 104.94 242.88C103.835 242.88 102.94 243.775 102.94 244.88C102.94 245.984 103.835 246.88 104.94 246.88Z" fill="#4F37FD"/>
<path d="M104.94 234.88C106.045 234.88 106.94 233.984 106.94 232.88C106.94 231.775 106.045 230.88 104.94 230.88C103.835 230.88 102.94 231.775 102.94 232.88C102.94 233.984 103.835 234.88 104.94 234.88Z" fill="#4F37FD"/>
<path d="M104.94 222.88C106.045 222.88 106.94 221.984 106.94 220.88C106.94 219.775 106.045 218.88 104.94 218.88C103.835 218.88 102.94 219.775 102.94 220.88C102.94 221.984 103.835 222.88 104.94 222.88Z" fill="#4F37FD"/>
<path d="M169.88 210.88C172.641 210.88 174.88 208.641 174.88 205.88C174.88 203.118 172.641 200.88 169.88 200.88C167.119 200.88 164.88 203.118 164.88 205.88C164.88 208.641 167.119 210.88 169.88 210.88Z" fill="#4F37FD"/>
<path d="M104.88 278.88C107.641 278.88 109.88 276.641 109.88 273.88C109.88 271.118 107.641 268.88 104.88 268.88C102.119 268.88 99.88 271.118 99.88 273.88C99.88 276.641 102.119 278.88 104.88 278.88Z" fill="#4F37FD"/>
<path d="M365.38 289.32C366.485 289.32 367.38 288.425 367.38 287.32C367.38 286.215 366.485 285.32 365.38 285.32C364.275 285.32 363.38 286.215 363.38 287.32C363.38 288.425 364.275 289.32 365.38 289.32Z" fill="#4F37FD"/>
<path d="M365.38 301.32C366.485 301.32 367.38 300.425 367.38 299.32C367.38 298.215 366.485 297.32 365.38 297.32C364.275 297.32 363.38 298.215 363.38 299.32C363.38 300.425 364.275 301.32 365.38 301.32Z" fill="#4F37FD"/>
<path d="M365.38 313.32C366.485 313.32 367.38 312.425 367.38 311.32C367.38 310.215 366.485 309.32 365.38 309.32C364.275 309.32 363.38 310.215 363.38 311.32C363.38 312.425 364.275 313.32 365.38 313.32Z" fill="#4F37FD"/>
<path d="M365.38 325.32C366.485 325.32 367.38 324.425 367.38 323.32C367.38 322.215 366.485 321.32 365.38 321.32C364.275 321.32 363.38 322.215 363.38 323.32C363.38 324.425 364.275 325.32 365.38 325.32Z" fill="#4F37FD"/>
<path d="M365.38 337.32C366.485 337.32 367.38 336.425 367.38 335.32C367.38 334.215 366.485 333.32 365.38 333.32C364.275 333.32 363.38 334.215 363.38 335.32C363.38 336.425 364.275 337.32 365.38 337.32Z" fill="#4F37FD"/>
<path d="M365.38 275.38C368.141 275.38 370.38 273.141 370.38 270.38C370.38 267.618 368.141 265.38 365.38 265.38C362.619 265.38 360.38 267.618 360.38 270.38C360.38 273.141 362.619 275.38 365.38 275.38Z" fill="#4F37FD"/>
<path d="M389.38 384.82C390.485 384.82 391.38 383.925 391.38 382.82C391.38 381.715 390.485 380.82 389.38 380.82C388.275 380.82 387.38 381.715 387.38 382.82C387.38 383.925 388.275 384.82 389.38 384.82Z" fill="#4F37FD"/>
<path d="M377.38 384.82C378.485 384.82 379.38 383.925 379.38 382.82C379.38 381.715 378.485 380.82 377.38 380.82C376.275 380.82 375.38 381.715 375.38 382.82C375.38 383.925 376.275 384.82 377.38 384.82Z" fill="#4F37FD"/>
<path d="M406.37 387.88C409.131 387.88 411.37 385.641 411.37 382.88C411.37 380.118 409.131 377.88 406.37 377.88C403.609 377.88 401.37 380.118 401.37 382.88C401.37 385.641 403.609 387.88 406.37 387.88Z" fill="#4F37FD"/>
<path d="M493.79 367.47C494.935 367.784 495.946 368.465 496.668 369.407C497.39 370.35 497.784 371.503 497.79 372.69V392.77C497.78 405.207 493.916 417.335 486.73 427.485C479.543 437.636 469.387 445.309 457.66 449.45C457.075 449.66 456.435 449.66 455.85 449.45C444.131 445.304 433.985 437.628 426.809 427.477C419.633 417.326 415.78 405.201 415.78 392.77V372.69C415.78 371.51 416.165 370.362 416.876 369.42C417.587 368.478 418.585 367.794 419.72 367.47L455.26 357.36C456.241 357.086 457.279 357.086 458.26 357.36L493.79 367.47Z" fill="#4F37FD" stroke="#1C1E4F" stroke-width="0.75" stroke-miterlimit="10"/>
<path d="M365.38 349.32C366.485 349.32 367.38 348.425 367.38 347.32C367.38 346.215 366.485 345.32 365.38 345.32C364.275 345.32 363.38 346.215 363.38 347.32C363.38 348.425 364.275 349.32 365.38 349.32Z" fill="#4F37FD"/>
<path d="M365.38 360.88C366.485 360.88 367.38 359.984 367.38 358.88C367.38 357.775 366.485 356.88 365.38 356.88C364.275 356.88 363.38 357.775 363.38 358.88C363.38 359.984 364.275 360.88 365.38 360.88Z" fill="#4F37FD"/>
<path d="M365.38 372.88C366.485 372.88 367.38 371.984 367.38 370.88C367.38 369.775 366.485 368.88 365.38 368.88C364.275 368.88 363.38 369.775 363.38 370.88C363.38 371.984 364.275 372.88 365.38 372.88Z" fill="#4F37FD"/>
<path d="M365.38 384.88C366.485 384.88 367.38 383.984 367.38 382.88C367.38 381.775 366.485 380.88 365.38 380.88C364.275 380.88 363.38 381.775 363.38 382.88C363.38 383.984 364.275 384.88 365.38 384.88Z" fill="#4F37FD"/>
<path d="M511.18 218.38H461.05C459.989 218.38 458.972 217.958 458.222 217.208C457.471 216.458 457.05 215.441 457.05 214.38V192.38C457.05 191.319 457.471 190.302 458.222 189.551C458.972 188.801 459.989 188.38 461.05 188.38H511.18C512.241 188.38 513.258 188.801 514.008 189.551C514.759 190.302 515.18 191.319 515.18 192.38V214.38C515.18 215.441 514.759 216.458 514.008 217.208C513.258 217.958 512.241 218.38 511.18 218.38Z" fill="#1C1E4F"/>
<path d="M506.18 213.38H456.05C454.989 213.38 453.972 212.958 453.222 212.208C452.471 211.458 452.05 210.441 452.05 209.38V187.38C452.05 186.319 452.471 185.302 453.222 184.551C453.972 183.801 454.989 183.38 456.05 183.38H506.18C507.241 183.38 508.258 183.801 509.008 184.551C509.759 185.302 510.18 186.319 510.18 187.38V209.38C510.18 210.441 509.759 211.458 509.008 212.208C508.258 212.958 507.241 213.38 506.18 213.38Z" fill="#2CCD9A" stroke="#1C1E4F" stroke-width="0.75" stroke-miterlimit="10"/>
<path d="M470.11 189.38H462.11V207.38H470.11" stroke="#1C1E4F" stroke-width="0.75" stroke-linecap="round" stroke-linejoin="round"/>
<path d="M492.11 207.38H500.11V189.38H492.11" stroke="#1C1E4F" stroke-width="0.75" stroke-linecap="round" stroke-linejoin="round"/>
<path d="M474.11 199.38C474.662 199.38 475.11 198.932 475.11 198.38C475.11 197.828 474.662 197.38 474.11 197.38C473.558 197.38 473.11 197.828 473.11 198.38C473.11 198.932 473.558 199.38 474.11 199.38Z" fill="#1C1E4F"/>
<path d="M481.11 199.38C481.662 199.38 482.11 198.932 482.11 198.38C482.11 197.828 481.662 197.38 481.11 197.38C480.558 197.38 480.11 197.828 480.11 198.38C480.11 198.932 480.558 199.38 481.11 199.38Z" fill="#1C1E4F"/>
<path d="M488.11 199.38C488.662 199.38 489.11 198.932 489.11 198.38C489.11 197.828 488.662 197.38 488.11 197.38C487.558 197.38 487.11 197.828 487.11 198.38C487.11 198.932 487.558 199.38 488.11 199.38Z" fill="#1C1E4F"/>
</g>
<defs>
<clipPath id="clip0">
<rect width="515.17" height="449.98" fill="white"/>
</clipPath>
</defs>
</svg>
