<svg width="280" height="40" viewBox="0 0 280 40" fill="none" xmlns="http://www.w3.org/2000/svg">
<path d="M78.4459 0H52.2973V13.3366H78.4459V0Z" fill="#1C1E4F"/>
<path d="M0 0V13.3366H13.0743V40H26.1486V13.3366H39.2229V0H0Z" fill="#1C1E4F"/>
<path d="M39.2227 39.9998H52.297H78.4553V26.6633H52.297V13.3364H39.2227V39.9998Z" fill="#1C1E4F"/>
<path d="M111.783 10.0825H92.5693V15.6192H98.9996V33.0257H105.352V15.6192H111.783V10.0825Z" fill="#1C1E4F"/>
<path d="M119.029 15.4541C114.512 15.4541 111.161 18.5041 111.161 24.439C111.161 29.7134 114.017 33.3851 119.194 33.3851C121.667 33.4038 124.096 32.7309 126.207 31.4424L123.954 27.6736C122.6 28.4635 121.062 28.8823 119.495 28.8878C119.12 28.9147 118.743 28.8634 118.388 28.7369C118.033 28.6105 117.708 28.4118 117.434 28.1534C117.161 27.895 116.943 27.5825 116.796 27.2357C116.65 26.889 116.576 26.5155 116.581 26.1389H126.683C126.683 25.8378 126.683 25.4784 126.683 24.9927C126.693 18.5721 123.74 15.4541 119.029 15.4541ZM116.572 22.4381C116.776 20.7285 117.543 19.8154 118.874 19.8154C120.603 19.8154 121.195 20.6994 121.496 22.4381H116.572Z" fill="#1C1E4F"/>
<path d="M137.873 28.5962C136.27 28.5962 135.444 27.1877 135.444 24.468C135.444 21.7482 136.202 20.2426 137.707 20.2426C138.99 20.2426 139.543 20.9614 140.359 22.467L144.429 19.3878C142.924 16.9595 141.049 15.5024 137.805 15.5024C132.297 15.5024 129.606 19.145 129.606 24.4194C129.606 30.2475 132.627 33.4335 137.678 33.4335C140.728 33.4335 142.593 32.2873 144.594 29.3344L140.855 26.4204C139.776 27.9745 138.99 28.5962 137.873 28.5962Z" fill="#1C1E4F"/>
<path d="M158.193 15.4543C156.619 15.4232 155.085 15.9574 153.871 16.9599V9.13086L147.965 11.4912V33.0259H153.871V23.1862C153.871 21.0298 154.619 20.4373 155.872 20.4373C157.125 20.4373 157.814 21.0298 157.814 23.2542V33.0259H163.749V22.5063C163.769 17.9798 161.962 15.4543 158.193 15.4543Z" fill="#1C1E4F"/>
<path d="M177.999 27.8487C175.24 27.8487 174.114 25.0609 174.114 21.5544C174.114 18.0478 175.26 15.26 177.921 15.26C180.019 15.26 180.835 16.6005 181.622 18.7277L187.392 16.4742C185.818 12.142 183.594 9.6748 177.95 9.6748C171.792 9.6748 167.46 14.1333 167.46 21.5155C167.46 28.3149 171.103 33.3465 177.921 33.3465C183.361 33.3465 185.916 30.4324 187.46 27.4116L182.088 24.5752C180.845 26.7608 179.99 27.8487 177.999 27.8487Z" fill="#1C1E4F"/>
<path d="M196.94 17.0568V15.8329H191.044V33.0257H196.94V23.6522C196.94 21.5541 197.824 20.8645 199.271 20.8645C199.806 20.8909 200.329 21.0332 200.804 21.2814C201.278 21.5296 201.693 21.8778 202.02 22.3021L203.399 16.1729C202.379 15.5783 201.188 15.3423 200.018 15.5025C198.847 15.6627 197.764 16.2098 196.94 17.0568Z" fill="#1C1E4F"/>
<path d="M216.085 25.6533C216.085 27.8097 215.327 28.4022 214.142 28.4022C212.957 28.4022 212.2 27.8097 212.2 25.5853V15.833H206.265V26.3332C206.265 30.8597 208.071 33.3852 211.84 33.3852C213.406 33.4171 214.931 32.8824 216.134 31.8796V33.0258H221.991V15.833H216.056L216.085 25.6533Z" fill="#1C1E4F"/>
<path d="M236.561 15.4543C234.984 15.4251 233.448 15.9589 232.229 16.9598V15.8331H226.333V33.0259H232.229V23.1862C232.229 21.0298 232.987 20.4373 234.23 20.4373C235.473 20.4373 236.173 21.0298 236.173 23.2542V33.0259H242.108V22.5062C242.117 17.9798 240.311 15.4543 236.561 15.4543Z" fill="#1C1E4F"/>
<path d="M253.851 28.5962C252.239 28.5962 251.423 27.1877 251.423 24.468C251.423 21.7482 252.18 20.2426 253.686 20.2426C254.968 20.2426 255.522 20.9614 256.338 22.467L260.408 19.3878C258.902 16.9595 257.027 15.5024 253.783 15.5024C248.276 15.5024 245.585 19.145 245.585 24.4194C245.585 30.2475 248.606 33.4335 253.657 33.4335C256.697 33.4335 258.572 32.2873 260.573 29.3344L256.833 26.4204C255.755 27.9745 255.017 28.5962 253.851 28.5962Z" fill="#1C1E4F"/>
<path d="M274.172 15.4543C272.597 15.4232 271.064 15.9574 269.849 16.9599V9.13086L263.943 11.4912V33.0259H269.849V23.1862C269.849 21.0298 270.597 20.4373 271.85 20.4373C273.103 20.4373 273.793 21.0298 273.793 23.2542V33.0259H279.728V22.5063C279.747 17.9798 277.94 15.4543 274.172 15.4543Z" fill="#1C1E4F"/>
</svg>
