<svg width="131" height="35" viewBox="0 0 131 35" fill="none" xmlns="http://www.w3.org/2000/svg">
<path d="M94.8827 1.43365C91.8494 0.466511 88.643 -0.0188037 85.4147 0.000557222C74.9744 0.000557222 67.6009 4.60244 67.5487 11.2084C67.4835 16.0615 72.7884 18.7963 76.8014 20.4178C80.9188 22.085 82.2956 23.1356 82.2826 24.6258C82.2565 26.8925 78.9939 27.9202 75.9597 27.9202C71.7901 27.9202 69.5128 27.412 66.0088 26.1388L64.7102 25.6078L63.229 33.2129C65.7673 34.1379 70.3415 34.9315 75.0657 35C86.165 35 93.4211 30.4267 93.5059 23.3982C93.5972 19.5215 90.7262 16.5925 84.6838 14.1716C81.0102 12.6015 78.7329 11.5509 78.7329 9.95798C78.7329 8.54773 80.6839 7.04041 84.7621 7.04041C87.4763 6.98295 90.1737 7.42853 92.6772 8.3479L93.656 8.73043L95.1372 1.38226L94.8827 1.43365ZM121.975 0.617186H113.819C111.28 0.617186 109.369 1.22811 108.259 3.43199L92.5728 34.5261H103.672L105.891 29.4275L119.437 29.4389C119.757 30.6322 120.735 34.5261 120.735 34.5261H130.523L121.975 0.617186ZM52.5343 0.331708H63.1116L56.495 34.2578H45.9308L52.5343 0.32029V0.331708ZM25.6831 19.0304L26.7794 23.7408L37.1152 0.617186H48.319L31.6732 34.4804H20.4956L11.3603 5.80715C11.2124 5.33435 10.8649 4.92829 10.3881 4.67096C7.09549 3.18269 3.60676 2.05329 0 1.30804L0.143554 0.594344H17.1678C19.4777 0.674277 21.3373 1.30804 21.9572 3.46624L25.6766 19.0476V19.0304H25.6831ZM108.925 22.4904L113.14 13.0012C113.088 13.1039 114.008 11.0428 114.543 9.76957L115.267 12.6986L117.714 22.4847H108.918V22.4904H108.925Z" fill="#1C1E4F"/>
</svg>
