<svg width="305" height="274" viewBox="0 0 305 274" fill="none" xmlns="http://www.w3.org/2000/svg">
<path d="M300.596 1H129.39C127.518 1 126 2.5173 126 4.38898V145.032C126 146.903 127.518 148.421 129.39 148.421H300.596C302.468 148.421 303.986 146.903 303.986 145.032V4.38898C303.986 2.5173 302.468 1 300.596 1Z" fill="white" stroke="#1C1E4F" stroke-width="0.75" stroke-miterlimit="10"/>
<path d="M304 18.7922H126.014" stroke="#1C1E4F" stroke-width="0.75" stroke-miterlimit="10"/>
<path d="M137.769 12.8614C139.407 12.8614 140.736 11.5338 140.736 9.89609C140.736 8.25836 139.407 6.93073 137.769 6.93073C136.131 6.93073 134.803 8.25836 134.803 9.89609C134.803 11.5338 136.131 12.8614 137.769 12.8614Z" stroke="#1C1E4F" stroke-width="0.75" stroke-miterlimit="10"/>
<path d="M147.515 12.8614C149.154 12.8614 150.482 11.5338 150.482 9.89609C150.482 8.25836 149.154 6.93073 147.515 6.93073C145.877 6.93073 144.549 8.25836 144.549 9.89609C144.549 11.5338 145.877 12.8614 147.515 12.8614Z" stroke="#1C1E4F" stroke-width="0.75" stroke-miterlimit="10"/>
<path d="M156.838 12.8614C158.476 12.8614 159.804 11.5338 159.804 9.89609C159.804 8.25836 158.476 6.93073 156.838 6.93073C155.199 6.93073 153.871 8.25836 153.871 9.89609C153.871 11.5338 155.199 12.8614 156.838 12.8614Z" stroke="#1C1E4F" stroke-width="0.75" stroke-miterlimit="10"/>
<path d="M224.753 33.619H137.769C136.131 33.619 134.803 34.9466 134.803 36.5843C134.803 38.222 136.131 39.5497 137.769 39.5497H224.753C226.392 39.5497 227.72 38.222 227.72 36.5843C227.72 34.9466 226.392 33.619 224.753 33.619Z" fill="#E9ECFC"/>
<path d="M193.394 46.3276H137.769C136.131 46.3276 134.803 47.6552 134.803 49.2929C134.803 50.9307 136.131 52.2583 137.769 52.2583H193.394C195.032 52.2583 196.36 50.9307 196.36 49.2929C196.36 47.6552 195.032 46.3276 193.394 46.3276Z" fill="#2CCD9A"/>
<path d="M218.821 59.0364H154.72C153.082 59.0364 151.754 60.364 151.754 62.0017C151.754 63.6395 153.082 64.9671 154.72 64.9671H218.821C220.459 64.9671 221.787 63.6395 221.787 62.0017C221.787 60.364 220.459 59.0364 218.821 59.0364Z" fill="#E9ECFC"/>
<path d="M199.327 71.7451H154.72C153.082 71.7451 151.754 73.0727 151.754 74.7104C151.754 76.3481 153.082 77.6758 154.72 77.6758H199.327C200.965 77.6758 202.293 76.3481 202.293 74.7104C202.293 73.0727 200.965 71.7451 199.327 71.7451Z" fill="#2CCD9A"/>
<path d="M65.5245 54.3764H23.0367C22.1376 54.3764 21.2752 54.0194 20.6395 53.3838C20.0037 52.7483 19.6465 51.8863 19.6465 50.9874V32.348C19.6465 31.4492 20.0037 30.5872 20.6395 29.9517C21.2752 29.3161 22.1376 28.959 23.0367 28.959H65.5245C66.4236 28.959 67.286 29.3161 67.9217 29.9517C68.5575 30.5872 68.9147 31.4492 68.9147 32.348V50.9874C68.9147 51.8863 68.5575 52.7483 67.9217 53.3838C67.286 54.0194 66.4236 54.3764 65.5245 54.3764Z" fill="#1C1E4F"/>
<path d="M61.2862 50.1402H18.7984C17.8993 50.1402 17.037 49.7832 16.4012 49.1476C15.7654 48.5121 15.4082 47.65 15.4082 46.7512V28.1118C15.4082 27.213 15.7654 26.351 16.4012 25.7155C17.037 25.0799 17.8993 24.7228 18.7984 24.7228H61.2862C62.1854 24.7228 63.0477 25.0799 63.6835 25.7155C64.3193 26.351 64.6764 27.213 64.6764 28.1118V46.7512C64.6764 47.65 64.3193 48.5121 63.6835 49.1476C63.0477 49.7832 62.1854 50.1402 61.2862 50.1402Z" fill="#2CCD9A" stroke="#1C1E4F" stroke-width="0.75" stroke-linecap="round" stroke-linejoin="round"/>
<path d="M47.666 30.6535L55.294 38.2787L47.666 45.9039" fill="#2CCD9A"/>
<path d="M47.666 30.6535L55.294 38.2787L47.666 45.9039" stroke="#1C1E4F" stroke-width="0.75" stroke-linecap="round" stroke-linejoin="round"/>
<path d="M32.4112 45.9039L24.7832 38.2787L32.4112 30.6535" fill="#2CCD9A"/>
<path d="M32.4112 45.9039L24.7832 38.2787L32.4112 30.6535" stroke="#1C1E4F" stroke-width="0.75" stroke-linecap="round" stroke-linejoin="round"/>
<path d="M43.9639 31.0772L36.3359 45.4804" stroke="#1C1E4F" stroke-width="0.75" stroke-linecap="round" stroke-linejoin="round"/>
<path d="M298.49 188.241H220.515C218.643 188.241 217.125 189.759 217.125 191.63V269.577C217.125 271.449 218.643 272.966 220.515 272.966H298.49C300.362 272.966 301.88 271.449 301.88 269.577V191.63C301.88 189.759 300.362 188.241 298.49 188.241Z" fill="#1C1E4F"/>
<path d="M290.015 179.769H212.041C210.168 179.769 208.65 181.286 208.65 183.158V261.104C208.65 262.976 210.168 264.493 212.041 264.493H290.015C291.888 264.493 293.406 262.976 293.406 261.104V183.158C293.406 181.286 291.888 179.769 290.015 179.769Z" fill="white" stroke="#1C1E4F" stroke-width="0.75" stroke-miterlimit="10"/>
<path d="M219.861 194.57V190.978" stroke="#1C1E4F" stroke-width="0.75" stroke-linecap="round" stroke-linejoin="round"/>
<path d="M282.183 253.284L219.854 190.978H223.456" fill="white"/>
<path d="M282.183 253.284L219.854 190.978H223.456" stroke="#1C1E4F" stroke-width="0.75" stroke-linecap="round" stroke-linejoin="round"/>
<path d="M282.184 249.692V253.285" stroke="#1C1E4F" stroke-width="0.75" stroke-linecap="round" stroke-linejoin="round"/>
<path d="M282.183 253.284H278.59" stroke="#1C1E4F" stroke-width="0.75" stroke-linecap="round" stroke-linejoin="round"/>
<path d="M109.91 137.661H12.441C10.5686 137.661 9.05078 139.178 9.05078 141.05V270.611C9.05078 272.483 10.5686 274 12.441 274H109.91C111.782 274 113.3 272.483 113.3 270.611V141.05C113.3 139.178 111.782 137.661 109.91 137.661Z" fill="#1C1E4F"/>
<path d="M101.859 128.934H4.39021C2.51785 128.934 1 130.452 1 132.323V261.884C1 263.756 2.51785 265.273 4.39021 265.273H101.859C103.731 265.273 105.249 263.756 105.249 261.884V132.323C105.249 130.452 103.731 128.934 101.859 128.934Z" fill="white" stroke="#1C1E4F" stroke-width="0.75" stroke-miterlimit="10"/>
<path d="M24.4933 150.361L17.5264 146.379L10.5595 150.361C10.3842 150.361 10.216 150.292 10.0921 150.168C9.96809 150.044 9.89844 149.876 9.89844 149.7V129.172C9.89844 128.996 9.96809 128.828 10.0921 128.704C10.216 128.58 10.3842 128.511 10.5595 128.511H24.4933C24.6686 128.511 24.8368 128.58 24.9608 128.704C25.0847 128.828 25.1544 128.996 25.1544 129.172V149.7C25.1544 149.876 25.0847 150.044 24.9608 150.168C24.8368 150.292 24.6686 150.361 24.4933 150.361Z" fill="#2CCD9A"/>
<path d="M68.8042 172.567H13.1793C11.541 172.567 10.2129 173.895 10.2129 175.533C10.2129 177.17 11.541 178.498 13.1793 178.498H68.8042C70.4425 178.498 71.7706 177.17 71.7706 175.533C71.7706 173.895 70.4425 172.567 68.8042 172.567Z" fill="#E9ECFC"/>
<path d="M84.0601 185.276H13.1793C11.541 185.276 10.2129 186.604 10.2129 188.241C10.2129 189.879 11.541 191.207 13.1793 191.207H84.0601C85.6984 191.207 87.0266 189.879 87.0266 188.241C87.0266 186.604 85.6984 185.276 84.0601 185.276Z" fill="#E9ECFC"/>
<path d="M49.3105 197.985H13.1793C11.541 197.985 10.2129 199.312 10.2129 200.95C10.2129 202.588 11.541 203.916 13.1793 203.916H49.3105C50.9488 203.916 52.2769 202.588 52.2769 200.95C52.2769 199.312 50.9488 197.985 49.3105 197.985Z" fill="#E9ECFC"/>
<path d="M76.4322 210.693H13.1793C11.541 210.693 10.2129 212.021 10.2129 213.659C10.2129 215.297 11.541 216.624 13.1793 216.624H76.4322C78.0705 216.624 79.3986 215.297 79.3986 213.659C79.3986 212.021 78.0705 210.693 76.4322 210.693Z" fill="#E9ECFC"/>
<path d="M40.835 223.402H13.1793C11.541 223.402 10.2129 224.73 10.2129 226.367C10.2129 228.005 11.541 229.333 13.1793 229.333H40.835C42.4733 229.333 43.8014 228.005 43.8014 226.367C43.8014 224.73 42.4733 223.402 40.835 223.402Z" fill="#E9ECFC"/>
<path d="M66.2615 236.111H13.1793C11.541 236.111 10.2129 237.439 10.2129 239.076C10.2129 240.714 11.541 242.042 13.1793 242.042H66.2615C67.8998 242.042 69.228 240.714 69.228 239.076C69.228 237.439 67.8998 236.111 66.2615 236.111Z" fill="#E9ECFC"/>
<path d="M130.302 92.079C131.238 92.079 131.997 91.3203 131.997 90.3845C131.997 89.4487 131.238 88.69 130.302 88.69C129.366 88.69 128.607 89.4487 128.607 90.3845C128.607 91.3203 129.366 92.079 130.302 92.079Z" fill="#2CCD9A"/>
<path d="M120.13 92.079C121.066 92.079 121.825 91.3203 121.825 90.3845C121.825 89.4487 121.066 88.69 120.13 88.69C119.194 88.69 118.435 89.4487 118.435 90.3845C118.435 91.3203 119.194 92.079 120.13 92.079Z" fill="#2CCD9A"/>
<path d="M109.96 92.079C110.896 92.079 111.655 91.3203 111.655 90.3845C111.655 89.4487 110.896 88.69 109.96 88.69C109.024 88.69 108.265 89.4487 108.265 90.3845C108.265 91.3203 109.024 92.079 109.96 92.079Z" fill="#2CCD9A"/>
<path d="M99.7902 92.079C100.726 92.079 101.485 91.3203 101.485 90.3845C101.485 89.4487 100.726 88.69 99.7902 88.69C98.8541 88.69 98.0951 89.4487 98.0951 90.3845C98.0951 91.3203 98.8541 92.079 99.7902 92.079Z" fill="#2CCD9A"/>
<path d="M89.6184 92.079C90.5545 92.079 91.3135 91.3203 91.3135 90.3845C91.3135 89.4487 90.5545 88.69 89.6184 88.69C88.6822 88.69 87.9233 89.4487 87.9233 90.3845C87.9233 91.3203 88.6822 92.079 89.6184 92.079Z" fill="#2CCD9A"/>
<path d="M89.6184 135.289C90.5545 135.289 91.3135 134.53 91.3135 133.594C91.3135 132.658 90.5545 131.9 89.6184 131.9C88.6822 131.9 87.9233 132.658 87.9233 133.594C87.9233 134.53 88.6822 135.289 89.6184 135.289Z" fill="#2CCD9A"/>
<path d="M89.6184 125.122C90.5545 125.122 91.3135 124.363 91.3135 123.427C91.3135 122.491 90.5545 121.733 89.6184 121.733C88.6822 121.733 87.9233 122.491 87.9233 123.427C87.9233 124.363 88.6822 125.122 89.6184 125.122Z" fill="#2CCD9A"/>
<path d="M89.6184 114.955C90.5545 114.955 91.3135 114.196 91.3135 113.26C91.3135 112.324 90.5545 111.566 89.6184 111.566C88.6822 111.566 87.9233 112.324 87.9233 113.26C87.9233 114.196 88.6822 114.955 89.6184 114.955Z" fill="#2CCD9A"/>
<path d="M89.6184 104.788C90.5545 104.788 91.3135 104.029 91.3135 103.093C91.3135 102.157 90.5545 101.399 89.6184 101.399C88.6822 101.399 87.9233 102.157 87.9233 103.093C87.9233 104.029 88.6822 104.788 89.6184 104.788Z" fill="#2CCD9A"/>
<path d="M144.66 94.6208C147.001 94.6208 148.898 92.7242 148.898 90.3846C148.898 88.045 147.001 86.1484 144.66 86.1484C142.32 86.1484 140.422 88.045 140.422 90.3846C140.422 92.7242 142.32 94.6208 144.66 94.6208Z" fill="#2CCD9A"/>
<path d="M89.5692 152.234C91.9097 152.234 93.807 150.337 93.807 147.997C93.807 145.658 91.9097 143.761 89.5692 143.761C87.2288 143.761 85.3315 145.658 85.3315 147.997C85.3315 150.337 87.2288 152.234 89.5692 152.234Z" fill="#2CCD9A"/>
</svg>
